%TF.GenerationSoftware,KiCad,Pcbnew,9.0.2*%
%TF.CreationDate,2025-06-01T02:46:12+05:30*%
%TF.ProjectId,TechLab,54656368-4c61-4622-9e6b-696361645f70,rev?*%
%TF.SameCoordinates,Original*%
%TF.FileFunction,Copper,L2,Bot*%
%TF.FilePolarity,Positive*%
%FSLAX46Y46*%
G04 Gerber Fmt 4.6, Leading zero omitted, Abs format (unit mm)*
G04 Created by KiCad (PCBNEW 9.0.2) date 2025-06-01 02:46:12*
%MOMM*%
%LPD*%
G01*
G04 APERTURE LIST*
%TA.AperFunction,ComponentPad*%
%ADD10C,1.524000*%
%TD*%
%TA.AperFunction,ComponentPad*%
%ADD11C,1.609600*%
%TD*%
%TA.AperFunction,ComponentPad*%
%ADD12C,3.316000*%
%TD*%
%TA.AperFunction,HeatsinkPad*%
%ADD13O,1.000000X2.100000*%
%TD*%
%TA.AperFunction,HeatsinkPad*%
%ADD14O,1.000000X1.800000*%
%TD*%
%TA.AperFunction,ViaPad*%
%ADD15C,0.914400*%
%TD*%
%TA.AperFunction,ViaPad*%
%ADD16C,0.660400*%
%TD*%
%TA.AperFunction,ViaPad*%
%ADD17C,1.041400*%
%TD*%
%TA.AperFunction,ViaPad*%
%ADD18C,1.016000*%
%TD*%
%TA.AperFunction,ViaPad*%
%ADD19C,0.812800*%
%TD*%
%TA.AperFunction,ViaPad*%
%ADD20C,0.600000*%
%TD*%
%TA.AperFunction,ViaPad*%
%ADD21C,0.787400*%
%TD*%
%TA.AperFunction,Conductor*%
%ADD22C,0.152400*%
%TD*%
%TA.AperFunction,Conductor*%
%ADD23C,0.200000*%
%TD*%
%TA.AperFunction,Conductor*%
%ADD24C,0.406400*%
%TD*%
%TA.AperFunction,Conductor*%
%ADD25C,0.508000*%
%TD*%
%TA.AperFunction,Conductor*%
%ADD26C,1.016000*%
%TD*%
G04 APERTURE END LIST*
D10*
%TO.P,JMP1,1,1*%
%TO.N,Net-(U1-WP)*%
X152501100Y-59608600D03*
%TO.P,JMP1,2,2*%
%TO.N,GND*%
X152501100Y-62148600D03*
%TD*%
D11*
%TO.P,X1,1,VBUS*%
%TO.N,/Page1/USB.HOST.VOUT*%
X174844850Y-62368600D03*
%TO.P,X1,2,D-*%
%TO.N,USB1.D-*%
X172344850Y-62368600D03*
%TO.P,X1,3,D+*%
%TO.N,USB1.D+*%
X170344850Y-62368600D03*
%TO.P,X1,4,GND*%
%TO.N,GND*%
X167844850Y-62368600D03*
D12*
%TO.P,X1,C1,CG@6*%
%TO.N,CGND*%
X177914850Y-59658500D03*
%TO.P,X1,C2,CG@5*%
X164774850Y-59658500D03*
%TD*%
D13*
%TO.P,J2,S1,SHIELD*%
%TO.N,CGND*%
X241120000Y-55015000D03*
D14*
X241120000Y-50835000D03*
D13*
X232480000Y-55015000D03*
D14*
X232480000Y-50835000D03*
%TD*%
D15*
%TO.N,GND*%
X167876100Y-54316100D03*
D16*
X175151100Y-81066100D03*
D17*
X253688600Y-66316100D03*
D16*
X222813600Y-63066100D03*
D18*
X182876100Y-70393600D03*
D16*
X244501100Y-54816100D03*
D15*
X190313600Y-73568600D03*
D16*
X232200000Y-101000000D03*
D15*
X192313600Y-73568600D03*
D16*
X256188600Y-68128600D03*
X151063600Y-68691100D03*
D19*
X185188600Y-71028600D03*
D16*
X151751100Y-72066100D03*
D20*
X201590000Y-101140000D03*
D16*
X250188600Y-63066100D03*
D18*
X160001100Y-70393600D03*
D16*
X178126100Y-83941100D03*
X173376100Y-87253600D03*
D19*
X177626100Y-64566100D03*
X248812500Y-97900000D03*
D16*
X176001100Y-69816100D03*
X232126100Y-84878600D03*
X154813600Y-68676100D03*
D19*
X173876100Y-96441100D03*
D16*
X254663600Y-63378600D03*
X229188600Y-65566100D03*
D15*
X192313600Y-81188600D03*
X215813600Y-81188600D03*
D16*
X153251100Y-72066100D03*
D19*
X162376100Y-96441100D03*
D17*
X226313600Y-66316100D03*
D16*
X231438600Y-58378600D03*
D17*
X173876100Y-82753600D03*
D20*
X151300000Y-83730000D03*
D16*
X164376100Y-63628600D03*
X168938600Y-69816100D03*
D17*
X230188600Y-55003600D03*
D15*
X215813600Y-73568600D03*
D16*
X224600000Y-101650000D03*
D20*
X151250000Y-81250000D03*
D16*
X225376100Y-52378600D03*
X241876100Y-58378600D03*
%TO.N,/Page2/LDF1*%
X230876100Y-65491100D03*
X230251100Y-72253600D03*
%TO.N,/Page2/LDE1*%
X231126100Y-72253600D03*
X230876100Y-69241100D03*
%TO.N,/Page2/LDA1*%
X234501100Y-64441100D03*
X234907350Y-72909850D03*
%TO.N,/Page2/LDG1*%
X229376100Y-72253600D03*
X233626100Y-64441100D03*
%TO.N,/Page2/LDD1*%
X232501100Y-72253600D03*
X235551100Y-71191100D03*
%TO.N,/Page2/LDB1*%
X235376100Y-64441100D03*
X234251100Y-72253600D03*
%TO.N,/Page2/LDC1*%
X237001100Y-70378600D03*
X233376100Y-72253600D03*
%TO.N,/Page2/LDF2*%
X226313600Y-61128600D03*
X244626100Y-64441100D03*
%TO.N,/Page2/LDE2*%
X226313600Y-62003600D03*
X245501100Y-68628600D03*
%TO.N,/Page2/LDA2*%
X228938600Y-59378600D03*
X246551100Y-61441100D03*
%TO.N,/Page2/LDG2*%
X245501100Y-67753600D03*
X226313600Y-60253600D03*
%TO.N,/Page2/LDD2*%
X246551100Y-71191100D03*
X226313600Y-59378600D03*
%TO.N,/Page2/LDB2*%
X246376100Y-64441100D03*
X228063600Y-59378600D03*
%TO.N,/Page2/LDC2*%
X227188600Y-59378600D03*
X248001100Y-70378600D03*
%TO.N,RESET#*%
X223126100Y-57253600D03*
X224313600Y-68266100D03*
%TO.N,USB1.VBUS*%
X167876100Y-65878600D03*
X190313600Y-60868600D03*
D21*
%TO.N,CGND*%
X236398914Y-50665481D03*
D16*
%TO.N,USB1.D+*%
X190251100Y-68107600D03*
%TO.N,USB1.D-*%
X190251100Y-66329600D03*
D15*
%TO.N,VOUT*%
X225376100Y-78903600D03*
D17*
X191938600Y-83728600D03*
X177626100Y-69816100D03*
X216063600Y-71028600D03*
D15*
%TO.N,VIN*%
X245688600Y-55066100D03*
X204001100Y-55253600D03*
D20*
%TO.N,Net-(J2-D--PadA7)*%
X254113600Y-58652472D03*
X237550000Y-52600000D03*
%TO.N,Net-(J2-D+-PadA6)*%
X253263600Y-58652472D03*
X236050000Y-52550000D03*
D16*
%TO.N,/Page2/U6.2{slash}RX(USB->SERIAL)*%
X250751100Y-65991100D03*
X238750000Y-97250000D03*
%TO.N,/Page2/U6.15{slash}TX(USB->SERIAL)*%
X251938600Y-63128600D03*
X238813155Y-99264569D03*
%TO.N,Net-(U6-USB.D-)*%
X254126100Y-71159850D03*
X254126100Y-62066100D03*
%TO.N,Net-(U6-USB.D+)*%
X253251100Y-62066100D03*
X253251100Y-71159850D03*
%TO.N,Net-(U6-CBUS2)*%
X252001100Y-68003600D03*
X251313600Y-62503600D03*
%TO.N,USB1.DRVVBUS*%
X190313600Y-58328600D03*
X182751100Y-74253600D03*
%TO.N,P2.1{slash}PWM1A(RGB.G{slash}EXP1.16)*%
X228126100Y-94691100D03*
X216701100Y-60878600D03*
%TO.N,P2.33{slash}GPIO45(L.BTN)*%
X163626100Y-90503600D03*
X204001100Y-91941100D03*
%TO.N,P2.30{slash}PRU0.3(BUZZER)*%
X242650000Y-94750000D03*
X216701100Y-98691100D03*
%TO.N,P1.33{slash}PRU0.1(RGB.R)*%
X190188600Y-96428600D03*
X224188600Y-96941100D03*
%TO.N,P1.30{slash}UART0.TX(USB->SERIAL)*%
X236150000Y-97275000D03*
X204001100Y-97503600D03*
%TO.N,P1.29{slash}PRU0.7(R.BTN)*%
X190188600Y-91348600D03*
X172626100Y-90503600D03*
%TO.N,P1.36{slash}PWM0A(RGB.B)*%
X192438600Y-98968600D03*
X222938600Y-96628600D03*
%TO.N,P1.33{slash}PRU0.4(ACC.INT2)*%
X169063600Y-87441100D03*
X179688600Y-88878600D03*
D20*
%TO.N,P1.26(I2C2.SDA)*%
X151900000Y-82900000D03*
D16*
X174376100Y-80566100D03*
X155688600Y-67253600D03*
%TO.N,P1.34{slash}GPIO26(ACC.INT1)*%
X180313600Y-88253600D03*
X169688600Y-86816100D03*
%TO.N,P1.28(I2C2.SCL)*%
X176063600Y-82253600D03*
X156313600Y-66628600D03*
D20*
X151900000Y-84500000D03*
D16*
%TO.N,P1.35{slash}PRU1.10(RGB.G.ALT)*%
X225438600Y-97253600D03*
X190188600Y-98968600D03*
%TO.N,P1.32{slash}UART0.RX(USB->SERIAL)*%
X204001100Y-98441100D03*
X236012500Y-98712500D03*
%TD*%
D22*
%TO.N,P1.30{slash}UART0.TX(USB->SERIAL)*%
X236150000Y-97275000D02*
X235275000Y-97275000D01*
X235275000Y-97275000D02*
X234733900Y-97816100D01*
X234733900Y-97816100D02*
X204313600Y-97816100D01*
X204313600Y-97816100D02*
X204001100Y-97503600D01*
%TO.N,P1.32{slash}UART0.RX(USB->SERIAL)*%
X236012500Y-98712500D02*
X235242500Y-98712500D01*
X235242500Y-98712500D02*
X234658600Y-98128600D01*
X234658600Y-98128600D02*
X204313600Y-98128600D01*
X204313600Y-98128600D02*
X204001100Y-98441100D01*
%TO.N,GND*%
X231350000Y-101000000D02*
X230700000Y-101650000D01*
X232200000Y-101000000D02*
X231350000Y-101000000D01*
X230700000Y-101650000D02*
X224600000Y-101650000D01*
%TO.N,/Page2/LDF1*%
X230626100Y-65741100D02*
X230876100Y-65491100D01*
X230313600Y-69003600D02*
X230626100Y-68691100D01*
X230313600Y-69003600D02*
X230313600Y-72191100D01*
X230313600Y-72191100D02*
X230251100Y-72253600D01*
X230626100Y-68691100D02*
X230626100Y-65741100D01*
%TO.N,/Page2/LDE1*%
X230626100Y-71753600D02*
X230626100Y-69491100D01*
X231126100Y-72253600D02*
X230626100Y-71753600D01*
X230626100Y-69491100D02*
X230876100Y-69241100D01*
%TO.N,/Page2/LDA1*%
X235251100Y-72566100D02*
X236063600Y-72566100D01*
X237876100Y-66066100D02*
X237876100Y-70753600D01*
X235063600Y-63878600D02*
X234501100Y-64441100D01*
X235688600Y-63878600D02*
X237876100Y-66066100D01*
X237876100Y-70753600D02*
X236063600Y-72566100D01*
X235251100Y-72566100D02*
X234907350Y-72909850D01*
X235063600Y-63878600D02*
X235688600Y-63878600D01*
%TO.N,/Page2/LDG1*%
X230001100Y-68878600D02*
X230001100Y-71628600D01*
X230313600Y-65253600D02*
X231126100Y-64441100D01*
X230001100Y-71628600D02*
X229376100Y-72253600D01*
X231126100Y-64441100D02*
X233626100Y-64441100D01*
X230313600Y-68566100D02*
X230313600Y-65253600D01*
X230001100Y-68878600D02*
X230313600Y-68566100D01*
%TO.N,/Page2/LDD1*%
X235363600Y-71378600D02*
X235551100Y-71191100D01*
X233376100Y-71378600D02*
X235363600Y-71378600D01*
X232501100Y-72253600D02*
X233376100Y-71378600D01*
%TO.N,/Page2/LDB1*%
X235813600Y-64441100D02*
X235376100Y-64441100D01*
X237563600Y-66191100D02*
X235813600Y-64441100D01*
X237563600Y-70628600D02*
X237563600Y-66191100D01*
X235938600Y-72253600D02*
X237563600Y-70628600D01*
X234251100Y-72253600D02*
X235938600Y-72253600D01*
%TO.N,/Page2/LDC1*%
X234813600Y-71941100D02*
X235813600Y-71941100D01*
X237001100Y-70753600D02*
X235813600Y-71941100D01*
X233938600Y-71691100D02*
X234563600Y-71691100D01*
X233376100Y-72253600D02*
X233938600Y-71691100D01*
X234563600Y-71691100D02*
X234813600Y-71941100D01*
X237001100Y-70378600D02*
X237001100Y-70753600D01*
%TO.N,/Page2/LDF2*%
X240251100Y-63003600D02*
X243563600Y-63003600D01*
X243563600Y-63003600D02*
X244626100Y-64066100D01*
X226876100Y-61691100D02*
X238938600Y-61691100D01*
X244626100Y-64066100D02*
X244626100Y-64441100D01*
X226313600Y-61128600D02*
X226876100Y-61691100D01*
X238938600Y-61691100D02*
X240251100Y-63003600D01*
%TO.N,/Page2/LDE2*%
X226313600Y-62003600D02*
X238813600Y-62003600D01*
X244063600Y-64691100D02*
X244063600Y-63941100D01*
X244376100Y-65003600D02*
X244063600Y-64691100D01*
X245188600Y-67222350D02*
X245188600Y-65409850D01*
X244938600Y-68066100D02*
X244938600Y-67472350D01*
X244938600Y-67472350D02*
X245188600Y-67222350D01*
X238813600Y-62003600D02*
X240126100Y-63316100D01*
X245188600Y-65409850D02*
X244782350Y-65003600D01*
X244938600Y-68066100D02*
X245501100Y-68628600D01*
X244063600Y-63941100D02*
X243438600Y-63316100D01*
X240126100Y-63316100D02*
X243438600Y-63316100D01*
X244782350Y-65003600D02*
X244376100Y-65003600D01*
%TO.N,/Page2/LDA2*%
X228938600Y-59378600D02*
X229688600Y-60128600D01*
X229688600Y-60128600D02*
X239563600Y-60128600D01*
X246551100Y-61441100D02*
X240876100Y-61441100D01*
X239563600Y-60128600D02*
X240876100Y-61441100D01*
%TO.N,/Page2/LDG2*%
X226313600Y-60253600D02*
X227438600Y-61378600D01*
X227438600Y-61378600D02*
X239063600Y-61378600D01*
X245188600Y-64941100D02*
X245501100Y-65253600D01*
X240376100Y-62691100D02*
X243688600Y-62691100D01*
X239063600Y-61378600D02*
X240376100Y-62691100D01*
X245188600Y-64191100D02*
X245188600Y-64941100D01*
X245501100Y-65253600D02*
X245501100Y-67753600D01*
X243688600Y-62691100D02*
X245188600Y-64191100D01*
%TO.N,/Page2/LDD2*%
X245501100Y-64066100D02*
X243813600Y-62378600D01*
X226313600Y-59378600D02*
X228001100Y-61066100D01*
X246063600Y-67503600D02*
X246063600Y-70703600D01*
X245501100Y-64816100D02*
X245813600Y-65128600D01*
X245501100Y-64066100D02*
X245501100Y-64816100D01*
X239188600Y-61066100D02*
X240501100Y-62378600D01*
X243813600Y-62378600D02*
X240501100Y-62378600D01*
X246063600Y-70703600D02*
X246551100Y-71191100D01*
X245813600Y-65128600D02*
X245813600Y-67253600D01*
X228001100Y-61066100D02*
X239188600Y-61066100D01*
X245813600Y-67253600D02*
X246063600Y-67503600D01*
%TO.N,/Page2/LDB2*%
X239438600Y-60441100D02*
X240751100Y-61753600D01*
X246126100Y-63816100D02*
X244063600Y-61753600D01*
X229126100Y-60441100D02*
X239438600Y-60441100D01*
X240751100Y-61753600D02*
X244063600Y-61753600D01*
X246376100Y-64441100D02*
X246126100Y-64191100D01*
X228063600Y-59378600D02*
X229126100Y-60441100D01*
X246126100Y-64191100D02*
X246126100Y-63816100D01*
%TO.N,/Page2/LDC2*%
X227188600Y-59378600D02*
X228563600Y-60753600D01*
X248001100Y-69003600D02*
X248001100Y-70378600D01*
X245813600Y-64691100D02*
X246126100Y-65003600D01*
X246126100Y-67128600D02*
X248001100Y-69003600D01*
X246126100Y-65003600D02*
X246126100Y-67128600D01*
X245813600Y-63941100D02*
X243938600Y-62066100D01*
X239313600Y-60753600D02*
X240626100Y-62066100D01*
X245813600Y-63941100D02*
X245813600Y-64691100D01*
X243938600Y-62066100D02*
X240626100Y-62066100D01*
X228563600Y-60753600D02*
X239313600Y-60753600D01*
%TO.N,RESET#*%
X224313600Y-58441100D02*
X223126100Y-57253600D01*
X224313600Y-68266100D02*
X224313600Y-58441100D01*
%TO.N,USB1.VBUS*%
X168438600Y-60128600D02*
X166688600Y-61878600D01*
X181011100Y-60868600D02*
X179313600Y-62566100D01*
X166688600Y-61878600D02*
X166688600Y-64691100D01*
X190313600Y-60868600D02*
X181011100Y-60868600D01*
X179313600Y-62566100D02*
X176563600Y-62566100D01*
X166688600Y-64691100D02*
X167876100Y-65878600D01*
X174126100Y-60128600D02*
X168438600Y-60128600D01*
X176563600Y-62566100D02*
X174126100Y-60128600D01*
D23*
%TO.N,CGND*%
X232480000Y-50835000D02*
X241120000Y-50835000D01*
X232480000Y-55015000D02*
X232480000Y-50835000D01*
D24*
X149438600Y-77253600D02*
X149438600Y-77441100D01*
D22*
%TO.N,USB1.D+*%
X171183718Y-63207466D02*
X171183718Y-65115141D01*
X170344850Y-62368600D02*
X171183718Y-63207466D01*
X171183718Y-65115141D02*
X173439578Y-67371000D01*
X189514500Y-67371000D02*
X173439578Y-67371000D01*
X189514500Y-67371000D02*
X190251100Y-68107600D01*
%TO.N,USB1.D-*%
X189514500Y-67066200D02*
X190251100Y-66329600D01*
X172344850Y-62368600D02*
X171505984Y-63207466D01*
X171505984Y-63207466D02*
X171505984Y-64972350D01*
X189514500Y-67066200D02*
X173599834Y-67066200D01*
X173599834Y-67066200D02*
X171505984Y-64972350D01*
D25*
%TO.N,VOUT*%
X177626100Y-69816100D02*
X177626100Y-75566100D01*
X185788600Y-83728600D02*
X191938600Y-83728600D01*
X223938600Y-78903600D02*
X225376100Y-78903600D01*
X177626100Y-75566100D02*
X185788600Y-83728600D01*
X216063600Y-71028600D02*
X223938600Y-78903600D01*
D26*
%TO.N,VIN*%
X205001100Y-54253600D02*
X223876100Y-54253600D01*
X204001100Y-55253600D02*
X205001100Y-54253600D01*
X226563600Y-56941100D02*
X243813600Y-56941100D01*
X223876100Y-54253600D02*
X226563600Y-56941100D01*
X243813600Y-56941100D02*
X245688600Y-55066100D01*
D23*
%TO.N,Net-(J2-D--PadA7)*%
X238206802Y-53575000D02*
X239306802Y-52475000D01*
X253913601Y-58452473D02*
X254113600Y-58652472D01*
X237050001Y-53099999D02*
X237050001Y-53431803D01*
X248693198Y-52475000D02*
X253913601Y-57695403D01*
X237050001Y-53431803D02*
X237193198Y-53575000D01*
X237550000Y-52600000D02*
X237050001Y-53099999D01*
X237193198Y-53575000D02*
X238206802Y-53575000D01*
X239306802Y-52475000D02*
X248693198Y-52475000D01*
X253913601Y-57695403D02*
X253913601Y-58452473D01*
%TO.N,Net-(J2-D+-PadA6)*%
X239493198Y-52925000D02*
X248506802Y-52925000D01*
X237006802Y-54025000D02*
X238393198Y-54025000D01*
X236050000Y-52550000D02*
X236599999Y-53099999D01*
X253463599Y-58452473D02*
X253263600Y-58652472D01*
X248506802Y-52925000D02*
X253463599Y-57881797D01*
X238393198Y-54025000D02*
X239493198Y-52925000D01*
X236599999Y-53099999D02*
X236599999Y-53618197D01*
X236599999Y-53618197D02*
X237006802Y-54025000D01*
X253463599Y-57881797D02*
X253463599Y-58452473D01*
D22*
%TO.N,/Page2/U6.2{slash}RX(USB->SERIAL)*%
X250751100Y-65991100D02*
X251001100Y-66241100D01*
X251001100Y-66241100D02*
X251001100Y-84516434D01*
X238750000Y-96767534D02*
X238750000Y-97250000D01*
X251001100Y-84516434D02*
X238750000Y-96767534D01*
%TO.N,/Page2/U6.15{slash}TX(USB->SERIAL)*%
X238813155Y-99264569D02*
X238910431Y-99264569D01*
X238910431Y-99264569D02*
X239400000Y-98775000D01*
X251313600Y-84636400D02*
X251313600Y-63753600D01*
X239400000Y-98775000D02*
X239400000Y-96550000D01*
X251313600Y-63753600D02*
X251938600Y-63128600D01*
X239400000Y-96550000D02*
X251313600Y-84636400D01*
%TO.N,Net-(U6-USB.D-)*%
X253844850Y-62347350D02*
X253844850Y-64972350D01*
X252876100Y-65941100D02*
X252876100Y-66691100D01*
X254126100Y-71159850D02*
X253844850Y-70878600D01*
X254126100Y-62066100D02*
X253844850Y-62347350D01*
X252876100Y-66691100D02*
X253844850Y-67659850D01*
X253844850Y-64972350D02*
X252876100Y-65941100D01*
X253844850Y-70878600D02*
X253844850Y-67659850D01*
%TO.N,Net-(U6-USB.D+)*%
X253532350Y-70878600D02*
X253532350Y-67784850D01*
X252563600Y-66816100D02*
X252563600Y-65816100D01*
X253532350Y-62347350D02*
X253532350Y-64847350D01*
X253532350Y-67784850D02*
X252563600Y-66816100D01*
X253532350Y-70878600D02*
X253251100Y-71159850D01*
X252563600Y-65816100D02*
X253532350Y-64847350D01*
X253251100Y-62066100D02*
X253532350Y-62347350D01*
%TO.N,Net-(U6-CBUS2)*%
X252501100Y-62878600D02*
X252126100Y-62503600D01*
X251626100Y-67628600D02*
X251626100Y-64253600D01*
X252126100Y-62503600D02*
X251313600Y-62503600D01*
X252501100Y-63378600D02*
X252501100Y-62878600D01*
X251626100Y-64253600D02*
X252501100Y-63378600D01*
X252001100Y-68003600D02*
X251626100Y-67628600D01*
%TO.N,USB1.DRVVBUS*%
X188876100Y-70441100D02*
X185063600Y-74253600D01*
X196626100Y-61503600D02*
X196626100Y-67441100D01*
X196626100Y-67441100D02*
X193626100Y-70441100D01*
X190313600Y-58328600D02*
X193451100Y-58328600D01*
X193626100Y-70441100D02*
X188876100Y-70441100D01*
X193451100Y-58328600D02*
X196626100Y-61503600D01*
X185063600Y-74253600D02*
X182751100Y-74253600D01*
%TO.N,P2.1{slash}PWM1A(RGB.G{slash}EXP1.16)*%
X228126100Y-94691100D02*
X228126100Y-77003600D01*
X216701100Y-65578600D02*
X216701100Y-60878600D01*
X228126100Y-77003600D02*
X216701100Y-65578600D01*
%TO.N,P2.33{slash}GPIO45(L.BTN)*%
X204001100Y-91941100D02*
X165063600Y-91941100D01*
X165063600Y-91941100D02*
X163626100Y-90503600D01*
%TO.N,P2.30{slash}PRU0.3(BUZZER)*%
X231350000Y-100400000D02*
X229391100Y-98441100D01*
X240350000Y-100400000D02*
X231350000Y-100400000D01*
X229391100Y-98441100D02*
X216951100Y-98441100D01*
X242650000Y-94750000D02*
X242650000Y-98100000D01*
X242650000Y-98100000D02*
X240350000Y-100400000D01*
X216951100Y-98441100D02*
X216701100Y-98691100D01*
%TO.N,P1.33{slash}PRU0.1(RGB.R)*%
X223938600Y-97191100D02*
X205001100Y-97191100D01*
X190188600Y-98128600D02*
X190188600Y-96428600D01*
X200626100Y-99566100D02*
X191626100Y-99566100D01*
X204376100Y-96566100D02*
X203626100Y-96566100D01*
X191626100Y-99566100D02*
X190188600Y-98128600D01*
X205001100Y-97191100D02*
X204376100Y-96566100D01*
X203626100Y-96566100D02*
X200626100Y-99566100D01*
X224188600Y-96941100D02*
X223938600Y-97191100D01*
%TO.N,P1.29{slash}PRU0.7(R.BTN)*%
X190188600Y-91348600D02*
X189908600Y-91628600D01*
X189908600Y-91628600D02*
X173751100Y-91628600D01*
X173751100Y-91628600D02*
X172626100Y-90503600D01*
%TO.N,P1.36{slash}PWM0A(RGB.B)*%
X203501100Y-96253600D02*
X200501100Y-99253600D01*
X222688600Y-96878600D02*
X205126100Y-96878600D01*
X204501100Y-96253600D02*
X203501100Y-96253600D01*
X205126100Y-96878600D02*
X204501100Y-96253600D01*
X200501100Y-99253600D02*
X192723600Y-99253600D01*
X222938600Y-96628600D02*
X222688600Y-96878600D01*
X192723600Y-99253600D02*
X192438600Y-98968600D01*
%TO.N,P1.33{slash}PRU0.4(ACC.INT2)*%
X170001100Y-87941100D02*
X171438600Y-87941100D01*
X169501100Y-87441100D02*
X170001100Y-87941100D01*
X177876100Y-86628600D02*
X179688600Y-88441100D01*
X179688600Y-88441100D02*
X179688600Y-88878600D01*
X172751100Y-86628600D02*
X177876100Y-86628600D01*
X169063600Y-87441100D02*
X169501100Y-87441100D01*
X171438600Y-87941100D02*
X172751100Y-86628600D01*
%TO.N,P1.26(I2C2.SDA)*%
X152300000Y-83300000D02*
X170300000Y-83300000D01*
X157188600Y-68316100D02*
X162126100Y-68316100D01*
X173033900Y-80566100D02*
X174376100Y-80566100D01*
X156126100Y-67253600D02*
X157188600Y-68316100D01*
X151900000Y-82900000D02*
X152300000Y-83300000D01*
X170300000Y-83300000D02*
X173033900Y-80566100D01*
X155688600Y-67253600D02*
X156126100Y-67253600D01*
X174376100Y-80566100D02*
X162126100Y-68316100D01*
%TO.N,P1.34{slash}GPIO26(ACC.INT1)*%
X172626100Y-86316100D02*
X171313600Y-87628600D01*
X178001100Y-86316100D02*
X172626100Y-86316100D01*
X169688600Y-86816100D02*
X169688600Y-87191100D01*
X179938600Y-88253600D02*
X178001100Y-86316100D01*
X170126100Y-87628600D02*
X171313600Y-87628600D01*
X180313600Y-88253600D02*
X179938600Y-88253600D01*
X169688600Y-87191100D02*
X170126100Y-87628600D01*
%TO.N,P1.28(I2C2.SCL)*%
X156313600Y-66628600D02*
X156313600Y-67003600D01*
X170400000Y-84200000D02*
X172700000Y-81900000D01*
X174938600Y-80003600D02*
X174251100Y-80003600D01*
X172700000Y-81900000D02*
X174600000Y-81900000D01*
X151900000Y-84500000D02*
X152200000Y-84200000D01*
X176063600Y-81128600D02*
X174938600Y-80003600D01*
X174953600Y-82253600D02*
X176063600Y-82253600D01*
X174251100Y-80003600D02*
X162251100Y-68003600D01*
X176063600Y-82253600D02*
X176063600Y-81128600D01*
X174600000Y-81900000D02*
X174953600Y-82253600D01*
X157313600Y-68003600D02*
X162251100Y-68003600D01*
X152200000Y-84200000D02*
X170400000Y-84200000D01*
X156313600Y-67003600D02*
X157313600Y-68003600D01*
%TO.N,P1.35{slash}PRU1.10(RGB.G.ALT)*%
X191098600Y-99878600D02*
X200751100Y-99878600D01*
X225188600Y-97503600D02*
X204876100Y-97503600D01*
X203751100Y-96878600D02*
X200751100Y-99878600D01*
X204251100Y-96878600D02*
X203751100Y-96878600D01*
X191098600Y-99878600D02*
X190188600Y-98968600D01*
X225438600Y-97253600D02*
X225188600Y-97503600D01*
X204876100Y-97503600D02*
X204251100Y-96878600D01*
%TD*%
%TA.AperFunction,Conductor*%
%TO.N,CGND*%
G36*
X150628100Y-93450994D02*
G01*
X152553706Y-95376600D01*
X155027817Y-95376600D01*
X155072011Y-95394906D01*
X158109794Y-98432689D01*
X158128100Y-98476883D01*
X158128100Y-100950994D01*
X160053706Y-102876600D01*
X247948494Y-102876600D01*
X249874100Y-100950994D01*
X249874100Y-100882307D01*
X253650600Y-100882307D01*
X253650600Y-101124892D01*
X253682262Y-101365392D01*
X253682262Y-101365393D01*
X253745040Y-101599683D01*
X253745044Y-101599694D01*
X253745046Y-101599700D01*
X253772268Y-101665419D01*
X253837874Y-101823808D01*
X253837875Y-101823811D01*
X253956902Y-102029971D01*
X253959164Y-102033889D01*
X254106835Y-102226338D01*
X254278362Y-102397865D01*
X254470811Y-102545536D01*
X254680888Y-102666824D01*
X254905000Y-102759654D01*
X254905008Y-102759656D01*
X254905016Y-102759659D01*
X255139307Y-102822437D01*
X255139311Y-102822438D01*
X255379812Y-102854100D01*
X255379818Y-102854100D01*
X255622382Y-102854100D01*
X255622388Y-102854100D01*
X255862889Y-102822438D01*
X255862893Y-102822437D01*
X256097183Y-102759659D01*
X256097187Y-102759657D01*
X256097200Y-102759654D01*
X256321312Y-102666824D01*
X256531389Y-102545536D01*
X256723838Y-102397865D01*
X256895365Y-102226338D01*
X257043036Y-102033889D01*
X257164324Y-101823812D01*
X257257154Y-101599700D01*
X257258977Y-101592900D01*
X257319937Y-101365393D01*
X257319937Y-101365392D01*
X257319938Y-101365389D01*
X257351600Y-101124888D01*
X257351600Y-100882312D01*
X257319938Y-100641811D01*
X257312332Y-100613424D01*
X257257159Y-100407516D01*
X257257155Y-100407505D01*
X257257154Y-100407500D01*
X257164324Y-100183388D01*
X257043036Y-99973311D01*
X256895365Y-99780862D01*
X256723838Y-99609335D01*
X256723834Y-99609332D01*
X256723832Y-99609330D01*
X256531386Y-99461662D01*
X256321311Y-99340375D01*
X256321308Y-99340374D01*
X256139895Y-99265231D01*
X256097200Y-99247546D01*
X256097196Y-99247545D01*
X256097194Y-99247544D01*
X256097183Y-99247540D01*
X255862892Y-99184762D01*
X255622392Y-99153100D01*
X255622388Y-99153100D01*
X255379812Y-99153100D01*
X255379807Y-99153100D01*
X255139307Y-99184762D01*
X255139306Y-99184762D01*
X254905016Y-99247540D01*
X254905005Y-99247544D01*
X254680891Y-99340374D01*
X254680888Y-99340375D01*
X254470813Y-99461662D01*
X254278367Y-99609330D01*
X254278357Y-99609339D01*
X254106839Y-99780857D01*
X254106830Y-99780867D01*
X253959162Y-99973313D01*
X253837875Y-100183388D01*
X253837874Y-100183391D01*
X253745044Y-100407505D01*
X253745040Y-100407516D01*
X253682262Y-100641806D01*
X253682262Y-100641807D01*
X253650600Y-100882307D01*
X249874100Y-100882307D01*
X249874100Y-98476883D01*
X249892406Y-98432689D01*
X252930189Y-95394906D01*
X252974383Y-95376600D01*
X255448494Y-95376600D01*
X257374100Y-93450994D01*
X257374100Y-77251600D01*
X259749500Y-77251600D01*
X259749500Y-101248562D01*
X259749433Y-101251449D01*
X259734151Y-101581973D01*
X259733917Y-101585211D01*
X259733917Y-101585212D01*
X259726264Y-101662910D01*
X259725966Y-101665419D01*
X259685578Y-101954950D01*
X259684976Y-101958507D01*
X259670762Y-102029971D01*
X259670303Y-102032089D01*
X259601996Y-102322510D01*
X259600965Y-102326343D01*
X259582670Y-102386653D01*
X259582121Y-102388372D01*
X259483980Y-102681188D01*
X259482462Y-102685244D01*
X259464963Y-102727490D01*
X259464396Y-102728817D01*
X259332454Y-103027637D01*
X259330399Y-103031854D01*
X259323660Y-103044462D01*
X259323141Y-103045413D01*
X259151848Y-103352941D01*
X259148809Y-103357849D01*
X258943303Y-103657852D01*
X258939824Y-103662459D01*
X258707511Y-103942223D01*
X258703622Y-103946489D01*
X258446489Y-104203622D01*
X258442223Y-104207511D01*
X258162459Y-104439824D01*
X258157852Y-104443303D01*
X257857849Y-104648809D01*
X257852941Y-104651848D01*
X257545413Y-104823141D01*
X257544462Y-104823660D01*
X257531854Y-104830399D01*
X257527637Y-104832454D01*
X257228817Y-104964396D01*
X257227490Y-104964963D01*
X257185244Y-104982462D01*
X257181188Y-104983980D01*
X256888372Y-105082121D01*
X256886653Y-105082670D01*
X256826343Y-105100965D01*
X256822510Y-105101996D01*
X256532089Y-105170303D01*
X256529971Y-105170762D01*
X256458507Y-105184976D01*
X256454950Y-105185578D01*
X256165419Y-105225966D01*
X256162910Y-105226264D01*
X256085212Y-105233917D01*
X256081973Y-105234151D01*
X255751449Y-105249433D01*
X255748562Y-105249500D01*
X152251438Y-105249500D01*
X152248551Y-105249433D01*
X151918025Y-105234151D01*
X151914786Y-105233917D01*
X151837088Y-105226264D01*
X151834579Y-105225966D01*
X151545048Y-105185578D01*
X151541491Y-105184976D01*
X151470027Y-105170762D01*
X151467909Y-105170303D01*
X151177488Y-105101996D01*
X151173655Y-105100965D01*
X151113345Y-105082670D01*
X151111626Y-105082121D01*
X150818810Y-104983980D01*
X150814754Y-104982462D01*
X150772508Y-104964963D01*
X150771181Y-104964396D01*
X150472361Y-104832454D01*
X150468144Y-104830399D01*
X150455536Y-104823660D01*
X150454585Y-104823141D01*
X150147058Y-104651848D01*
X150142150Y-104648809D01*
X149842147Y-104443303D01*
X149837540Y-104439824D01*
X149557776Y-104207511D01*
X149553510Y-104203622D01*
X149296377Y-103946489D01*
X149292488Y-103942223D01*
X149060175Y-103662459D01*
X149056696Y-103657852D01*
X148851190Y-103357849D01*
X148848151Y-103352941D01*
X148762261Y-103198740D01*
X148676811Y-103045330D01*
X148676380Y-103044540D01*
X148669591Y-103031838D01*
X148667552Y-103027654D01*
X148535568Y-102728738D01*
X148535035Y-102727490D01*
X148517536Y-102685244D01*
X148516031Y-102681224D01*
X148417869Y-102388347D01*
X148417328Y-102386653D01*
X148399033Y-102326343D01*
X148398002Y-102322510D01*
X148329679Y-102032016D01*
X148329251Y-102030044D01*
X148315020Y-101958497D01*
X148314420Y-101954950D01*
X148313260Y-101946631D01*
X148274029Y-101665398D01*
X148273734Y-101662910D01*
X148267508Y-101599694D01*
X148266078Y-101585181D01*
X148265849Y-101582002D01*
X148250567Y-101251449D01*
X148250500Y-101248563D01*
X148250500Y-100882307D01*
X150650600Y-100882307D01*
X150650600Y-101124892D01*
X150682262Y-101365392D01*
X150682262Y-101365393D01*
X150745040Y-101599683D01*
X150745044Y-101599694D01*
X150745046Y-101599700D01*
X150772268Y-101665419D01*
X150837874Y-101823808D01*
X150837875Y-101823811D01*
X150956902Y-102029971D01*
X150959164Y-102033889D01*
X151106835Y-102226338D01*
X151278362Y-102397865D01*
X151470811Y-102545536D01*
X151680888Y-102666824D01*
X151905000Y-102759654D01*
X151905008Y-102759656D01*
X151905016Y-102759659D01*
X152139307Y-102822437D01*
X152139311Y-102822438D01*
X152379812Y-102854100D01*
X152379818Y-102854100D01*
X152622382Y-102854100D01*
X152622388Y-102854100D01*
X152862889Y-102822438D01*
X152862893Y-102822437D01*
X153097183Y-102759659D01*
X153097187Y-102759657D01*
X153097200Y-102759654D01*
X153321312Y-102666824D01*
X153531389Y-102545536D01*
X153723838Y-102397865D01*
X153895365Y-102226338D01*
X154043036Y-102033889D01*
X154164324Y-101823812D01*
X154257154Y-101599700D01*
X154258977Y-101592900D01*
X154319937Y-101365393D01*
X154319937Y-101365392D01*
X154319938Y-101365389D01*
X154351600Y-101124888D01*
X154351600Y-100882312D01*
X154319938Y-100641811D01*
X154312332Y-100613424D01*
X154257159Y-100407516D01*
X154257155Y-100407505D01*
X154257154Y-100407500D01*
X154164324Y-100183388D01*
X154043036Y-99973311D01*
X153895365Y-99780862D01*
X153723838Y-99609335D01*
X153723834Y-99609332D01*
X153723832Y-99609330D01*
X153531386Y-99461662D01*
X153321311Y-99340375D01*
X153321308Y-99340374D01*
X153139895Y-99265231D01*
X153097200Y-99247546D01*
X153097196Y-99247545D01*
X153097194Y-99247544D01*
X153097183Y-99247540D01*
X152862892Y-99184762D01*
X152622392Y-99153100D01*
X152622388Y-99153100D01*
X152379812Y-99153100D01*
X152379807Y-99153100D01*
X152139307Y-99184762D01*
X152139306Y-99184762D01*
X151905016Y-99247540D01*
X151905005Y-99247544D01*
X151680891Y-99340374D01*
X151680888Y-99340375D01*
X151470813Y-99461662D01*
X151278367Y-99609330D01*
X151278357Y-99609339D01*
X151106839Y-99780857D01*
X151106830Y-99780867D01*
X150959162Y-99973313D01*
X150837875Y-100183388D01*
X150837874Y-100183391D01*
X150745044Y-100407505D01*
X150745040Y-100407516D01*
X150682262Y-100641806D01*
X150682262Y-100641807D01*
X150650600Y-100882307D01*
X148250500Y-100882307D01*
X148250500Y-77251600D01*
X150628100Y-77251600D01*
X150628100Y-93450994D01*
G37*
%TD.AperFunction*%
%TD*%
%TA.AperFunction,Conductor*%
%TO.N,GND*%
G36*
X249295084Y-51649600D02*
G01*
X249338674Y-51667552D01*
X251345731Y-53642654D01*
X251449581Y-53744851D01*
X257222192Y-59425556D01*
X257240852Y-59469600D01*
X257240848Y-59470943D01*
X257216220Y-61301929D01*
X257216221Y-61301930D01*
X257216220Y-61302035D01*
X257216210Y-61303033D01*
X257216204Y-61303874D01*
X257216204Y-61303959D01*
X257216200Y-61305121D01*
X257216200Y-93359702D01*
X257197894Y-93403896D01*
X255401396Y-95200394D01*
X255357202Y-95218700D01*
X252974383Y-95218700D01*
X252964358Y-95220694D01*
X252913957Y-95230719D01*
X252869765Y-95249025D01*
X252869761Y-95249027D01*
X252818537Y-95283253D01*
X249780753Y-98321037D01*
X249746527Y-98372261D01*
X249746525Y-98372265D01*
X249728219Y-98416457D01*
X249716200Y-98476883D01*
X249716200Y-100859702D01*
X249697894Y-100903896D01*
X247901396Y-102700394D01*
X247857202Y-102718700D01*
X160144998Y-102718700D01*
X160100804Y-102700394D01*
X158304306Y-100903896D01*
X158286000Y-100859702D01*
X158286000Y-98476883D01*
X158273980Y-98416457D01*
X158257843Y-98377500D01*
X158255674Y-98372263D01*
X158221446Y-98321037D01*
X156265409Y-96365000D01*
X189705500Y-96365000D01*
X189705500Y-96492199D01*
X189705501Y-96492207D01*
X189738420Y-96615066D01*
X189738424Y-96615075D01*
X189802021Y-96725227D01*
X189802028Y-96725236D01*
X189891966Y-96815174D01*
X189891968Y-96815175D01*
X189891969Y-96815176D01*
X189928251Y-96836123D01*
X189957370Y-96874072D01*
X189959500Y-96890249D01*
X189959500Y-98083029D01*
X189959500Y-98083030D01*
X189959500Y-98174170D01*
X189982377Y-98229401D01*
X189994378Y-98258375D01*
X190124562Y-98388559D01*
X190142868Y-98432753D01*
X190124562Y-98476947D01*
X190096545Y-98493123D01*
X190002132Y-98518421D01*
X190002124Y-98518424D01*
X189891972Y-98582021D01*
X189891963Y-98582028D01*
X189802028Y-98671963D01*
X189802021Y-98671972D01*
X189738424Y-98782124D01*
X189738420Y-98782133D01*
X189705501Y-98904992D01*
X189705500Y-98905000D01*
X189705500Y-99032199D01*
X189705501Y-99032207D01*
X189738420Y-99155066D01*
X189738424Y-99155075D01*
X189802021Y-99265227D01*
X189802028Y-99265236D01*
X189891963Y-99355171D01*
X189891972Y-99355178D01*
X190002124Y-99418775D01*
X190002127Y-99418776D01*
X190002130Y-99418778D01*
X190002131Y-99418778D01*
X190002133Y-99418779D01*
X190049677Y-99431518D01*
X190124999Y-99451700D01*
X190125000Y-99451700D01*
X190252200Y-99451700D01*
X190252201Y-99451700D01*
X190292666Y-99440857D01*
X190340091Y-99447100D01*
X190353036Y-99457033D01*
X190904379Y-100008375D01*
X190968825Y-100072821D01*
X190968826Y-100072821D01*
X190968828Y-100072823D01*
X191053026Y-100107699D01*
X191053029Y-100107700D01*
X200796671Y-100107700D01*
X200821331Y-100097485D01*
X200821333Y-100097484D01*
X200880875Y-100072822D01*
X203413663Y-97540031D01*
X203457856Y-97521726D01*
X203502050Y-97540032D01*
X203518226Y-97568050D01*
X203550920Y-97690065D01*
X203550924Y-97690075D01*
X203614521Y-97800227D01*
X203614528Y-97800236D01*
X203704463Y-97890171D01*
X203704472Y-97890178D01*
X203753048Y-97918224D01*
X203782168Y-97956174D01*
X203775924Y-98003600D01*
X203753048Y-98026476D01*
X203704472Y-98054521D01*
X203704463Y-98054528D01*
X203614528Y-98144463D01*
X203614521Y-98144472D01*
X203550924Y-98254624D01*
X203550920Y-98254633D01*
X203518001Y-98377492D01*
X203518000Y-98377500D01*
X203518000Y-98504699D01*
X203518001Y-98504707D01*
X203550920Y-98627566D01*
X203550924Y-98627575D01*
X203614521Y-98737727D01*
X203614528Y-98737736D01*
X203704463Y-98827671D01*
X203704472Y-98827678D01*
X203814624Y-98891275D01*
X203814627Y-98891276D01*
X203814630Y-98891278D01*
X203814631Y-98891278D01*
X203814633Y-98891279D01*
X203843356Y-98898975D01*
X203937499Y-98924200D01*
X203937500Y-98924200D01*
X204064700Y-98924200D01*
X204064701Y-98924200D01*
X204187570Y-98891278D01*
X204297731Y-98827676D01*
X204387676Y-98737731D01*
X204451278Y-98627570D01*
X204484200Y-98504701D01*
X204484200Y-98420200D01*
X204502506Y-98376006D01*
X204546700Y-98357700D01*
X216227499Y-98357700D01*
X216271693Y-98376006D01*
X216289999Y-98420200D01*
X216281626Y-98451450D01*
X216250921Y-98504630D01*
X216250920Y-98504633D01*
X216218001Y-98627492D01*
X216218000Y-98627500D01*
X216218000Y-98754699D01*
X216218001Y-98754707D01*
X216250920Y-98877566D01*
X216250924Y-98877575D01*
X216314521Y-98987727D01*
X216314528Y-98987736D01*
X216404463Y-99077671D01*
X216404472Y-99077678D01*
X216514624Y-99141275D01*
X216514627Y-99141276D01*
X216514630Y-99141278D01*
X216514631Y-99141278D01*
X216514633Y-99141279D01*
X216566103Y-99155070D01*
X216637499Y-99174200D01*
X216637500Y-99174200D01*
X216764700Y-99174200D01*
X216764701Y-99174200D01*
X216887570Y-99141278D01*
X216997731Y-99077676D01*
X217087676Y-98987731D01*
X217151278Y-98877570D01*
X217184200Y-98754701D01*
X217184200Y-98732700D01*
X217202506Y-98688506D01*
X217246700Y-98670200D01*
X229270315Y-98670200D01*
X229314509Y-98688506D01*
X231220225Y-100594222D01*
X231279766Y-100618884D01*
X231304429Y-100629100D01*
X231304430Y-100629100D01*
X240395571Y-100629100D01*
X240420231Y-100618885D01*
X240420233Y-100618884D01*
X240420235Y-100618883D01*
X240479775Y-100594222D01*
X242844222Y-98229775D01*
X242879100Y-98145570D01*
X242879100Y-98054430D01*
X242879100Y-95211649D01*
X242897406Y-95167455D01*
X242910345Y-95157525D01*
X242946631Y-95136576D01*
X243036576Y-95046631D01*
X243100178Y-94936470D01*
X243133100Y-94813601D01*
X243133100Y-94686399D01*
X243100178Y-94563530D01*
X243066168Y-94504624D01*
X243036578Y-94453372D01*
X243036571Y-94453363D01*
X242946636Y-94363428D01*
X242946627Y-94363421D01*
X242836475Y-94299824D01*
X242836466Y-94299820D01*
X242713607Y-94266901D01*
X242713602Y-94266900D01*
X242713601Y-94266900D01*
X242586399Y-94266900D01*
X242586398Y-94266900D01*
X242586392Y-94266901D01*
X242463533Y-94299820D01*
X242463524Y-94299824D01*
X242353372Y-94363421D01*
X242353363Y-94363428D01*
X242263428Y-94453363D01*
X242263421Y-94453372D01*
X242199824Y-94563524D01*
X242199820Y-94563533D01*
X242166901Y-94686392D01*
X242166900Y-94686400D01*
X242166900Y-94813599D01*
X242166901Y-94813607D01*
X242199820Y-94936466D01*
X242199824Y-94936475D01*
X242263421Y-95046627D01*
X242263428Y-95046636D01*
X242353366Y-95136574D01*
X242353368Y-95136575D01*
X242353369Y-95136576D01*
X242389651Y-95157523D01*
X242418770Y-95195472D01*
X242420900Y-95211649D01*
X242420900Y-97979215D01*
X242402594Y-98023409D01*
X240273409Y-100152594D01*
X240229215Y-100170900D01*
X231470785Y-100170900D01*
X231426591Y-100152594D01*
X229738391Y-98464394D01*
X229720085Y-98420200D01*
X229738391Y-98376006D01*
X229782585Y-98357700D01*
X234537815Y-98357700D01*
X234582009Y-98376006D01*
X235112725Y-98906722D01*
X235154922Y-98924200D01*
X235196929Y-98941600D01*
X235196930Y-98941600D01*
X235288070Y-98941600D01*
X235550850Y-98941600D01*
X235595044Y-98959906D01*
X235604976Y-98972849D01*
X235625923Y-99009130D01*
X235625928Y-99009136D01*
X235715863Y-99099071D01*
X235715872Y-99099078D01*
X235826024Y-99162675D01*
X235826027Y-99162676D01*
X235826030Y-99162678D01*
X235826031Y-99162678D01*
X235826033Y-99162679D01*
X235901216Y-99182823D01*
X235948899Y-99195600D01*
X235948900Y-99195600D01*
X236076100Y-99195600D01*
X236076101Y-99195600D01*
X236198970Y-99162678D01*
X236309131Y-99099076D01*
X236399076Y-99009131D01*
X236462678Y-98898970D01*
X236495600Y-98776101D01*
X236495600Y-98648899D01*
X236462678Y-98526030D01*
X236458285Y-98518422D01*
X236399078Y-98415872D01*
X236399071Y-98415863D01*
X236309136Y-98325928D01*
X236309127Y-98325921D01*
X236198975Y-98262324D01*
X236198966Y-98262320D01*
X236076107Y-98229401D01*
X236076102Y-98229400D01*
X236076101Y-98229400D01*
X235948899Y-98229400D01*
X235948898Y-98229400D01*
X235948892Y-98229401D01*
X235826033Y-98262320D01*
X235826024Y-98262324D01*
X235715872Y-98325921D01*
X235715863Y-98325928D01*
X235625928Y-98415863D01*
X235625923Y-98415869D01*
X235604976Y-98452151D01*
X235567025Y-98481271D01*
X235550850Y-98483400D01*
X235363285Y-98483400D01*
X235319091Y-98465094D01*
X234908191Y-98054194D01*
X234889885Y-98010000D01*
X234908191Y-97965806D01*
X235351591Y-97522406D01*
X235395785Y-97504100D01*
X235688350Y-97504100D01*
X235732544Y-97522406D01*
X235742476Y-97535349D01*
X235763423Y-97571630D01*
X235763428Y-97571636D01*
X235853363Y-97661571D01*
X235853372Y-97661578D01*
X235963524Y-97725175D01*
X235963527Y-97725176D01*
X235963530Y-97725178D01*
X235963531Y-97725178D01*
X235963533Y-97725179D01*
X236038716Y-97745323D01*
X236086399Y-97758100D01*
X236086400Y-97758100D01*
X236213600Y-97758100D01*
X236213601Y-97758100D01*
X236336470Y-97725178D01*
X236446631Y-97661576D01*
X236536576Y-97571631D01*
X236600178Y-97461470D01*
X236633100Y-97338601D01*
X236633100Y-97211399D01*
X236629638Y-97198478D01*
X236629638Y-97198476D01*
X236626402Y-97186400D01*
X238266900Y-97186400D01*
X238266900Y-97313599D01*
X238266901Y-97313607D01*
X238299820Y-97436466D01*
X238299824Y-97436475D01*
X238363421Y-97546627D01*
X238363428Y-97546636D01*
X238453363Y-97636571D01*
X238453372Y-97636578D01*
X238563524Y-97700175D01*
X238563527Y-97700176D01*
X238563530Y-97700178D01*
X238563531Y-97700178D01*
X238563533Y-97700179D01*
X238638716Y-97720323D01*
X238686399Y-97733100D01*
X238686400Y-97733100D01*
X238813600Y-97733100D01*
X238813601Y-97733100D01*
X238936470Y-97700178D01*
X239046631Y-97636576D01*
X239046636Y-97636571D01*
X239064206Y-97619002D01*
X239108400Y-97600696D01*
X239152594Y-97619002D01*
X239170900Y-97663196D01*
X239170900Y-98654214D01*
X239152594Y-98698408D01*
X239054310Y-98796691D01*
X239010116Y-98814997D01*
X238993940Y-98812867D01*
X238876762Y-98781470D01*
X238876757Y-98781469D01*
X238876756Y-98781469D01*
X238749554Y-98781469D01*
X238749553Y-98781469D01*
X238749547Y-98781470D01*
X238626688Y-98814389D01*
X238626679Y-98814393D01*
X238516527Y-98877990D01*
X238516518Y-98877997D01*
X238426583Y-98967932D01*
X238426576Y-98967941D01*
X238362979Y-99078093D01*
X238362975Y-99078102D01*
X238330056Y-99200961D01*
X238330055Y-99200969D01*
X238330055Y-99328168D01*
X238330056Y-99328176D01*
X238362975Y-99451035D01*
X238362979Y-99451044D01*
X238426576Y-99561196D01*
X238426583Y-99561205D01*
X238516518Y-99651140D01*
X238516527Y-99651147D01*
X238626679Y-99714744D01*
X238626682Y-99714745D01*
X238626685Y-99714747D01*
X238626686Y-99714747D01*
X238626688Y-99714748D01*
X238701871Y-99734892D01*
X238749554Y-99747669D01*
X238749555Y-99747669D01*
X238876755Y-99747669D01*
X238876756Y-99747669D01*
X238999625Y-99714747D01*
X239109786Y-99651145D01*
X239199731Y-99561200D01*
X239263333Y-99451039D01*
X239296255Y-99328170D01*
X239296255Y-99228630D01*
X239314561Y-99184436D01*
X239438345Y-99060652D01*
X239594222Y-98904775D01*
X239629100Y-98820570D01*
X239629100Y-98729430D01*
X239629100Y-96670784D01*
X239647406Y-96626590D01*
X245520896Y-90753100D01*
X251507822Y-84766174D01*
X251528252Y-84716849D01*
X251542700Y-84681971D01*
X251542700Y-68379296D01*
X251561006Y-68335102D01*
X251605200Y-68316796D01*
X251649394Y-68335102D01*
X251704463Y-68390171D01*
X251704472Y-68390178D01*
X251814624Y-68453775D01*
X251814627Y-68453776D01*
X251814630Y-68453778D01*
X251814631Y-68453778D01*
X251814633Y-68453779D01*
X251847051Y-68462465D01*
X251937499Y-68486700D01*
X251937500Y-68486700D01*
X252064700Y-68486700D01*
X252064701Y-68486700D01*
X252187570Y-68453778D01*
X252297731Y-68390176D01*
X252387676Y-68300231D01*
X252451278Y-68190070D01*
X252484200Y-68067201D01*
X252484200Y-67939999D01*
X252457549Y-67840534D01*
X252451279Y-67817133D01*
X252451275Y-67817124D01*
X252387678Y-67706972D01*
X252387671Y-67706963D01*
X252297736Y-67617028D01*
X252297727Y-67617021D01*
X252187575Y-67553424D01*
X252187566Y-67553420D01*
X252064707Y-67520501D01*
X252064702Y-67520500D01*
X252064701Y-67520500D01*
X251937499Y-67520500D01*
X251937498Y-67520500D01*
X251937487Y-67520501D01*
X251933868Y-67521471D01*
X251886443Y-67515222D01*
X251857328Y-67477267D01*
X251855200Y-67461099D01*
X251855200Y-65770529D01*
X252334500Y-65770529D01*
X252334500Y-66861671D01*
X252336719Y-66867028D01*
X252340476Y-66876097D01*
X252340477Y-66876100D01*
X252369378Y-66945875D01*
X253284944Y-67861440D01*
X253303250Y-67905634D01*
X253303250Y-70614250D01*
X253284944Y-70658444D01*
X253240750Y-70676750D01*
X253187499Y-70676750D01*
X253187498Y-70676750D01*
X253187492Y-70676751D01*
X253064633Y-70709670D01*
X253064624Y-70709674D01*
X252954472Y-70773271D01*
X252954463Y-70773278D01*
X252864528Y-70863213D01*
X252864521Y-70863222D01*
X252800924Y-70973374D01*
X252800920Y-70973383D01*
X252768001Y-71096242D01*
X252768000Y-71096250D01*
X252768000Y-71223449D01*
X252768001Y-71223457D01*
X252800920Y-71346316D01*
X252800924Y-71346325D01*
X252864521Y-71456477D01*
X252864528Y-71456486D01*
X252954463Y-71546421D01*
X252954472Y-71546428D01*
X253064624Y-71610025D01*
X253064627Y-71610026D01*
X253064630Y-71610028D01*
X253064631Y-71610028D01*
X253064633Y-71610029D01*
X253139816Y-71630173D01*
X253187499Y-71642950D01*
X253187500Y-71642950D01*
X253314700Y-71642950D01*
X253314701Y-71642950D01*
X253437570Y-71610028D01*
X253547731Y-71546426D01*
X253637676Y-71456481D01*
X253637677Y-71456478D01*
X253639013Y-71454739D01*
X253639973Y-71454184D01*
X253640573Y-71453585D01*
X253640733Y-71453745D01*
X253680438Y-71430818D01*
X253726644Y-71443196D01*
X253738187Y-71454739D01*
X253739525Y-71456483D01*
X253829463Y-71546421D01*
X253829472Y-71546428D01*
X253939624Y-71610025D01*
X253939627Y-71610026D01*
X253939630Y-71610028D01*
X253939631Y-71610028D01*
X253939633Y-71610029D01*
X254014816Y-71630173D01*
X254062499Y-71642950D01*
X254062500Y-71642950D01*
X254189700Y-71642950D01*
X254189701Y-71642950D01*
X254312570Y-71610028D01*
X254422731Y-71546426D01*
X254512676Y-71456481D01*
X254576278Y-71346320D01*
X254609200Y-71223451D01*
X254609200Y-71096249D01*
X254576278Y-70973380D01*
X254542567Y-70914992D01*
X254512678Y-70863222D01*
X254512671Y-70863213D01*
X254422736Y-70773278D01*
X254422727Y-70773271D01*
X254312575Y-70709674D01*
X254312566Y-70709670D01*
X254189707Y-70676751D01*
X254189702Y-70676750D01*
X254189701Y-70676750D01*
X254189700Y-70676750D01*
X254136450Y-70676750D01*
X254092256Y-70658444D01*
X254073950Y-70614250D01*
X254073950Y-67614279D01*
X254073949Y-67614276D01*
X254039073Y-67530078D01*
X254039069Y-67530073D01*
X253974625Y-67465629D01*
X253123506Y-66614509D01*
X253105200Y-66570315D01*
X253105200Y-66061884D01*
X253123506Y-66017690D01*
X253579503Y-65561693D01*
X254039071Y-65102125D01*
X254073950Y-65017921D01*
X254073950Y-62611700D01*
X254092256Y-62567506D01*
X254136450Y-62549200D01*
X254189700Y-62549200D01*
X254189701Y-62549200D01*
X254312570Y-62516278D01*
X254422731Y-62452676D01*
X254512676Y-62362731D01*
X254576278Y-62252570D01*
X254609200Y-62129701D01*
X254609200Y-62002499D01*
X254596423Y-61954816D01*
X254576279Y-61879633D01*
X254576275Y-61879624D01*
X254512678Y-61769472D01*
X254512671Y-61769463D01*
X254422736Y-61679528D01*
X254422727Y-61679521D01*
X254312575Y-61615924D01*
X254312566Y-61615920D01*
X254189707Y-61583001D01*
X254189702Y-61583000D01*
X254189701Y-61583000D01*
X254062499Y-61583000D01*
X254062498Y-61583000D01*
X254062492Y-61583001D01*
X253939633Y-61615920D01*
X253939624Y-61615924D01*
X253829472Y-61679521D01*
X253829463Y-61679528D01*
X253739526Y-61769465D01*
X253738184Y-61771215D01*
X253737221Y-61771770D01*
X253736627Y-61772365D01*
X253736467Y-61772205D01*
X253696756Y-61795132D01*
X253650551Y-61782750D01*
X253639016Y-61771215D01*
X253637673Y-61769465D01*
X253547736Y-61679528D01*
X253547727Y-61679521D01*
X253437575Y-61615924D01*
X253437566Y-61615920D01*
X253314707Y-61583001D01*
X253314702Y-61583000D01*
X253314701Y-61583000D01*
X253187499Y-61583000D01*
X253187498Y-61583000D01*
X253187492Y-61583001D01*
X253064633Y-61615920D01*
X253064624Y-61615924D01*
X252954472Y-61679521D01*
X252954463Y-61679528D01*
X252864528Y-61769463D01*
X252864521Y-61769472D01*
X252800924Y-61879624D01*
X252800920Y-61879633D01*
X252768001Y-62002492D01*
X252768000Y-62002500D01*
X252768000Y-62129699D01*
X252768001Y-62129707D01*
X252800920Y-62252566D01*
X252800924Y-62252575D01*
X252864521Y-62362727D01*
X252864528Y-62362736D01*
X252954463Y-62452671D01*
X252954472Y-62452678D01*
X253064624Y-62516275D01*
X253064627Y-62516276D01*
X253064630Y-62516278D01*
X253064631Y-62516278D01*
X253064633Y-62516279D01*
X253080760Y-62520600D01*
X253187499Y-62549200D01*
X253240750Y-62549200D01*
X253284944Y-62567506D01*
X253303250Y-62611700D01*
X253303250Y-64726565D01*
X253284944Y-64770759D01*
X252369379Y-65686323D01*
X252369378Y-65686324D01*
X252360245Y-65708375D01*
X252354233Y-65722890D01*
X252334500Y-65770529D01*
X251855200Y-65770529D01*
X251855200Y-64374385D01*
X251873506Y-64330191D01*
X252264003Y-63939694D01*
X252695322Y-63508375D01*
X252730200Y-63424170D01*
X252730200Y-63333030D01*
X252730200Y-62833029D01*
X252718869Y-62805675D01*
X252695322Y-62748825D01*
X252255875Y-62309378D01*
X252196333Y-62284715D01*
X252196332Y-62284714D01*
X252171672Y-62274500D01*
X252171671Y-62274500D01*
X251775250Y-62274500D01*
X251731056Y-62256194D01*
X251721124Y-62243251D01*
X251700176Y-62206969D01*
X251700171Y-62206963D01*
X251610236Y-62117028D01*
X251610227Y-62117021D01*
X251500075Y-62053424D01*
X251500066Y-62053420D01*
X251377207Y-62020501D01*
X251377202Y-62020500D01*
X251377201Y-62020500D01*
X251249999Y-62020500D01*
X251249998Y-62020500D01*
X251249992Y-62020501D01*
X251127133Y-62053420D01*
X251127124Y-62053424D01*
X251016972Y-62117021D01*
X251016963Y-62117028D01*
X250927028Y-62206963D01*
X250927021Y-62206972D01*
X250863424Y-62317124D01*
X250863420Y-62317133D01*
X250830501Y-62439992D01*
X250830500Y-62440000D01*
X250830500Y-62567199D01*
X250830501Y-62567207D01*
X250863420Y-62690066D01*
X250863424Y-62690075D01*
X250927021Y-62800227D01*
X250927028Y-62800236D01*
X251016963Y-62890171D01*
X251016972Y-62890178D01*
X251127124Y-62953775D01*
X251127127Y-62953776D01*
X251127130Y-62953778D01*
X251127131Y-62953778D01*
X251127133Y-62953779D01*
X251202316Y-62973923D01*
X251249999Y-62986700D01*
X251250000Y-62986700D01*
X251377200Y-62986700D01*
X251377201Y-62986700D01*
X251379589Y-62986060D01*
X251380826Y-62986222D01*
X251381265Y-62986165D01*
X251381280Y-62986282D01*
X251427016Y-62992300D01*
X251456139Y-63030248D01*
X251456142Y-63062599D01*
X251455501Y-63064991D01*
X251455500Y-63065000D01*
X251455500Y-63192202D01*
X251466342Y-63232667D01*
X251460097Y-63280093D01*
X251450165Y-63293036D01*
X251119379Y-63623823D01*
X251119375Y-63623828D01*
X251094715Y-63683363D01*
X251094715Y-63683366D01*
X251093490Y-63686325D01*
X251084500Y-63708030D01*
X251084500Y-65517499D01*
X251066194Y-65561693D01*
X251022000Y-65579999D01*
X250990750Y-65571626D01*
X250937569Y-65540921D01*
X250937566Y-65540920D01*
X250814707Y-65508001D01*
X250814702Y-65508000D01*
X250814701Y-65508000D01*
X250687499Y-65508000D01*
X250687498Y-65508000D01*
X250687492Y-65508001D01*
X250564633Y-65540920D01*
X250564624Y-65540924D01*
X250454472Y-65604521D01*
X250454463Y-65604528D01*
X250364528Y-65694463D01*
X250364521Y-65694472D01*
X250300924Y-65804624D01*
X250300920Y-65804633D01*
X250268001Y-65927492D01*
X250268000Y-65927500D01*
X250268000Y-66054699D01*
X250268001Y-66054707D01*
X250300920Y-66177566D01*
X250300924Y-66177575D01*
X250364521Y-66287727D01*
X250364528Y-66287736D01*
X250454463Y-66377671D01*
X250454472Y-66377678D01*
X250564624Y-66441275D01*
X250564627Y-66441276D01*
X250564630Y-66441278D01*
X250564631Y-66441278D01*
X250564633Y-66441279D01*
X250639816Y-66461423D01*
X250687499Y-66474200D01*
X250709500Y-66474200D01*
X250753694Y-66492506D01*
X250772000Y-66536700D01*
X250772000Y-84395649D01*
X250753694Y-84439843D01*
X238555779Y-96637757D01*
X238555778Y-96637758D01*
X238538375Y-96679775D01*
X238538374Y-96679776D01*
X238520900Y-96721960D01*
X238520900Y-96788350D01*
X238502594Y-96832544D01*
X238489651Y-96842476D01*
X238453369Y-96863423D01*
X238453363Y-96863428D01*
X238363428Y-96953363D01*
X238363421Y-96953372D01*
X238299824Y-97063524D01*
X238299820Y-97063533D01*
X238266901Y-97186392D01*
X238266900Y-97186400D01*
X236626402Y-97186400D01*
X236600179Y-97088533D01*
X236600175Y-97088524D01*
X236536578Y-96978372D01*
X236536571Y-96978363D01*
X236446636Y-96888428D01*
X236446627Y-96888421D01*
X236336475Y-96824824D01*
X236336466Y-96824820D01*
X236213607Y-96791901D01*
X236213602Y-96791900D01*
X236213601Y-96791900D01*
X236086399Y-96791900D01*
X236086398Y-96791900D01*
X236086392Y-96791901D01*
X235963533Y-96824820D01*
X235963524Y-96824824D01*
X235853372Y-96888421D01*
X235853363Y-96888428D01*
X235763428Y-96978363D01*
X235763423Y-96978369D01*
X235742476Y-97014651D01*
X235704525Y-97043771D01*
X235688350Y-97045900D01*
X235229426Y-97045900D01*
X235211271Y-97053421D01*
X235211270Y-97053422D01*
X235145224Y-97080778D01*
X235145223Y-97080779D01*
X234657309Y-97568694D01*
X234613115Y-97587000D01*
X225912201Y-97587000D01*
X225868007Y-97568694D01*
X225849701Y-97524500D01*
X225858074Y-97493250D01*
X225861579Y-97487180D01*
X225888778Y-97440070D01*
X225921700Y-97317201D01*
X225921700Y-97189999D01*
X225894512Y-97088530D01*
X225888779Y-97067133D01*
X225888775Y-97067124D01*
X225825178Y-96956972D01*
X225825171Y-96956963D01*
X225735236Y-96867028D01*
X225735227Y-96867021D01*
X225625075Y-96803424D01*
X225625066Y-96803420D01*
X225502207Y-96770501D01*
X225502202Y-96770500D01*
X225502201Y-96770500D01*
X225374999Y-96770500D01*
X225374998Y-96770500D01*
X225374992Y-96770501D01*
X225252133Y-96803420D01*
X225252124Y-96803424D01*
X225141972Y-96867021D01*
X225141963Y-96867028D01*
X225052028Y-96956963D01*
X225052021Y-96956972D01*
X224988424Y-97067124D01*
X224988420Y-97067133D01*
X224955501Y-97189992D01*
X224955500Y-97190000D01*
X224955500Y-97212000D01*
X224937194Y-97256194D01*
X224893000Y-97274500D01*
X224662201Y-97274500D01*
X224618007Y-97256194D01*
X224599701Y-97212000D01*
X224608074Y-97180750D01*
X224638778Y-97127570D01*
X224671700Y-97004701D01*
X224671700Y-96877499D01*
X224638778Y-96754630D01*
X224621807Y-96725236D01*
X224575178Y-96644472D01*
X224575171Y-96644463D01*
X224485236Y-96554528D01*
X224485227Y-96554521D01*
X224375075Y-96490924D01*
X224375066Y-96490920D01*
X224252207Y-96458001D01*
X224252202Y-96458000D01*
X224252201Y-96458000D01*
X224124999Y-96458000D01*
X224124998Y-96458000D01*
X224124992Y-96458001D01*
X224002133Y-96490920D01*
X224002124Y-96490924D01*
X223891972Y-96554521D01*
X223891963Y-96554528D01*
X223802028Y-96644463D01*
X223802021Y-96644472D01*
X223738424Y-96754624D01*
X223738420Y-96754633D01*
X223705501Y-96877492D01*
X223705500Y-96877500D01*
X223705500Y-96899500D01*
X223687194Y-96943694D01*
X223643000Y-96962000D01*
X223412201Y-96962000D01*
X223368007Y-96943694D01*
X223349701Y-96899500D01*
X223358074Y-96868250D01*
X223360858Y-96863428D01*
X223388778Y-96815070D01*
X223421700Y-96692201D01*
X223421700Y-96564999D01*
X223388778Y-96442130D01*
X223325176Y-96331969D01*
X223325174Y-96331967D01*
X223325171Y-96331963D01*
X223235236Y-96242028D01*
X223235227Y-96242021D01*
X223125075Y-96178424D01*
X223125066Y-96178420D01*
X223002207Y-96145501D01*
X223002202Y-96145500D01*
X223002201Y-96145500D01*
X222874999Y-96145500D01*
X222874998Y-96145500D01*
X222874992Y-96145501D01*
X222752133Y-96178420D01*
X222752124Y-96178424D01*
X222641972Y-96242021D01*
X222641963Y-96242028D01*
X222552028Y-96331963D01*
X222552021Y-96331972D01*
X222488424Y-96442124D01*
X222488420Y-96442133D01*
X222455501Y-96564992D01*
X222455500Y-96565000D01*
X222455500Y-96587000D01*
X222437194Y-96631194D01*
X222393000Y-96649500D01*
X205246884Y-96649500D01*
X205202690Y-96631194D01*
X204630875Y-96059378D01*
X204588988Y-96042028D01*
X204571333Y-96034715D01*
X204571332Y-96034714D01*
X204546672Y-96024500D01*
X204546671Y-96024500D01*
X203455529Y-96024500D01*
X203420650Y-96038947D01*
X203420649Y-96038946D01*
X203371329Y-96059375D01*
X203371324Y-96059379D01*
X200424509Y-99006194D01*
X200380315Y-99024500D01*
X192984200Y-99024500D01*
X192940006Y-99006194D01*
X192921700Y-98962000D01*
X192921700Y-98905000D01*
X192921698Y-98904992D01*
X192920084Y-98898970D01*
X192900982Y-98827676D01*
X192888779Y-98782133D01*
X192888775Y-98782124D01*
X192825178Y-98671972D01*
X192825171Y-98671963D01*
X192735236Y-98582028D01*
X192735227Y-98582021D01*
X192625075Y-98518424D01*
X192625066Y-98518420D01*
X192502207Y-98485501D01*
X192502202Y-98485500D01*
X192502201Y-98485500D01*
X192374999Y-98485500D01*
X192374998Y-98485500D01*
X192374992Y-98485501D01*
X192252133Y-98518420D01*
X192252124Y-98518424D01*
X192141972Y-98582021D01*
X192141963Y-98582028D01*
X192052028Y-98671963D01*
X192052021Y-98671972D01*
X191988424Y-98782124D01*
X191988420Y-98782133D01*
X191955501Y-98904992D01*
X191955500Y-98905000D01*
X191955500Y-99032199D01*
X191955501Y-99032207D01*
X191988420Y-99155066D01*
X191988424Y-99155075D01*
X192039333Y-99243250D01*
X192045577Y-99290676D01*
X192016457Y-99328626D01*
X191985207Y-99337000D01*
X191746885Y-99337000D01*
X191702691Y-99318694D01*
X190436006Y-98052009D01*
X190417700Y-98007815D01*
X190417700Y-96890249D01*
X190436006Y-96846055D01*
X190448945Y-96836125D01*
X190485231Y-96815176D01*
X190575176Y-96725231D01*
X190638778Y-96615070D01*
X190671700Y-96492201D01*
X190671700Y-96364999D01*
X190638778Y-96242130D01*
X190638719Y-96242028D01*
X190575178Y-96131972D01*
X190575171Y-96131963D01*
X190485236Y-96042028D01*
X190485227Y-96042021D01*
X190375075Y-95978424D01*
X190375066Y-95978420D01*
X190252207Y-95945501D01*
X190252202Y-95945500D01*
X190252201Y-95945500D01*
X190124999Y-95945500D01*
X190124998Y-95945500D01*
X190124992Y-95945501D01*
X190002133Y-95978420D01*
X190002124Y-95978424D01*
X189891972Y-96042021D01*
X189891963Y-96042028D01*
X189802028Y-96131963D01*
X189802021Y-96131972D01*
X189738424Y-96242124D01*
X189738420Y-96242133D01*
X189705501Y-96364992D01*
X189705500Y-96365000D01*
X156265409Y-96365000D01*
X155183663Y-95283254D01*
X155132437Y-95249026D01*
X155119489Y-95243663D01*
X155088242Y-95230719D01*
X155039836Y-95221090D01*
X155027817Y-95218700D01*
X155027816Y-95218700D01*
X152644998Y-95218700D01*
X152600804Y-95200394D01*
X150804306Y-93403896D01*
X150786000Y-93359702D01*
X150786000Y-90440000D01*
X163143000Y-90440000D01*
X163143000Y-90567199D01*
X163143001Y-90567207D01*
X163175920Y-90690066D01*
X163175924Y-90690075D01*
X163239521Y-90800227D01*
X163239528Y-90800236D01*
X163329463Y-90890171D01*
X163329472Y-90890178D01*
X163439624Y-90953775D01*
X163439627Y-90953776D01*
X163439630Y-90953778D01*
X163439631Y-90953778D01*
X163439633Y-90953779D01*
X163470405Y-90962024D01*
X163562499Y-90986700D01*
X163562500Y-90986700D01*
X163689700Y-90986700D01*
X163689701Y-90986700D01*
X163730166Y-90975857D01*
X163777591Y-90982100D01*
X163790536Y-90992033D01*
X164933825Y-92135322D01*
X164993366Y-92159984D01*
X165018029Y-92170200D01*
X165018030Y-92170200D01*
X165109170Y-92170200D01*
X203539450Y-92170200D01*
X203583644Y-92188506D01*
X203593576Y-92201449D01*
X203614523Y-92237730D01*
X203614528Y-92237736D01*
X203704463Y-92327671D01*
X203704472Y-92327678D01*
X203814624Y-92391275D01*
X203814627Y-92391276D01*
X203814630Y-92391278D01*
X203814631Y-92391278D01*
X203814633Y-92391279D01*
X203889816Y-92411423D01*
X203937499Y-92424200D01*
X203937500Y-92424200D01*
X204064700Y-92424200D01*
X204064701Y-92424200D01*
X204187570Y-92391278D01*
X204297731Y-92327676D01*
X204387676Y-92237731D01*
X204451278Y-92127570D01*
X204484200Y-92004701D01*
X204484200Y-91877499D01*
X204451278Y-91754630D01*
X204426665Y-91712000D01*
X204387678Y-91644472D01*
X204387671Y-91644463D01*
X204297736Y-91554528D01*
X204297727Y-91554521D01*
X204187575Y-91490924D01*
X204187566Y-91490920D01*
X204064707Y-91458001D01*
X204064702Y-91458000D01*
X204064701Y-91458000D01*
X203937499Y-91458000D01*
X203937498Y-91458000D01*
X203937492Y-91458001D01*
X203814633Y-91490920D01*
X203814624Y-91490924D01*
X203704472Y-91554521D01*
X203704463Y-91554528D01*
X203614528Y-91644463D01*
X203614523Y-91644469D01*
X203593576Y-91680751D01*
X203555625Y-91709871D01*
X203539450Y-91712000D01*
X190644880Y-91712000D01*
X190600686Y-91693694D01*
X190582380Y-91649500D01*
X190590754Y-91618250D01*
X190638775Y-91535075D01*
X190638774Y-91535075D01*
X190638778Y-91535070D01*
X190671700Y-91412201D01*
X190671700Y-91284999D01*
X190638778Y-91162130D01*
X190575176Y-91051969D01*
X190575174Y-91051967D01*
X190575171Y-91051963D01*
X190485236Y-90962028D01*
X190485227Y-90962021D01*
X190375075Y-90898424D01*
X190375066Y-90898420D01*
X190252207Y-90865501D01*
X190252202Y-90865500D01*
X190252201Y-90865500D01*
X190124999Y-90865500D01*
X190124998Y-90865500D01*
X190124992Y-90865501D01*
X190002133Y-90898420D01*
X190002124Y-90898424D01*
X189891972Y-90962021D01*
X189891963Y-90962028D01*
X189802028Y-91051963D01*
X189802021Y-91051972D01*
X189738424Y-91162124D01*
X189738420Y-91162133D01*
X189705501Y-91284992D01*
X189705500Y-91285000D01*
X189705500Y-91337000D01*
X189687194Y-91381194D01*
X189643000Y-91399500D01*
X173871885Y-91399500D01*
X173827691Y-91381194D01*
X173114533Y-90668036D01*
X173096227Y-90623842D01*
X173098356Y-90607670D01*
X173109200Y-90567201D01*
X173109200Y-90439999D01*
X173076278Y-90317130D01*
X173012676Y-90206969D01*
X173012674Y-90206967D01*
X173012671Y-90206963D01*
X172922736Y-90117028D01*
X172922727Y-90117021D01*
X172812575Y-90053424D01*
X172812566Y-90053420D01*
X172689707Y-90020501D01*
X172689702Y-90020500D01*
X172689701Y-90020500D01*
X172562499Y-90020500D01*
X172562498Y-90020500D01*
X172562492Y-90020501D01*
X172439633Y-90053420D01*
X172439624Y-90053424D01*
X172329472Y-90117021D01*
X172329463Y-90117028D01*
X172239528Y-90206963D01*
X172239521Y-90206972D01*
X172175924Y-90317124D01*
X172175920Y-90317133D01*
X172143001Y-90439992D01*
X172143000Y-90440000D01*
X172143000Y-90567199D01*
X172143001Y-90567207D01*
X172175920Y-90690066D01*
X172175924Y-90690075D01*
X172239521Y-90800227D01*
X172239528Y-90800236D01*
X172329463Y-90890171D01*
X172329472Y-90890178D01*
X172439624Y-90953775D01*
X172439627Y-90953776D01*
X172439630Y-90953778D01*
X172439631Y-90953778D01*
X172439633Y-90953779D01*
X172470405Y-90962024D01*
X172562499Y-90986700D01*
X172562500Y-90986700D01*
X172689700Y-90986700D01*
X172689701Y-90986700D01*
X172730166Y-90975857D01*
X172777591Y-90982100D01*
X172790536Y-90992033D01*
X173403809Y-91605306D01*
X173422115Y-91649500D01*
X173403809Y-91693694D01*
X173359615Y-91712000D01*
X165184385Y-91712000D01*
X165140191Y-91693694D01*
X164114533Y-90668036D01*
X164096227Y-90623842D01*
X164098356Y-90607670D01*
X164109200Y-90567201D01*
X164109200Y-90439999D01*
X164076278Y-90317130D01*
X164012676Y-90206969D01*
X164012674Y-90206967D01*
X164012671Y-90206963D01*
X163922736Y-90117028D01*
X163922727Y-90117021D01*
X163812575Y-90053424D01*
X163812566Y-90053420D01*
X163689707Y-90020501D01*
X163689702Y-90020500D01*
X163689701Y-90020500D01*
X163562499Y-90020500D01*
X163562498Y-90020500D01*
X163562492Y-90020501D01*
X163439633Y-90053420D01*
X163439624Y-90053424D01*
X163329472Y-90117021D01*
X163329463Y-90117028D01*
X163239528Y-90206963D01*
X163239521Y-90206972D01*
X163175924Y-90317124D01*
X163175920Y-90317133D01*
X163143001Y-90439992D01*
X163143000Y-90440000D01*
X150786000Y-90440000D01*
X150786000Y-87377500D01*
X168580500Y-87377500D01*
X168580500Y-87504699D01*
X168580501Y-87504707D01*
X168613420Y-87627566D01*
X168613424Y-87627575D01*
X168677021Y-87737727D01*
X168677028Y-87737736D01*
X168766963Y-87827671D01*
X168766972Y-87827678D01*
X168877124Y-87891275D01*
X168877127Y-87891276D01*
X168877130Y-87891278D01*
X168877131Y-87891278D01*
X168877133Y-87891279D01*
X168952316Y-87911423D01*
X168999999Y-87924200D01*
X169000000Y-87924200D01*
X169127200Y-87924200D01*
X169127201Y-87924200D01*
X169250070Y-87891278D01*
X169360231Y-87827676D01*
X169417761Y-87770145D01*
X169461954Y-87751840D01*
X169506147Y-87770144D01*
X169506149Y-87770145D01*
X169506149Y-87770146D01*
X169692967Y-87956963D01*
X169871326Y-88135322D01*
X169920651Y-88155752D01*
X169920653Y-88155753D01*
X169955529Y-88170200D01*
X171484171Y-88170200D01*
X171508831Y-88159985D01*
X171508833Y-88159984D01*
X171519050Y-88155752D01*
X171568375Y-88135322D01*
X172827691Y-86876006D01*
X172871885Y-86857700D01*
X177755315Y-86857700D01*
X177799509Y-86876006D01*
X179359553Y-88436050D01*
X179377859Y-88480244D01*
X179359554Y-88524438D01*
X179302025Y-88581967D01*
X179302021Y-88581972D01*
X179238424Y-88692124D01*
X179238420Y-88692133D01*
X179205501Y-88814992D01*
X179205500Y-88815000D01*
X179205500Y-88942199D01*
X179205501Y-88942207D01*
X179238420Y-89065066D01*
X179238424Y-89065075D01*
X179302021Y-89175227D01*
X179302028Y-89175236D01*
X179391963Y-89265171D01*
X179391972Y-89265178D01*
X179502124Y-89328775D01*
X179502127Y-89328776D01*
X179502130Y-89328778D01*
X179502131Y-89328778D01*
X179502133Y-89328779D01*
X179577316Y-89348923D01*
X179624999Y-89361700D01*
X179625000Y-89361700D01*
X179752200Y-89361700D01*
X179752201Y-89361700D01*
X179875070Y-89328778D01*
X179985231Y-89265176D01*
X180075176Y-89175231D01*
X180138778Y-89065070D01*
X180171700Y-88942201D01*
X180171700Y-88814999D01*
X180171059Y-88812606D01*
X180171222Y-88811368D01*
X180171165Y-88810935D01*
X180171281Y-88810919D01*
X180177301Y-88765181D01*
X180215251Y-88736059D01*
X180247607Y-88736059D01*
X180249999Y-88736700D01*
X180250000Y-88736700D01*
X180377200Y-88736700D01*
X180377201Y-88736700D01*
X180500070Y-88703778D01*
X180610231Y-88640176D01*
X180700176Y-88550231D01*
X180763778Y-88440070D01*
X180796700Y-88317201D01*
X180796700Y-88189999D01*
X180763778Y-88067130D01*
X180700176Y-87956969D01*
X180700174Y-87956967D01*
X180700171Y-87956963D01*
X180610236Y-87867028D01*
X180610227Y-87867021D01*
X180500075Y-87803424D01*
X180500066Y-87803420D01*
X180377207Y-87770501D01*
X180377202Y-87770500D01*
X180377201Y-87770500D01*
X180249999Y-87770500D01*
X180249998Y-87770500D01*
X180249992Y-87770501D01*
X180127133Y-87803420D01*
X180127124Y-87803424D01*
X180016970Y-87867022D01*
X179990687Y-87893305D01*
X179946493Y-87911610D01*
X179902300Y-87893304D01*
X178130876Y-86121879D01*
X178130875Y-86121878D01*
X178130868Y-86121875D01*
X178071333Y-86097215D01*
X178071332Y-86097214D01*
X178046672Y-86087000D01*
X178046671Y-86087000D01*
X172580529Y-86087000D01*
X172555866Y-86097215D01*
X172555864Y-86097216D01*
X172555863Y-86097215D01*
X172496328Y-86121875D01*
X172496323Y-86121879D01*
X171237009Y-87381194D01*
X171192815Y-87399500D01*
X170246884Y-87399500D01*
X170202690Y-87381194D01*
X170048895Y-87227399D01*
X170030589Y-87183205D01*
X170048894Y-87139012D01*
X170075176Y-87112731D01*
X170138778Y-87002570D01*
X170171700Y-86879701D01*
X170171700Y-86752499D01*
X170138778Y-86629630D01*
X170075176Y-86519469D01*
X170075174Y-86519467D01*
X170075171Y-86519463D01*
X169985236Y-86429528D01*
X169985227Y-86429521D01*
X169875075Y-86365924D01*
X169875066Y-86365920D01*
X169752207Y-86333001D01*
X169752202Y-86333000D01*
X169752201Y-86333000D01*
X169624999Y-86333000D01*
X169624998Y-86333000D01*
X169624992Y-86333001D01*
X169502133Y-86365920D01*
X169502124Y-86365924D01*
X169391972Y-86429521D01*
X169391963Y-86429528D01*
X169302028Y-86519463D01*
X169302021Y-86519472D01*
X169238424Y-86629624D01*
X169238420Y-86629633D01*
X169205501Y-86752492D01*
X169205500Y-86752500D01*
X169205500Y-86879699D01*
X169205501Y-86879710D01*
X169206141Y-86882098D01*
X169205978Y-86883333D01*
X169206035Y-86883765D01*
X169205919Y-86883780D01*
X169199894Y-86929524D01*
X169161942Y-86958641D01*
X169129598Y-86958641D01*
X169127210Y-86958001D01*
X169127201Y-86958000D01*
X168999999Y-86958000D01*
X168999998Y-86958000D01*
X168999992Y-86958001D01*
X168877133Y-86990920D01*
X168877124Y-86990924D01*
X168766972Y-87054521D01*
X168766963Y-87054528D01*
X168677028Y-87144463D01*
X168677021Y-87144472D01*
X168613424Y-87254624D01*
X168613420Y-87254633D01*
X168580501Y-87377492D01*
X168580500Y-87377500D01*
X150786000Y-87377500D01*
X150786000Y-82840376D01*
X151447100Y-82840376D01*
X151447100Y-82959623D01*
X151447101Y-82959631D01*
X151477963Y-83074812D01*
X151477964Y-83074815D01*
X151537589Y-83178086D01*
X151537594Y-83178092D01*
X151621907Y-83262405D01*
X151621913Y-83262410D01*
X151725184Y-83322035D01*
X151725187Y-83322036D01*
X151840375Y-83352900D01*
X151840376Y-83352900D01*
X151959621Y-83352900D01*
X151959625Y-83352900D01*
X151979409Y-83347598D01*
X152026832Y-83353840D01*
X152039778Y-83363774D01*
X152105779Y-83429775D01*
X152170225Y-83494221D01*
X152170226Y-83494221D01*
X152170228Y-83494223D01*
X152254426Y-83529099D01*
X152254429Y-83529100D01*
X170345571Y-83529100D01*
X170370231Y-83518885D01*
X170370233Y-83518884D01*
X170429775Y-83494222D01*
X173110490Y-80813505D01*
X173154684Y-80795200D01*
X173914450Y-80795200D01*
X173958644Y-80813506D01*
X173968576Y-80826449D01*
X173989523Y-80862730D01*
X173989528Y-80862736D01*
X174079463Y-80952671D01*
X174079472Y-80952678D01*
X174189624Y-81016275D01*
X174189627Y-81016276D01*
X174189630Y-81016278D01*
X174189631Y-81016278D01*
X174189633Y-81016279D01*
X174264816Y-81036423D01*
X174312499Y-81049200D01*
X174312500Y-81049200D01*
X174439700Y-81049200D01*
X174439701Y-81049200D01*
X174562570Y-81016278D01*
X174672731Y-80952676D01*
X174762676Y-80862731D01*
X174826278Y-80752570D01*
X174859200Y-80629701D01*
X174859200Y-80502499D01*
X174826490Y-80380421D01*
X174832733Y-80332995D01*
X174870684Y-80303875D01*
X174918110Y-80310118D01*
X174931054Y-80320051D01*
X175816194Y-81205191D01*
X175834500Y-81249385D01*
X175834500Y-81791950D01*
X175816194Y-81836144D01*
X175803251Y-81846076D01*
X175766969Y-81867023D01*
X175766963Y-81867028D01*
X175677028Y-81956963D01*
X175677023Y-81956969D01*
X175656076Y-81993251D01*
X175618125Y-82022371D01*
X175601950Y-82024500D01*
X175074385Y-82024500D01*
X175030191Y-82006194D01*
X174729775Y-81705778D01*
X174729768Y-81705775D01*
X174670233Y-81681115D01*
X174670232Y-81681114D01*
X174645572Y-81670900D01*
X174645571Y-81670900D01*
X172654429Y-81670900D01*
X172629766Y-81681115D01*
X172629764Y-81681116D01*
X172629763Y-81681115D01*
X172570228Y-81705775D01*
X172570223Y-81705779D01*
X170323409Y-83952594D01*
X170279215Y-83970900D01*
X152154429Y-83970900D01*
X152136219Y-83978443D01*
X152070225Y-84005778D01*
X152070223Y-84005779D01*
X152039777Y-84036224D01*
X151995582Y-84054529D01*
X151979411Y-84052400D01*
X151959631Y-84047101D01*
X151959627Y-84047100D01*
X151959625Y-84047100D01*
X151840375Y-84047100D01*
X151840374Y-84047100D01*
X151840368Y-84047101D01*
X151725187Y-84077963D01*
X151725184Y-84077964D01*
X151621913Y-84137589D01*
X151621907Y-84137594D01*
X151537594Y-84221907D01*
X151537589Y-84221913D01*
X151477964Y-84325184D01*
X151477963Y-84325187D01*
X151447101Y-84440368D01*
X151447100Y-84440376D01*
X151447100Y-84559623D01*
X151447101Y-84559631D01*
X151477963Y-84674812D01*
X151477964Y-84674815D01*
X151537589Y-84778086D01*
X151537594Y-84778092D01*
X151621907Y-84862405D01*
X151621913Y-84862410D01*
X151725184Y-84922035D01*
X151725187Y-84922036D01*
X151840375Y-84952900D01*
X151840376Y-84952900D01*
X151959624Y-84952900D01*
X151959625Y-84952900D01*
X152074813Y-84922036D01*
X152178087Y-84862410D01*
X152262410Y-84778087D01*
X152322036Y-84674813D01*
X152352900Y-84559625D01*
X152352900Y-84491600D01*
X152371206Y-84447406D01*
X152415400Y-84429100D01*
X170445571Y-84429100D01*
X170470231Y-84418885D01*
X170470233Y-84418884D01*
X170529775Y-84394222D01*
X172776591Y-82147406D01*
X172820785Y-82129100D01*
X174479215Y-82129100D01*
X174523409Y-82147406D01*
X174823825Y-82447822D01*
X174883366Y-82472484D01*
X174908029Y-82482700D01*
X174908030Y-82482700D01*
X174999170Y-82482700D01*
X175601950Y-82482700D01*
X175646144Y-82501006D01*
X175656076Y-82513949D01*
X175677023Y-82550230D01*
X175677028Y-82550236D01*
X175766963Y-82640171D01*
X175766972Y-82640178D01*
X175877124Y-82703775D01*
X175877127Y-82703776D01*
X175877130Y-82703778D01*
X175877131Y-82703778D01*
X175877133Y-82703779D01*
X175952316Y-82723923D01*
X175999999Y-82736700D01*
X176000000Y-82736700D01*
X176127200Y-82736700D01*
X176127201Y-82736700D01*
X176250070Y-82703778D01*
X176360231Y-82640176D01*
X176450176Y-82550231D01*
X176513778Y-82440070D01*
X176546700Y-82317201D01*
X176546700Y-82189999D01*
X176533923Y-82142316D01*
X176513779Y-82067133D01*
X176513775Y-82067124D01*
X176450178Y-81956972D01*
X176450171Y-81956963D01*
X176360236Y-81867028D01*
X176360230Y-81867023D01*
X176323949Y-81846076D01*
X176294829Y-81808125D01*
X176292700Y-81791950D01*
X176292700Y-81083029D01*
X176292699Y-81083027D01*
X176278687Y-81049199D01*
X176278686Y-81049198D01*
X176265051Y-81016279D01*
X176257822Y-80998825D01*
X175068375Y-79809378D01*
X175008833Y-79784715D01*
X175008832Y-79784714D01*
X174984172Y-79774500D01*
X174984171Y-79774500D01*
X174371884Y-79774500D01*
X174327690Y-79756194D01*
X164362377Y-69790880D01*
X164321252Y-69749755D01*
X176952500Y-69749755D01*
X176952500Y-69882444D01*
X176978385Y-70012580D01*
X177029162Y-70135166D01*
X177029165Y-70135171D01*
X177102880Y-70245494D01*
X177102882Y-70245496D01*
X177198876Y-70341491D01*
X177198082Y-70342284D01*
X177218897Y-70381193D01*
X177219200Y-70387340D01*
X177219200Y-75619675D01*
X177246929Y-75723155D01*
X177246929Y-75723157D01*
X177246930Y-75723158D01*
X177300499Y-75815943D01*
X185538757Y-84054201D01*
X185631542Y-84107770D01*
X185663207Y-84116254D01*
X185735024Y-84135499D01*
X185735030Y-84135500D01*
X185735031Y-84135500D01*
X191367360Y-84135500D01*
X191411554Y-84153806D01*
X191415064Y-84157678D01*
X191415380Y-84157994D01*
X191415381Y-84157995D01*
X191509205Y-84251819D01*
X191619531Y-84325536D01*
X191742118Y-84376314D01*
X191872256Y-84402200D01*
X192004944Y-84402200D01*
X192135082Y-84376314D01*
X192257669Y-84325536D01*
X192367995Y-84251819D01*
X192461819Y-84157995D01*
X192535536Y-84047669D01*
X192586314Y-83925082D01*
X192612200Y-83794944D01*
X192612200Y-83662256D01*
X192586314Y-83532118D01*
X192550408Y-83445435D01*
X192535537Y-83409533D01*
X192535534Y-83409528D01*
X192461819Y-83299205D01*
X192367994Y-83205380D01*
X192257671Y-83131665D01*
X192257666Y-83131662D01*
X192135080Y-83080885D01*
X192004944Y-83055000D01*
X191872256Y-83055000D01*
X191742119Y-83080885D01*
X191619533Y-83131662D01*
X191619528Y-83131665D01*
X191509205Y-83205380D01*
X191509203Y-83205382D01*
X191413210Y-83301376D01*
X191412421Y-83300587D01*
X191373488Y-83321399D01*
X191367360Y-83321700D01*
X185983032Y-83321700D01*
X185938838Y-83303394D01*
X178051306Y-75415862D01*
X178033000Y-75371668D01*
X178033000Y-74190000D01*
X182268000Y-74190000D01*
X182268000Y-74317199D01*
X182268001Y-74317207D01*
X182300920Y-74440066D01*
X182300924Y-74440075D01*
X182364521Y-74550227D01*
X182364528Y-74550236D01*
X182454463Y-74640171D01*
X182454472Y-74640178D01*
X182564624Y-74703775D01*
X182564627Y-74703776D01*
X182564630Y-74703778D01*
X182564631Y-74703778D01*
X182564633Y-74703779D01*
X182639816Y-74723923D01*
X182687499Y-74736700D01*
X182687500Y-74736700D01*
X182814700Y-74736700D01*
X182814701Y-74736700D01*
X182937570Y-74703778D01*
X183047731Y-74640176D01*
X183137676Y-74550231D01*
X183147952Y-74532432D01*
X183158624Y-74513949D01*
X183196575Y-74484829D01*
X183212750Y-74482700D01*
X185109171Y-74482700D01*
X185133831Y-74472485D01*
X185133833Y-74472484D01*
X185193375Y-74447822D01*
X188678942Y-70962255D01*
X215390000Y-70962255D01*
X215390000Y-71094944D01*
X215415885Y-71225080D01*
X215466662Y-71347666D01*
X215466665Y-71347671D01*
X215540380Y-71457994D01*
X215634205Y-71551819D01*
X215672895Y-71577671D01*
X215744531Y-71625536D01*
X215867118Y-71676314D01*
X215997256Y-71702200D01*
X216133014Y-71702200D01*
X216133014Y-71703315D01*
X216175259Y-71716129D01*
X216179806Y-71720250D01*
X223688757Y-79229201D01*
X223781543Y-79282770D01*
X223817911Y-79292515D01*
X223885024Y-79310499D01*
X223885030Y-79310500D01*
X223885031Y-79310500D01*
X224894300Y-79310500D01*
X224938494Y-79328806D01*
X224987184Y-79377496D01*
X225087107Y-79444263D01*
X225087108Y-79444263D01*
X225087109Y-79444264D01*
X225198140Y-79490254D01*
X225316010Y-79513700D01*
X225436190Y-79513700D01*
X225554060Y-79490254D01*
X225665091Y-79444264D01*
X225765016Y-79377496D01*
X225849996Y-79292516D01*
X225916764Y-79192591D01*
X225962754Y-79081560D01*
X225986200Y-78963690D01*
X225986200Y-78843510D01*
X225962754Y-78725640D01*
X225916764Y-78614609D01*
X225849996Y-78514684D01*
X225765016Y-78429704D01*
X225765015Y-78429703D01*
X225665092Y-78362936D01*
X225554058Y-78316945D01*
X225436190Y-78293500D01*
X225316010Y-78293500D01*
X225198141Y-78316945D01*
X225087107Y-78362936D01*
X224987184Y-78429703D01*
X224987182Y-78429705D01*
X224938494Y-78478394D01*
X224894300Y-78496700D01*
X224133032Y-78496700D01*
X224088838Y-78478394D01*
X216755250Y-71144806D01*
X216736944Y-71100612D01*
X216737200Y-71095399D01*
X216737200Y-70962256D01*
X216711314Y-70832118D01*
X216660595Y-70709674D01*
X216660537Y-70709533D01*
X216660534Y-70709528D01*
X216586819Y-70599205D01*
X216492994Y-70505380D01*
X216382671Y-70431665D01*
X216382666Y-70431662D01*
X216260080Y-70380885D01*
X216129944Y-70355000D01*
X215997256Y-70355000D01*
X215867119Y-70380885D01*
X215744533Y-70431662D01*
X215744528Y-70431665D01*
X215634205Y-70505380D01*
X215540380Y-70599205D01*
X215466665Y-70709528D01*
X215466662Y-70709533D01*
X215415885Y-70832119D01*
X215390000Y-70962255D01*
X188678942Y-70962255D01*
X188952691Y-70688506D01*
X188996885Y-70670200D01*
X193671670Y-70670200D01*
X193671671Y-70670200D01*
X193701052Y-70658030D01*
X193755875Y-70635322D01*
X196820322Y-67570874D01*
X196849358Y-67500774D01*
X196855200Y-67486671D01*
X196855200Y-61458029D01*
X196843869Y-61430675D01*
X196820322Y-61373825D01*
X196261497Y-60815000D01*
X216218000Y-60815000D01*
X216218000Y-60942199D01*
X216218001Y-60942207D01*
X216250920Y-61065066D01*
X216250924Y-61065075D01*
X216314521Y-61175227D01*
X216314528Y-61175236D01*
X216404466Y-61265174D01*
X216404468Y-61265175D01*
X216404469Y-61265176D01*
X216440751Y-61286123D01*
X216469870Y-61324072D01*
X216472000Y-61340249D01*
X216472000Y-65533030D01*
X216472000Y-65624170D01*
X216497745Y-65686325D01*
X216506878Y-65708375D01*
X227878694Y-77080191D01*
X227897000Y-77124385D01*
X227897000Y-94229450D01*
X227878694Y-94273644D01*
X227865751Y-94283576D01*
X227829469Y-94304523D01*
X227829463Y-94304528D01*
X227739528Y-94394463D01*
X227739521Y-94394472D01*
X227675924Y-94504624D01*
X227675920Y-94504633D01*
X227643001Y-94627492D01*
X227643000Y-94627500D01*
X227643000Y-94754699D01*
X227643001Y-94754707D01*
X227675920Y-94877566D01*
X227675924Y-94877575D01*
X227739521Y-94987727D01*
X227739528Y-94987736D01*
X227829463Y-95077671D01*
X227829472Y-95077678D01*
X227939624Y-95141275D01*
X227939627Y-95141276D01*
X227939630Y-95141278D01*
X227939631Y-95141278D01*
X227939633Y-95141279D01*
X228014816Y-95161423D01*
X228062499Y-95174200D01*
X228062500Y-95174200D01*
X228189700Y-95174200D01*
X228189701Y-95174200D01*
X228312570Y-95141278D01*
X228422731Y-95077676D01*
X228512676Y-94987731D01*
X228576278Y-94877570D01*
X228609200Y-94754701D01*
X228609200Y-94627499D01*
X228576278Y-94504630D01*
X228546682Y-94453369D01*
X228512678Y-94394472D01*
X228512671Y-94394463D01*
X228422736Y-94304528D01*
X228422730Y-94304523D01*
X228386449Y-94283576D01*
X228357329Y-94245625D01*
X228355200Y-94229450D01*
X228355200Y-91429680D01*
X241700600Y-91429680D01*
X241700600Y-91577519D01*
X241729441Y-91722511D01*
X241729441Y-91722512D01*
X241786016Y-91859095D01*
X241786017Y-91859097D01*
X241868148Y-91982015D01*
X241972684Y-92086551D01*
X242082584Y-92159984D01*
X242095605Y-92168684D01*
X242232187Y-92225258D01*
X242377182Y-92254100D01*
X242525018Y-92254100D01*
X242670013Y-92225258D01*
X242806595Y-92168684D01*
X242929516Y-92086551D01*
X243034051Y-91982016D01*
X243116184Y-91859095D01*
X243172758Y-91722513D01*
X243201600Y-91577518D01*
X243201600Y-91429682D01*
X243172758Y-91284687D01*
X243116184Y-91148105D01*
X243034051Y-91025184D01*
X242929516Y-90920649D01*
X242883910Y-90890176D01*
X242806597Y-90838517D01*
X242806595Y-90838516D01*
X242670011Y-90781941D01*
X242525019Y-90753100D01*
X242525018Y-90753100D01*
X242377182Y-90753100D01*
X242377180Y-90753100D01*
X242232188Y-90781941D01*
X242232187Y-90781941D01*
X242095604Y-90838516D01*
X242095602Y-90838517D01*
X241972684Y-90920648D01*
X241868148Y-91025184D01*
X241786017Y-91148102D01*
X241786016Y-91148104D01*
X241729441Y-91284687D01*
X241729441Y-91284688D01*
X241700600Y-91429680D01*
X228355200Y-91429680D01*
X228355200Y-84429680D01*
X241700600Y-84429680D01*
X241700600Y-84577519D01*
X241729441Y-84722511D01*
X241729441Y-84722512D01*
X241786016Y-84859095D01*
X241786017Y-84859097D01*
X241848693Y-84952898D01*
X241868149Y-84982016D01*
X241972684Y-85086551D01*
X242095605Y-85168684D01*
X242232187Y-85225258D01*
X242377182Y-85254100D01*
X242525018Y-85254100D01*
X242670013Y-85225258D01*
X242806595Y-85168684D01*
X242929516Y-85086551D01*
X243034051Y-84982016D01*
X243116184Y-84859095D01*
X243172758Y-84722513D01*
X243201600Y-84577518D01*
X243201600Y-84429682D01*
X243172758Y-84284687D01*
X243116184Y-84148105D01*
X243034051Y-84025184D01*
X242929516Y-83920649D01*
X242929515Y-83920648D01*
X242806597Y-83838517D01*
X242806595Y-83838516D01*
X242670011Y-83781941D01*
X242525019Y-83753100D01*
X242525018Y-83753100D01*
X242377182Y-83753100D01*
X242377180Y-83753100D01*
X242232188Y-83781941D01*
X242232187Y-83781941D01*
X242095604Y-83838516D01*
X242095602Y-83838517D01*
X241972684Y-83920648D01*
X241868148Y-84025184D01*
X241786017Y-84148102D01*
X241786016Y-84148104D01*
X241729441Y-84284687D01*
X241729441Y-84284688D01*
X241700600Y-84429680D01*
X228355200Y-84429680D01*
X228355200Y-76958029D01*
X228355199Y-76958027D01*
X228330128Y-76897501D01*
X228330128Y-76897500D01*
X228320322Y-76873825D01*
X223636497Y-72190000D01*
X228893000Y-72190000D01*
X228893000Y-72317199D01*
X228893001Y-72317207D01*
X228925920Y-72440066D01*
X228925924Y-72440075D01*
X228989521Y-72550227D01*
X228989528Y-72550236D01*
X229079463Y-72640171D01*
X229079472Y-72640178D01*
X229189624Y-72703775D01*
X229189627Y-72703776D01*
X229189630Y-72703778D01*
X229189631Y-72703778D01*
X229189633Y-72703779D01*
X229262787Y-72723380D01*
X229312499Y-72736700D01*
X229312500Y-72736700D01*
X229439700Y-72736700D01*
X229439701Y-72736700D01*
X229562570Y-72703778D01*
X229672731Y-72640176D01*
X229762676Y-72550231D01*
X229762677Y-72550228D01*
X229764013Y-72548489D01*
X229764973Y-72547934D01*
X229765573Y-72547335D01*
X229765733Y-72547495D01*
X229805438Y-72524568D01*
X229851644Y-72536946D01*
X229863187Y-72548489D01*
X229864525Y-72550233D01*
X229954463Y-72640171D01*
X229954472Y-72640178D01*
X230064624Y-72703775D01*
X230064627Y-72703776D01*
X230064630Y-72703778D01*
X230064631Y-72703778D01*
X230064633Y-72703779D01*
X230137787Y-72723380D01*
X230187499Y-72736700D01*
X230187500Y-72736700D01*
X230314700Y-72736700D01*
X230314701Y-72736700D01*
X230437570Y-72703778D01*
X230547731Y-72640176D01*
X230637676Y-72550231D01*
X230637677Y-72550228D01*
X230639013Y-72548489D01*
X230639973Y-72547934D01*
X230640573Y-72547335D01*
X230640733Y-72547495D01*
X230680438Y-72524568D01*
X230726644Y-72536946D01*
X230738187Y-72548489D01*
X230739525Y-72550233D01*
X230829463Y-72640171D01*
X230829472Y-72640178D01*
X230939624Y-72703775D01*
X230939627Y-72703776D01*
X230939630Y-72703778D01*
X230939631Y-72703778D01*
X230939633Y-72703779D01*
X231012787Y-72723380D01*
X231062499Y-72736700D01*
X231062500Y-72736700D01*
X231189700Y-72736700D01*
X231189701Y-72736700D01*
X231312570Y-72703778D01*
X231422731Y-72640176D01*
X231512676Y-72550231D01*
X231576278Y-72440070D01*
X231609200Y-72317201D01*
X231609200Y-72189999D01*
X231576278Y-72067130D01*
X231512676Y-71956969D01*
X231512674Y-71956967D01*
X231512671Y-71956963D01*
X231422736Y-71867028D01*
X231422727Y-71867021D01*
X231312575Y-71803424D01*
X231312566Y-71803420D01*
X231189707Y-71770501D01*
X231189702Y-71770500D01*
X231189701Y-71770500D01*
X231062499Y-71770500D01*
X231062494Y-71770500D01*
X231022030Y-71781342D01*
X231013657Y-71780239D01*
X231005856Y-71783471D01*
X230990782Y-71777227D01*
X230974604Y-71775097D01*
X230961662Y-71765165D01*
X230873506Y-71677009D01*
X230855200Y-71632815D01*
X230855200Y-69786700D01*
X230873506Y-69742506D01*
X230917700Y-69724200D01*
X230939700Y-69724200D01*
X230939701Y-69724200D01*
X231062570Y-69691278D01*
X231172731Y-69627676D01*
X231262676Y-69537731D01*
X231326278Y-69427570D01*
X231359200Y-69304701D01*
X231359200Y-69177499D01*
X231326278Y-69054630D01*
X231318887Y-69041829D01*
X231262678Y-68944472D01*
X231262671Y-68944463D01*
X231172736Y-68854528D01*
X231172727Y-68854521D01*
X231062575Y-68790924D01*
X231062566Y-68790920D01*
X230939707Y-68758001D01*
X230939702Y-68758000D01*
X230939701Y-68758000D01*
X230939700Y-68758000D01*
X230917700Y-68758000D01*
X230873506Y-68739694D01*
X230855200Y-68695500D01*
X230855200Y-66036700D01*
X230873506Y-65992506D01*
X230917700Y-65974200D01*
X230939700Y-65974200D01*
X230939701Y-65974200D01*
X231062570Y-65941278D01*
X231172731Y-65877676D01*
X231262676Y-65787731D01*
X231326278Y-65677570D01*
X231359200Y-65554701D01*
X231359200Y-65427499D01*
X231326278Y-65304630D01*
X231291802Y-65244917D01*
X231262678Y-65194472D01*
X231262671Y-65194463D01*
X231172736Y-65104528D01*
X231172727Y-65104521D01*
X231062575Y-65040924D01*
X231062566Y-65040920D01*
X230999701Y-65024076D01*
X230961750Y-64994956D01*
X230955507Y-64947530D01*
X230971681Y-64919514D01*
X231202690Y-64688506D01*
X231246884Y-64670200D01*
X233164450Y-64670200D01*
X233208644Y-64688506D01*
X233218576Y-64701449D01*
X233239523Y-64737730D01*
X233239528Y-64737736D01*
X233329463Y-64827671D01*
X233329472Y-64827678D01*
X233439624Y-64891275D01*
X233439627Y-64891276D01*
X233439630Y-64891278D01*
X233439631Y-64891278D01*
X233439633Y-64891279D01*
X233514816Y-64911423D01*
X233562499Y-64924200D01*
X233562500Y-64924200D01*
X233689700Y-64924200D01*
X233689701Y-64924200D01*
X233812570Y-64891278D01*
X233922731Y-64827676D01*
X234012676Y-64737731D01*
X234012677Y-64737728D01*
X234014013Y-64735989D01*
X234014973Y-64735434D01*
X234015573Y-64734835D01*
X234015733Y-64734995D01*
X234055438Y-64712068D01*
X234101644Y-64724446D01*
X234113187Y-64735989D01*
X234114525Y-64737733D01*
X234204463Y-64827671D01*
X234204472Y-64827678D01*
X234314624Y-64891275D01*
X234314627Y-64891276D01*
X234314630Y-64891278D01*
X234314631Y-64891278D01*
X234314633Y-64891279D01*
X234389816Y-64911423D01*
X234437499Y-64924200D01*
X234437500Y-64924200D01*
X234564700Y-64924200D01*
X234564701Y-64924200D01*
X234687570Y-64891278D01*
X234797731Y-64827676D01*
X234887676Y-64737731D01*
X234887677Y-64737728D01*
X234889013Y-64735989D01*
X234889973Y-64735434D01*
X234890573Y-64734835D01*
X234890733Y-64734995D01*
X234930438Y-64712068D01*
X234976644Y-64724446D01*
X234988187Y-64735989D01*
X234989525Y-64737733D01*
X235079463Y-64827671D01*
X235079472Y-64827678D01*
X235189624Y-64891275D01*
X235189627Y-64891276D01*
X235189630Y-64891278D01*
X235189631Y-64891278D01*
X235189633Y-64891279D01*
X235264816Y-64911423D01*
X235312499Y-64924200D01*
X235312500Y-64924200D01*
X235439700Y-64924200D01*
X235439701Y-64924200D01*
X235562570Y-64891278D01*
X235672731Y-64827676D01*
X235730261Y-64770145D01*
X235774454Y-64751840D01*
X235818647Y-64770144D01*
X235818649Y-64770145D01*
X235818649Y-64770146D01*
X237316194Y-66267690D01*
X237334500Y-66311884D01*
X237334500Y-69904999D01*
X237316194Y-69949193D01*
X237272000Y-69967499D01*
X237240750Y-69959126D01*
X237187569Y-69928421D01*
X237187566Y-69928420D01*
X237064707Y-69895501D01*
X237064702Y-69895500D01*
X237064701Y-69895500D01*
X236937499Y-69895500D01*
X236937498Y-69895500D01*
X236937492Y-69895501D01*
X236814633Y-69928420D01*
X236814624Y-69928424D01*
X236704472Y-69992021D01*
X236704463Y-69992028D01*
X236614528Y-70081963D01*
X236614521Y-70081972D01*
X236550924Y-70192124D01*
X236550920Y-70192133D01*
X236518001Y-70314992D01*
X236518000Y-70315000D01*
X236518000Y-70442199D01*
X236518001Y-70442207D01*
X236550920Y-70565066D01*
X236550924Y-70565075D01*
X236614521Y-70675227D01*
X236614528Y-70675236D01*
X236640803Y-70701511D01*
X236659109Y-70745705D01*
X236640803Y-70789899D01*
X236140894Y-71289809D01*
X236096700Y-71308115D01*
X236052506Y-71289809D01*
X236034200Y-71245615D01*
X236034200Y-71127500D01*
X236034198Y-71127494D01*
X236001278Y-71004630D01*
X235983237Y-70973383D01*
X235937678Y-70894472D01*
X235937671Y-70894463D01*
X235847736Y-70804528D01*
X235847727Y-70804521D01*
X235737575Y-70740924D01*
X235737566Y-70740920D01*
X235614707Y-70708001D01*
X235614702Y-70708000D01*
X235614701Y-70708000D01*
X235487499Y-70708000D01*
X235487498Y-70708000D01*
X235487492Y-70708001D01*
X235364633Y-70740920D01*
X235364624Y-70740924D01*
X235254472Y-70804521D01*
X235254463Y-70804528D01*
X235164528Y-70894463D01*
X235164521Y-70894472D01*
X235100924Y-71004624D01*
X235100920Y-71004633D01*
X235074517Y-71103176D01*
X235045397Y-71141126D01*
X235014147Y-71149500D01*
X233330529Y-71149500D01*
X233305866Y-71159715D01*
X233305864Y-71159716D01*
X233305863Y-71159715D01*
X233246328Y-71184375D01*
X233246323Y-71184379D01*
X232665536Y-71765165D01*
X232621342Y-71783471D01*
X232605167Y-71781342D01*
X232564702Y-71770500D01*
X232564701Y-71770500D01*
X232437499Y-71770500D01*
X232437498Y-71770500D01*
X232437492Y-71770501D01*
X232314633Y-71803420D01*
X232314624Y-71803424D01*
X232204472Y-71867021D01*
X232204463Y-71867028D01*
X232114528Y-71956963D01*
X232114521Y-71956972D01*
X232050924Y-72067124D01*
X232050920Y-72067133D01*
X232018001Y-72189992D01*
X232018000Y-72190000D01*
X232018000Y-72317199D01*
X232018001Y-72317207D01*
X232050920Y-72440066D01*
X232050924Y-72440075D01*
X232114521Y-72550227D01*
X232114528Y-72550236D01*
X232204463Y-72640171D01*
X232204472Y-72640178D01*
X232314624Y-72703775D01*
X232314627Y-72703776D01*
X232314630Y-72703778D01*
X232314631Y-72703778D01*
X232314633Y-72703779D01*
X232387787Y-72723380D01*
X232437499Y-72736700D01*
X232437500Y-72736700D01*
X232564700Y-72736700D01*
X232564701Y-72736700D01*
X232687570Y-72703778D01*
X232797731Y-72640176D01*
X232887676Y-72550231D01*
X232887677Y-72550228D01*
X232889013Y-72548489D01*
X232889973Y-72547934D01*
X232890573Y-72547335D01*
X232890733Y-72547495D01*
X232930438Y-72524568D01*
X232976644Y-72536946D01*
X232988187Y-72548489D01*
X232989525Y-72550233D01*
X233079463Y-72640171D01*
X233079472Y-72640178D01*
X233189624Y-72703775D01*
X233189627Y-72703776D01*
X233189630Y-72703778D01*
X233189631Y-72703778D01*
X233189633Y-72703779D01*
X233262787Y-72723380D01*
X233312499Y-72736700D01*
X233312500Y-72736700D01*
X233439700Y-72736700D01*
X233439701Y-72736700D01*
X233562570Y-72703778D01*
X233672731Y-72640176D01*
X233762676Y-72550231D01*
X233762677Y-72550228D01*
X233764013Y-72548489D01*
X233764973Y-72547934D01*
X233765573Y-72547335D01*
X233765733Y-72547495D01*
X233805438Y-72524568D01*
X233851644Y-72536946D01*
X233863187Y-72548489D01*
X233864525Y-72550233D01*
X233954463Y-72640171D01*
X233954472Y-72640178D01*
X234064624Y-72703775D01*
X234064627Y-72703776D01*
X234064630Y-72703778D01*
X234064631Y-72703778D01*
X234064633Y-72703779D01*
X234137787Y-72723380D01*
X234187499Y-72736700D01*
X234187500Y-72736700D01*
X234314700Y-72736700D01*
X234314701Y-72736700D01*
X234314709Y-72736698D01*
X234359781Y-72724621D01*
X234407208Y-72730864D01*
X234436328Y-72768814D01*
X234436329Y-72801166D01*
X234424250Y-72846247D01*
X234424250Y-72973449D01*
X234424251Y-72973457D01*
X234457170Y-73096316D01*
X234457174Y-73096325D01*
X234520771Y-73206477D01*
X234520778Y-73206486D01*
X234610713Y-73296421D01*
X234610722Y-73296428D01*
X234720874Y-73360025D01*
X234720877Y-73360026D01*
X234720880Y-73360028D01*
X234720881Y-73360028D01*
X234720883Y-73360029D01*
X234796066Y-73380173D01*
X234843749Y-73392950D01*
X234843750Y-73392950D01*
X234970950Y-73392950D01*
X234970951Y-73392950D01*
X235093820Y-73360028D01*
X235203981Y-73296426D01*
X235293926Y-73206481D01*
X235357528Y-73096320D01*
X235390450Y-72973451D01*
X235390450Y-72857700D01*
X235408756Y-72813506D01*
X235452950Y-72795200D01*
X236109171Y-72795200D01*
X236133831Y-72784985D01*
X236133833Y-72784984D01*
X236193375Y-72760322D01*
X238070322Y-70883375D01*
X238099223Y-70813600D01*
X238105200Y-70799171D01*
X238105200Y-66020529D01*
X238084353Y-65970200D01*
X238070322Y-65936325D01*
X235818375Y-63684378D01*
X235758833Y-63659715D01*
X235758832Y-63659714D01*
X235734172Y-63649500D01*
X235734171Y-63649500D01*
X235018029Y-63649500D01*
X234993366Y-63659715D01*
X234993364Y-63659716D01*
X234993363Y-63659715D01*
X234933828Y-63684375D01*
X234933823Y-63684379D01*
X234665536Y-63952665D01*
X234621342Y-63970971D01*
X234605167Y-63968842D01*
X234564702Y-63958000D01*
X234564701Y-63958000D01*
X234437499Y-63958000D01*
X234437498Y-63958000D01*
X234437492Y-63958001D01*
X234314633Y-63990920D01*
X234314624Y-63990924D01*
X234204472Y-64054521D01*
X234204463Y-64054528D01*
X234114526Y-64144465D01*
X234113184Y-64146215D01*
X234112221Y-64146770D01*
X234111627Y-64147365D01*
X234111467Y-64147205D01*
X234071756Y-64170132D01*
X234025551Y-64157750D01*
X234014016Y-64146215D01*
X234012673Y-64144465D01*
X233922736Y-64054528D01*
X233922727Y-64054521D01*
X233812575Y-63990924D01*
X233812566Y-63990920D01*
X233689707Y-63958001D01*
X233689702Y-63958000D01*
X233689701Y-63958000D01*
X233562499Y-63958000D01*
X233562498Y-63958000D01*
X233562492Y-63958001D01*
X233439633Y-63990920D01*
X233439624Y-63990924D01*
X233329472Y-64054521D01*
X233329463Y-64054528D01*
X233239528Y-64144463D01*
X233239523Y-64144469D01*
X233218576Y-64180751D01*
X233180625Y-64209871D01*
X233164450Y-64212000D01*
X231080529Y-64212000D01*
X231045650Y-64226447D01*
X231045649Y-64226446D01*
X230996329Y-64246875D01*
X230996324Y-64246879D01*
X230119375Y-65123828D01*
X230094715Y-65183363D01*
X230094715Y-65183366D01*
X230088729Y-65197820D01*
X230084500Y-65208030D01*
X230084500Y-68445315D01*
X230066194Y-68489509D01*
X229806879Y-68748823D01*
X229806875Y-68748828D01*
X229782215Y-68808363D01*
X229782215Y-68808366D01*
X229779439Y-68815070D01*
X229772000Y-68833030D01*
X229772000Y-71507814D01*
X229753694Y-71552008D01*
X229540536Y-71765165D01*
X229496342Y-71783471D01*
X229480167Y-71781342D01*
X229439702Y-71770500D01*
X229439701Y-71770500D01*
X229312499Y-71770500D01*
X229312498Y-71770500D01*
X229312492Y-71770501D01*
X229189633Y-71803420D01*
X229189624Y-71803424D01*
X229079472Y-71867021D01*
X229079463Y-71867028D01*
X228989528Y-71956963D01*
X228989521Y-71956972D01*
X228925924Y-72067124D01*
X228925920Y-72067133D01*
X228893001Y-72189992D01*
X228893000Y-72190000D01*
X223636497Y-72190000D01*
X216948506Y-65502009D01*
X216930200Y-65457815D01*
X216930200Y-61340249D01*
X216948506Y-61296055D01*
X216961445Y-61286125D01*
X216997731Y-61265176D01*
X217087676Y-61175231D01*
X217151278Y-61065070D01*
X217184200Y-60942201D01*
X217184200Y-60814999D01*
X217151278Y-60692130D01*
X217150683Y-60691100D01*
X217087678Y-60581972D01*
X217087671Y-60581963D01*
X216997736Y-60492028D01*
X216997727Y-60492021D01*
X216887575Y-60428424D01*
X216887566Y-60428420D01*
X216764707Y-60395501D01*
X216764702Y-60395500D01*
X216764701Y-60395500D01*
X216637499Y-60395500D01*
X216637498Y-60395500D01*
X216637492Y-60395501D01*
X216514633Y-60428420D01*
X216514624Y-60428424D01*
X216404472Y-60492021D01*
X216404463Y-60492028D01*
X216314528Y-60581963D01*
X216314521Y-60581972D01*
X216250924Y-60692124D01*
X216250920Y-60692133D01*
X216218001Y-60814992D01*
X216218000Y-60815000D01*
X196261497Y-60815000D01*
X193580875Y-58134378D01*
X193521333Y-58109715D01*
X193521332Y-58109714D01*
X193496672Y-58099500D01*
X193496671Y-58099500D01*
X190775250Y-58099500D01*
X190731056Y-58081194D01*
X190721124Y-58068251D01*
X190700176Y-58031969D01*
X190700171Y-58031963D01*
X190610236Y-57942028D01*
X190610227Y-57942021D01*
X190500075Y-57878424D01*
X190500066Y-57878420D01*
X190377207Y-57845501D01*
X190377202Y-57845500D01*
X190377201Y-57845500D01*
X190249999Y-57845500D01*
X190249998Y-57845500D01*
X190249992Y-57845501D01*
X190127133Y-57878420D01*
X190127124Y-57878424D01*
X190016972Y-57942021D01*
X190016963Y-57942028D01*
X189927028Y-58031963D01*
X189927021Y-58031972D01*
X189863424Y-58142124D01*
X189863420Y-58142133D01*
X189830501Y-58264992D01*
X189830500Y-58265000D01*
X189830500Y-58392199D01*
X189830501Y-58392207D01*
X189863420Y-58515066D01*
X189863424Y-58515075D01*
X189927021Y-58625227D01*
X189927028Y-58625236D01*
X190016963Y-58715171D01*
X190016972Y-58715178D01*
X190127124Y-58778775D01*
X190127127Y-58778776D01*
X190127130Y-58778778D01*
X190127131Y-58778778D01*
X190127133Y-58778779D01*
X190202316Y-58798923D01*
X190249999Y-58811700D01*
X190250000Y-58811700D01*
X190377200Y-58811700D01*
X190377201Y-58811700D01*
X190500070Y-58778778D01*
X190610231Y-58715176D01*
X190700176Y-58625231D01*
X190710452Y-58607432D01*
X190721124Y-58588949D01*
X190759075Y-58559829D01*
X190775250Y-58557700D01*
X193330315Y-58557700D01*
X193374509Y-58576006D01*
X196378694Y-61580191D01*
X196397000Y-61624385D01*
X196397000Y-67320315D01*
X196378694Y-67364509D01*
X193549509Y-70193694D01*
X193505315Y-70212000D01*
X188830529Y-70212000D01*
X188805866Y-70222215D01*
X188805864Y-70222216D01*
X188805863Y-70222215D01*
X188746328Y-70246875D01*
X188746323Y-70246879D01*
X184987009Y-74006194D01*
X184942815Y-74024500D01*
X183212750Y-74024500D01*
X183168556Y-74006194D01*
X183158624Y-73993251D01*
X183137676Y-73956969D01*
X183137671Y-73956963D01*
X183047736Y-73867028D01*
X183047727Y-73867021D01*
X182937575Y-73803424D01*
X182937566Y-73803420D01*
X182814707Y-73770501D01*
X182814702Y-73770500D01*
X182814701Y-73770500D01*
X182687499Y-73770500D01*
X182687498Y-73770500D01*
X182687492Y-73770501D01*
X182564633Y-73803420D01*
X182564624Y-73803424D01*
X182454472Y-73867021D01*
X182454463Y-73867028D01*
X182364528Y-73956963D01*
X182364521Y-73956972D01*
X182300924Y-74067124D01*
X182300920Y-74067133D01*
X182268001Y-74189992D01*
X182268000Y-74190000D01*
X178033000Y-74190000D01*
X178033000Y-70387340D01*
X178051306Y-70343146D01*
X178055165Y-70339649D01*
X178079822Y-70314992D01*
X178149319Y-70245495D01*
X178223036Y-70135169D01*
X178273814Y-70012582D01*
X178299700Y-69882444D01*
X178299700Y-69749756D01*
X178273814Y-69619618D01*
X178223036Y-69497031D01*
X178149319Y-69386705D01*
X178055495Y-69292881D01*
X178055494Y-69292880D01*
X177945171Y-69219165D01*
X177945166Y-69219162D01*
X177822580Y-69168385D01*
X177692444Y-69142500D01*
X177559756Y-69142500D01*
X177429619Y-69168385D01*
X177307033Y-69219162D01*
X177307028Y-69219165D01*
X177196705Y-69292880D01*
X177102880Y-69386705D01*
X177029165Y-69497028D01*
X177029162Y-69497033D01*
X176978385Y-69619619D01*
X176952500Y-69749755D01*
X164321252Y-69749755D01*
X162380875Y-67809378D01*
X162317191Y-67783000D01*
X162317190Y-67782999D01*
X162296673Y-67774500D01*
X162296671Y-67774500D01*
X157434384Y-67774500D01*
X157390190Y-67756194D01*
X156673895Y-67039899D01*
X156655589Y-66995705D01*
X156673894Y-66951512D01*
X156700176Y-66925231D01*
X156763778Y-66815070D01*
X156796700Y-66692201D01*
X156796700Y-66564999D01*
X156772371Y-66474200D01*
X156763779Y-66442133D01*
X156763775Y-66442124D01*
X156700178Y-66331972D01*
X156700171Y-66331963D01*
X156610236Y-66242028D01*
X156610227Y-66242021D01*
X156500075Y-66178424D01*
X156500066Y-66178420D01*
X156377207Y-66145501D01*
X156377202Y-66145500D01*
X156377201Y-66145500D01*
X156249999Y-66145500D01*
X156249998Y-66145500D01*
X156249992Y-66145501D01*
X156127133Y-66178420D01*
X156127124Y-66178424D01*
X156016972Y-66242021D01*
X156016963Y-66242028D01*
X155927028Y-66331963D01*
X155927021Y-66331972D01*
X155863424Y-66442124D01*
X155863420Y-66442133D01*
X155830501Y-66564992D01*
X155830500Y-66565000D01*
X155830500Y-66692199D01*
X155830501Y-66692210D01*
X155831141Y-66694598D01*
X155830978Y-66695833D01*
X155831035Y-66696265D01*
X155830919Y-66696280D01*
X155824894Y-66742024D01*
X155786942Y-66771141D01*
X155754598Y-66771141D01*
X155752210Y-66770501D01*
X155752201Y-66770500D01*
X155624999Y-66770500D01*
X155624998Y-66770500D01*
X155624992Y-66770501D01*
X155502133Y-66803420D01*
X155502124Y-66803424D01*
X155391972Y-66867021D01*
X155391963Y-66867028D01*
X155302028Y-66956963D01*
X155302021Y-66956972D01*
X155238424Y-67067124D01*
X155238420Y-67067133D01*
X155205501Y-67189992D01*
X155205500Y-67190000D01*
X155205500Y-67317199D01*
X155205501Y-67317207D01*
X155238420Y-67440066D01*
X155238424Y-67440075D01*
X155302021Y-67550227D01*
X155302028Y-67550236D01*
X155391963Y-67640171D01*
X155391972Y-67640178D01*
X155502124Y-67703775D01*
X155502127Y-67703776D01*
X155502130Y-67703778D01*
X155502131Y-67703778D01*
X155502133Y-67703779D01*
X155514039Y-67706969D01*
X155624999Y-67736700D01*
X155625000Y-67736700D01*
X155752200Y-67736700D01*
X155752201Y-67736700D01*
X155875070Y-67703778D01*
X155985231Y-67640176D01*
X156042761Y-67582645D01*
X156086954Y-67564340D01*
X156131147Y-67582644D01*
X157058825Y-68510322D01*
X157117369Y-68534571D01*
X157143029Y-68545200D01*
X157143030Y-68545200D01*
X157234170Y-68545200D01*
X162005315Y-68545200D01*
X162049509Y-68563506D01*
X173716309Y-80230306D01*
X173734615Y-80274500D01*
X173716309Y-80318694D01*
X173672115Y-80337000D01*
X172988326Y-80337000D01*
X172904128Y-80371876D01*
X172904123Y-80371880D01*
X170223409Y-83052594D01*
X170179215Y-83070900D01*
X152420784Y-83070900D01*
X152376590Y-83052594D01*
X152363774Y-83039778D01*
X152345468Y-82995584D01*
X152347596Y-82979417D01*
X152352900Y-82959625D01*
X152352900Y-82840375D01*
X152322036Y-82725187D01*
X152322035Y-82725184D01*
X152262410Y-82621913D01*
X152262405Y-82621907D01*
X152178092Y-82537594D01*
X152178086Y-82537589D01*
X152074815Y-82477964D01*
X152074812Y-82477963D01*
X151959631Y-82447101D01*
X151959626Y-82447100D01*
X151959625Y-82447100D01*
X151840375Y-82447100D01*
X151840374Y-82447100D01*
X151840368Y-82447101D01*
X151725187Y-82477963D01*
X151725184Y-82477964D01*
X151621913Y-82537589D01*
X151621907Y-82537594D01*
X151537594Y-82621907D01*
X151537589Y-82621913D01*
X151477964Y-82725184D01*
X151477963Y-82725187D01*
X151447101Y-82840368D01*
X151447100Y-82840376D01*
X150786000Y-82840376D01*
X150786000Y-68919742D01*
X150786000Y-68919739D01*
X150780618Y-68878867D01*
X150772243Y-68847615D01*
X150764245Y-68828307D01*
X150761616Y-68820563D01*
X150740529Y-68741860D01*
X150738400Y-68725685D01*
X150738400Y-68656513D01*
X150740529Y-68640338D01*
X150761617Y-68561632D01*
X150764248Y-68553884D01*
X150772247Y-68534575D01*
X150772249Y-68534571D01*
X150774939Y-68524530D01*
X150780621Y-68503323D01*
X150786000Y-68462459D01*
X150786000Y-61996599D01*
X151444450Y-61996599D01*
X151444451Y-61996600D01*
X152081648Y-61996600D01*
X152056600Y-62090080D01*
X152056600Y-62207120D01*
X152081648Y-62300600D01*
X151444451Y-62300600D01*
X151476065Y-62459539D01*
X151476066Y-62459542D01*
X151556423Y-62653540D01*
X151556424Y-62653542D01*
X151673083Y-62828134D01*
X151821565Y-62976616D01*
X151996157Y-63093275D01*
X151996159Y-63093276D01*
X152190157Y-63173633D01*
X152190160Y-63173634D01*
X152349099Y-63205249D01*
X152349100Y-63205248D01*
X152349100Y-62568052D01*
X152442580Y-62593100D01*
X152559620Y-62593100D01*
X152653100Y-62568052D01*
X152653100Y-63205249D01*
X152812039Y-63173634D01*
X152812042Y-63173633D01*
X153006040Y-63093276D01*
X153006042Y-63093275D01*
X153180634Y-62976616D01*
X153329116Y-62828134D01*
X153445775Y-62653542D01*
X153445776Y-62653540D01*
X153526133Y-62459542D01*
X153526134Y-62459539D01*
X153557749Y-62300600D01*
X152920552Y-62300600D01*
X152945600Y-62207120D01*
X152945600Y-62090080D01*
X152920552Y-61996600D01*
X153557749Y-61996600D01*
X153557749Y-61996599D01*
X153526414Y-61839070D01*
X153526414Y-61839069D01*
X153526133Y-61837657D01*
X153524216Y-61833029D01*
X166459500Y-61833029D01*
X166459500Y-64645530D01*
X166459500Y-64736670D01*
X166473366Y-64770146D01*
X166494378Y-64820875D01*
X167387665Y-65714162D01*
X167405971Y-65758356D01*
X167403842Y-65774530D01*
X167393000Y-65814994D01*
X167393000Y-65942199D01*
X167393001Y-65942207D01*
X167425920Y-66065066D01*
X167425924Y-66065075D01*
X167489521Y-66175227D01*
X167489528Y-66175236D01*
X167579463Y-66265171D01*
X167579472Y-66265178D01*
X167689624Y-66328775D01*
X167689627Y-66328776D01*
X167689630Y-66328778D01*
X167689631Y-66328778D01*
X167689633Y-66328779D01*
X167701539Y-66331969D01*
X167812499Y-66361700D01*
X167812500Y-66361700D01*
X167939700Y-66361700D01*
X167939701Y-66361700D01*
X168062570Y-66328778D01*
X168172731Y-66265176D01*
X168262676Y-66175231D01*
X168326278Y-66065070D01*
X168359200Y-65942201D01*
X168359200Y-65814999D01*
X168326278Y-65692130D01*
X168322926Y-65686325D01*
X168262678Y-65581972D01*
X168262671Y-65581963D01*
X168172736Y-65492028D01*
X168172727Y-65492021D01*
X168062575Y-65428424D01*
X168062566Y-65428420D01*
X167939707Y-65395501D01*
X167939702Y-65395500D01*
X167939701Y-65395500D01*
X167812499Y-65395500D01*
X167812494Y-65395500D01*
X167772030Y-65406342D01*
X167724604Y-65400097D01*
X167711662Y-65390165D01*
X166936006Y-64614509D01*
X166917700Y-64570315D01*
X166917700Y-63160420D01*
X166936006Y-63116226D01*
X166980200Y-63097920D01*
X167024394Y-63116226D01*
X167122507Y-63214339D01*
X167263714Y-63316932D01*
X167419214Y-63396164D01*
X167419216Y-63396165D01*
X167585201Y-63450096D01*
X167585210Y-63450098D01*
X167692849Y-63467147D01*
X167692850Y-63467147D01*
X167692850Y-62845509D01*
X167779024Y-62868600D01*
X167910676Y-62868600D01*
X167996850Y-62845509D01*
X167996850Y-63467147D01*
X168104489Y-63450098D01*
X168104498Y-63450096D01*
X168270483Y-63396165D01*
X168270485Y-63396164D01*
X168425985Y-63316932D01*
X168567192Y-63214339D01*
X168690589Y-63090942D01*
X168793182Y-62949735D01*
X168872414Y-62794235D01*
X168872415Y-62794233D01*
X168926346Y-62628248D01*
X168926348Y-62628239D01*
X168943397Y-62520600D01*
X168321759Y-62520600D01*
X168344850Y-62434426D01*
X168344850Y-62302774D01*
X168337213Y-62274274D01*
X169387150Y-62274274D01*
X169387150Y-62462925D01*
X169423953Y-62647949D01*
X169423953Y-62647950D01*
X169496147Y-62822241D01*
X169496148Y-62822243D01*
X169600955Y-62979097D01*
X169734352Y-63112494D01*
X169873167Y-63205248D01*
X169891209Y-63217303D01*
X170065499Y-63289496D01*
X170250525Y-63326300D01*
X170439175Y-63326300D01*
X170624201Y-63289496D01*
X170798491Y-63217303D01*
X170798501Y-63217296D01*
X170801199Y-63215855D01*
X170801651Y-63216702D01*
X170816312Y-63213780D01*
X170833166Y-63206800D01*
X170839071Y-63209246D01*
X170845340Y-63207997D01*
X170877359Y-63225104D01*
X170936312Y-63284056D01*
X170954618Y-63328249D01*
X170954618Y-65069571D01*
X170954618Y-65160711D01*
X170989496Y-65244916D01*
X173309803Y-67565222D01*
X173369344Y-67589884D01*
X173394007Y-67600100D01*
X173394008Y-67600100D01*
X173485148Y-67600100D01*
X189393715Y-67600100D01*
X189437909Y-67618406D01*
X189762665Y-67943162D01*
X189780971Y-67987356D01*
X189778842Y-68003530D01*
X189768000Y-68043994D01*
X189768000Y-68171199D01*
X189768001Y-68171207D01*
X189800920Y-68294066D01*
X189800924Y-68294075D01*
X189864521Y-68404227D01*
X189864528Y-68404236D01*
X189954463Y-68494171D01*
X189954472Y-68494178D01*
X190064624Y-68557775D01*
X190064627Y-68557776D01*
X190064630Y-68557778D01*
X190064631Y-68557778D01*
X190064633Y-68557779D01*
X190139816Y-68577923D01*
X190187499Y-68590700D01*
X190187500Y-68590700D01*
X190314700Y-68590700D01*
X190314701Y-68590700D01*
X190437570Y-68557778D01*
X190547731Y-68494176D01*
X190637676Y-68404231D01*
X190701278Y-68294070D01*
X190734200Y-68171201D01*
X190734200Y-68043999D01*
X190701278Y-67921130D01*
X190692331Y-67905634D01*
X190637678Y-67810972D01*
X190637671Y-67810963D01*
X190547736Y-67721028D01*
X190547727Y-67721021D01*
X190437575Y-67657424D01*
X190437566Y-67657420D01*
X190314707Y-67624501D01*
X190314702Y-67624500D01*
X190314701Y-67624500D01*
X190187499Y-67624500D01*
X190187494Y-67624500D01*
X190147030Y-67635342D01*
X190099604Y-67629097D01*
X190086662Y-67619165D01*
X189730290Y-67262793D01*
X189711984Y-67218599D01*
X189730289Y-67174406D01*
X190086663Y-66818032D01*
X190130856Y-66799727D01*
X190147030Y-66801856D01*
X190165170Y-66806717D01*
X190187494Y-66812699D01*
X190187497Y-66812699D01*
X190187499Y-66812700D01*
X190187500Y-66812700D01*
X190314700Y-66812700D01*
X190314701Y-66812700D01*
X190437570Y-66779778D01*
X190547731Y-66716176D01*
X190637676Y-66626231D01*
X190701278Y-66516070D01*
X190734200Y-66393201D01*
X190734200Y-66265999D01*
X190701278Y-66143130D01*
X190656207Y-66065066D01*
X190637678Y-66032972D01*
X190637671Y-66032963D01*
X190547736Y-65943028D01*
X190547727Y-65943021D01*
X190437575Y-65879424D01*
X190437566Y-65879420D01*
X190314707Y-65846501D01*
X190314702Y-65846500D01*
X190314701Y-65846500D01*
X190187499Y-65846500D01*
X190187498Y-65846500D01*
X190187492Y-65846501D01*
X190064633Y-65879420D01*
X190064624Y-65879424D01*
X189954472Y-65943021D01*
X189954463Y-65943028D01*
X189864528Y-66032963D01*
X189864521Y-66032972D01*
X189800924Y-66143124D01*
X189800920Y-66143133D01*
X189768001Y-66265992D01*
X189768000Y-66266000D01*
X189768000Y-66393202D01*
X189778842Y-66433667D01*
X189772597Y-66481093D01*
X189762665Y-66494036D01*
X189437909Y-66818794D01*
X189393715Y-66837100D01*
X173720619Y-66837100D01*
X173676425Y-66818794D01*
X171753390Y-64895759D01*
X171735084Y-64851565D01*
X171735084Y-63328250D01*
X171753388Y-63284057D01*
X171812340Y-63225105D01*
X171856531Y-63206801D01*
X171888206Y-63216408D01*
X171888502Y-63215856D01*
X171891205Y-63217300D01*
X171891209Y-63217303D01*
X172065499Y-63289496D01*
X172250525Y-63326300D01*
X172439175Y-63326300D01*
X172624201Y-63289496D01*
X172798491Y-63217303D01*
X172955348Y-63112494D01*
X173088744Y-62979098D01*
X173193553Y-62822241D01*
X173265746Y-62647951D01*
X173302550Y-62462925D01*
X173302550Y-62274275D01*
X173265746Y-62089249D01*
X173193553Y-61914959D01*
X173088744Y-61758102D01*
X172955348Y-61624706D01*
X172954868Y-61624385D01*
X172798493Y-61519898D01*
X172798491Y-61519897D01*
X172624199Y-61447703D01*
X172439175Y-61410900D01*
X172250525Y-61410900D01*
X172065500Y-61447703D01*
X172065499Y-61447703D01*
X171891208Y-61519897D01*
X171891206Y-61519898D01*
X171734352Y-61624705D01*
X171600955Y-61758102D01*
X171496148Y-61914956D01*
X171496147Y-61914958D01*
X171423953Y-62089249D01*
X171423953Y-62089250D01*
X171406149Y-62178760D01*
X171379573Y-62218534D01*
X171332657Y-62227866D01*
X171292883Y-62201290D01*
X171283551Y-62178760D01*
X171273792Y-62129699D01*
X171265746Y-62089249D01*
X171193553Y-61914959D01*
X171088744Y-61758102D01*
X170955348Y-61624706D01*
X170954868Y-61624385D01*
X170798493Y-61519898D01*
X170798491Y-61519897D01*
X170624199Y-61447703D01*
X170439175Y-61410900D01*
X170250525Y-61410900D01*
X170065500Y-61447703D01*
X170065499Y-61447703D01*
X169891208Y-61519897D01*
X169891206Y-61519898D01*
X169734352Y-61624705D01*
X169600955Y-61758102D01*
X169496148Y-61914956D01*
X169496147Y-61914958D01*
X169423953Y-62089249D01*
X169423953Y-62089250D01*
X169387150Y-62274274D01*
X168337213Y-62274274D01*
X168321759Y-62216600D01*
X168943397Y-62216600D01*
X168943397Y-62216599D01*
X168926348Y-62108960D01*
X168926346Y-62108951D01*
X168872415Y-61942966D01*
X168872414Y-61942964D01*
X168793182Y-61787464D01*
X168690589Y-61646257D01*
X168567192Y-61522860D01*
X168425985Y-61420267D01*
X168270485Y-61341035D01*
X168270483Y-61341034D01*
X168104493Y-61287101D01*
X168104494Y-61287101D01*
X167996850Y-61270051D01*
X167996850Y-61891690D01*
X167910676Y-61868600D01*
X167779024Y-61868600D01*
X167692850Y-61891690D01*
X167692850Y-61255934D01*
X167683870Y-61238311D01*
X167698650Y-61192816D01*
X167701958Y-61189237D01*
X168515190Y-60376006D01*
X168559384Y-60357700D01*
X174005315Y-60357700D01*
X174049509Y-60376006D01*
X174528579Y-60855076D01*
X174977710Y-61304206D01*
X174996016Y-61348400D01*
X174977710Y-61392594D01*
X174933516Y-61410900D01*
X174750525Y-61410900D01*
X174565500Y-61447703D01*
X174565499Y-61447703D01*
X174391208Y-61519897D01*
X174391206Y-61519898D01*
X174234352Y-61624705D01*
X174100955Y-61758102D01*
X173996148Y-61914956D01*
X173996147Y-61914958D01*
X173923953Y-62089249D01*
X173923953Y-62089250D01*
X173887150Y-62274274D01*
X173887150Y-62462925D01*
X173923953Y-62647949D01*
X173923953Y-62647950D01*
X173996147Y-62822241D01*
X173996148Y-62822243D01*
X174100955Y-62979097D01*
X174234352Y-63112494D01*
X174373167Y-63205248D01*
X174391209Y-63217303D01*
X174565499Y-63289496D01*
X174750525Y-63326300D01*
X174939175Y-63326300D01*
X175124201Y-63289496D01*
X175298491Y-63217303D01*
X175455348Y-63112494D01*
X175588744Y-62979098D01*
X175693553Y-62822241D01*
X175765746Y-62647951D01*
X175802550Y-62462925D01*
X175802550Y-62279934D01*
X175820856Y-62235740D01*
X175865050Y-62217434D01*
X175909244Y-62235740D01*
X176433826Y-62760322D01*
X176473671Y-62776826D01*
X176518029Y-62795200D01*
X179359171Y-62795200D01*
X179383831Y-62784985D01*
X179383833Y-62784984D01*
X179443375Y-62760322D01*
X181087690Y-61116005D01*
X181131884Y-61097700D01*
X189851950Y-61097700D01*
X189896144Y-61116006D01*
X189906076Y-61128949D01*
X189927023Y-61165230D01*
X189927028Y-61165236D01*
X190016963Y-61255171D01*
X190016972Y-61255178D01*
X190127124Y-61318775D01*
X190127127Y-61318776D01*
X190127130Y-61318778D01*
X190127131Y-61318778D01*
X190127133Y-61318779D01*
X190202316Y-61338923D01*
X190249999Y-61351700D01*
X190250000Y-61351700D01*
X190377200Y-61351700D01*
X190377201Y-61351700D01*
X190500070Y-61318778D01*
X190610231Y-61255176D01*
X190700176Y-61165231D01*
X190763778Y-61055070D01*
X190796700Y-60932201D01*
X190796700Y-60804999D01*
X190779467Y-60740684D01*
X190763779Y-60682133D01*
X190763775Y-60682124D01*
X190700178Y-60571972D01*
X190700171Y-60571963D01*
X190610236Y-60482028D01*
X190610227Y-60482021D01*
X190500075Y-60418424D01*
X190500066Y-60418420D01*
X190377207Y-60385501D01*
X190377202Y-60385500D01*
X190377201Y-60385500D01*
X190249999Y-60385500D01*
X190249998Y-60385500D01*
X190249992Y-60385501D01*
X190127133Y-60418420D01*
X190127124Y-60418424D01*
X190016972Y-60482021D01*
X190016963Y-60482028D01*
X189927028Y-60571963D01*
X189927023Y-60571969D01*
X189906076Y-60608251D01*
X189868125Y-60637371D01*
X189851950Y-60639500D01*
X180965529Y-60639500D01*
X180930650Y-60653947D01*
X180930649Y-60653946D01*
X180881329Y-60674375D01*
X180881324Y-60674379D01*
X179237009Y-62318694D01*
X179192815Y-62337000D01*
X176684384Y-62337000D01*
X176640190Y-62318694D01*
X175452690Y-61131194D01*
X174255875Y-59934378D01*
X174177286Y-59901826D01*
X174171671Y-59899500D01*
X168393029Y-59899500D01*
X168387414Y-59901826D01*
X168387414Y-59901825D01*
X168308829Y-59934375D01*
X168308824Y-59934379D01*
X166494379Y-61748824D01*
X166494378Y-61748824D01*
X166485829Y-61769465D01*
X166476133Y-61792874D01*
X166459500Y-61833029D01*
X153524216Y-61833029D01*
X153445776Y-61643659D01*
X153445775Y-61643657D01*
X153329116Y-61469065D01*
X153180634Y-61320583D01*
X153006042Y-61203924D01*
X153006040Y-61203923D01*
X152812039Y-61123565D01*
X152653100Y-61091950D01*
X152653100Y-61729147D01*
X152559620Y-61704100D01*
X152442580Y-61704100D01*
X152349100Y-61729147D01*
X152349100Y-61091950D01*
X152349099Y-61091950D01*
X152190160Y-61123565D01*
X152190159Y-61123565D01*
X151996159Y-61203923D01*
X151996157Y-61203924D01*
X151821565Y-61320583D01*
X151673083Y-61469065D01*
X151556424Y-61643657D01*
X151556423Y-61643659D01*
X151476066Y-61837657D01*
X151476065Y-61837660D01*
X151444450Y-61996599D01*
X150786000Y-61996599D01*
X150786000Y-61395896D01*
X150804306Y-61351702D01*
X151300942Y-60855066D01*
X151833272Y-60322735D01*
X151877465Y-60304430D01*
X151915097Y-60317893D01*
X151915332Y-60317543D01*
X151916732Y-60318478D01*
X151917113Y-60318615D01*
X151917881Y-60319245D01*
X151917885Y-60319249D01*
X152067732Y-60419374D01*
X152234233Y-60488341D01*
X152410990Y-60523500D01*
X152591210Y-60523500D01*
X152767967Y-60488341D01*
X152934468Y-60419374D01*
X153084315Y-60319249D01*
X153211749Y-60191815D01*
X153311874Y-60041968D01*
X153380841Y-59875467D01*
X153416000Y-59698710D01*
X153416000Y-59599400D01*
X153434306Y-59555206D01*
X153478500Y-59536900D01*
X155027816Y-59536900D01*
X155027817Y-59536900D01*
X155088243Y-59524880D01*
X155132437Y-59506574D01*
X155183663Y-59472346D01*
X158221446Y-56434563D01*
X158255674Y-56383337D01*
X158273980Y-56339143D01*
X158286000Y-56278717D01*
X158286000Y-53895898D01*
X158304306Y-53851704D01*
X160100804Y-52055206D01*
X160144998Y-52036900D01*
X161388452Y-52036900D01*
X161432646Y-52055206D01*
X162166644Y-52789204D01*
X162184950Y-52833398D01*
X162184950Y-59778716D01*
X162184949Y-59778716D01*
X162196969Y-59839142D01*
X162207964Y-59865684D01*
X162215276Y-59883337D01*
X162215277Y-59883338D01*
X162249379Y-59934377D01*
X162249504Y-59934563D01*
X162599787Y-60284846D01*
X162651013Y-60319074D01*
X162695207Y-60337380D01*
X162755633Y-60349400D01*
X162755634Y-60349400D01*
X162805004Y-60349400D01*
X162806355Y-60349311D01*
X162825617Y-60348049D01*
X162841793Y-60345919D01*
X162841795Y-60345918D01*
X162841799Y-60345915D01*
X162842368Y-60345742D01*
X162843838Y-60345072D01*
X162869118Y-60334599D01*
X162872139Y-60334598D01*
X162894541Y-60325320D01*
X162894542Y-60325321D01*
X162909616Y-60319078D01*
X162945336Y-60298453D01*
X162952789Y-60288735D01*
X162958186Y-60282582D01*
X162973411Y-60267359D01*
X163017605Y-60249057D01*
X163061798Y-60267366D01*
X163075343Y-60287639D01*
X163147215Y-60461153D01*
X163147217Y-60461156D01*
X163147218Y-60461159D01*
X163159267Y-60482028D01*
X163250573Y-60640176D01*
X163265911Y-60666741D01*
X163323679Y-60742026D01*
X163392696Y-60831972D01*
X163410422Y-60855072D01*
X163578278Y-61022928D01*
X163766609Y-61167439D01*
X163972191Y-61286132D01*
X164191506Y-61376976D01*
X164191510Y-61376977D01*
X164420798Y-61438414D01*
X164420800Y-61438414D01*
X164420803Y-61438415D01*
X164656157Y-61469400D01*
X164656163Y-61469400D01*
X164893537Y-61469400D01*
X164893543Y-61469400D01*
X165128897Y-61438415D01*
X165128901Y-61438414D01*
X165128902Y-61438414D01*
X165231586Y-61410900D01*
X165358194Y-61376976D01*
X165577509Y-61286132D01*
X165783091Y-61167439D01*
X165971422Y-61022928D01*
X166139278Y-60855072D01*
X166283789Y-60666741D01*
X166402482Y-60461159D01*
X166473411Y-60289921D01*
X166507233Y-60256101D01*
X166555069Y-60256100D01*
X166569616Y-60266523D01*
X166570349Y-60265569D01*
X166575230Y-60269314D01*
X166575232Y-60269317D01*
X166640077Y-60319074D01*
X166640078Y-60319074D01*
X166640079Y-60319075D01*
X166640499Y-60319249D01*
X166684271Y-60337380D01*
X166744697Y-60349400D01*
X166744698Y-60349400D01*
X166809066Y-60349400D01*
X166809067Y-60349400D01*
X166869493Y-60337380D01*
X166913687Y-60319074D01*
X166964913Y-60284846D01*
X167315196Y-59934563D01*
X167349424Y-59883337D01*
X167367730Y-59839143D01*
X167379750Y-59778717D01*
X167379750Y-52833398D01*
X167398056Y-52789204D01*
X168132054Y-52055206D01*
X168176248Y-52036900D01*
X174513452Y-52036900D01*
X174557646Y-52055206D01*
X175291644Y-52789204D01*
X175309950Y-52833398D01*
X175309950Y-59778716D01*
X175309949Y-59778716D01*
X175321969Y-59839142D01*
X175332964Y-59865684D01*
X175340276Y-59883337D01*
X175340277Y-59883338D01*
X175374379Y-59934377D01*
X175374504Y-59934563D01*
X175724787Y-60284846D01*
X175776013Y-60319074D01*
X175820207Y-60337380D01*
X175880633Y-60349400D01*
X175880634Y-60349400D01*
X175945004Y-60349400D01*
X175946355Y-60349311D01*
X175965617Y-60348049D01*
X175981793Y-60345919D01*
X175981795Y-60345918D01*
X175981799Y-60345915D01*
X175982368Y-60345742D01*
X175983838Y-60345072D01*
X176009118Y-60334599D01*
X176012139Y-60334598D01*
X176034541Y-60325320D01*
X176034542Y-60325321D01*
X176049616Y-60319078D01*
X176085336Y-60298453D01*
X176092789Y-60288735D01*
X176098186Y-60282582D01*
X176113411Y-60267359D01*
X176157605Y-60249057D01*
X176201798Y-60267366D01*
X176215343Y-60287639D01*
X176287215Y-60461153D01*
X176287217Y-60461156D01*
X176287218Y-60461159D01*
X176299267Y-60482028D01*
X176390573Y-60640176D01*
X176405911Y-60666741D01*
X176463679Y-60742026D01*
X176532696Y-60831972D01*
X176550422Y-60855072D01*
X176718278Y-61022928D01*
X176906609Y-61167439D01*
X177112191Y-61286132D01*
X177331506Y-61376976D01*
X177331510Y-61376977D01*
X177560798Y-61438414D01*
X177560800Y-61438414D01*
X177560803Y-61438415D01*
X177796157Y-61469400D01*
X177796163Y-61469400D01*
X178033537Y-61469400D01*
X178033543Y-61469400D01*
X178268897Y-61438415D01*
X178268901Y-61438414D01*
X178268902Y-61438414D01*
X178371586Y-61410900D01*
X178498194Y-61376976D01*
X178717509Y-61286132D01*
X178923091Y-61167439D01*
X179111422Y-61022928D01*
X179279278Y-60855072D01*
X179423789Y-60666741D01*
X179542482Y-60461159D01*
X179613411Y-60289921D01*
X179647233Y-60256101D01*
X179695069Y-60256100D01*
X179709616Y-60266523D01*
X179710349Y-60265569D01*
X179715230Y-60269314D01*
X179715232Y-60269317D01*
X179780077Y-60319074D01*
X179780078Y-60319074D01*
X179780079Y-60319075D01*
X179780499Y-60319249D01*
X179824271Y-60337380D01*
X179884697Y-60349400D01*
X179884698Y-60349400D01*
X179934066Y-60349400D01*
X179934067Y-60349400D01*
X179994493Y-60337380D01*
X180038687Y-60319074D01*
X180089913Y-60284846D01*
X180440196Y-59934563D01*
X180474424Y-59883337D01*
X180492730Y-59839143D01*
X180504750Y-59778717D01*
X180504750Y-57190000D01*
X222643000Y-57190000D01*
X222643000Y-57317199D01*
X222643001Y-57317207D01*
X222675920Y-57440066D01*
X222675924Y-57440075D01*
X222739521Y-57550227D01*
X222739528Y-57550236D01*
X222829463Y-57640171D01*
X222829472Y-57640178D01*
X222939624Y-57703775D01*
X222939627Y-57703776D01*
X222939630Y-57703778D01*
X222939631Y-57703778D01*
X222939633Y-57703779D01*
X222987177Y-57716518D01*
X223062499Y-57736700D01*
X223062500Y-57736700D01*
X223189700Y-57736700D01*
X223189701Y-57736700D01*
X223230166Y-57725857D01*
X223277591Y-57732100D01*
X223290536Y-57742033D01*
X224066194Y-58517690D01*
X224084500Y-58561884D01*
X224084500Y-67804450D01*
X224066194Y-67848644D01*
X224053251Y-67858576D01*
X224016969Y-67879523D01*
X224016963Y-67879528D01*
X223927028Y-67969463D01*
X223927021Y-67969472D01*
X223863424Y-68079624D01*
X223863420Y-68079633D01*
X223830501Y-68202492D01*
X223830500Y-68202500D01*
X223830500Y-68329699D01*
X223830501Y-68329707D01*
X223863420Y-68452566D01*
X223863424Y-68452575D01*
X223927021Y-68562727D01*
X223927028Y-68562736D01*
X224016963Y-68652671D01*
X224016972Y-68652678D01*
X224127124Y-68716275D01*
X224127127Y-68716276D01*
X224127130Y-68716278D01*
X224127131Y-68716278D01*
X224127133Y-68716279D01*
X224162238Y-68725685D01*
X224249999Y-68749200D01*
X224250000Y-68749200D01*
X224377200Y-68749200D01*
X224377201Y-68749200D01*
X224500070Y-68716278D01*
X224610231Y-68652676D01*
X224700176Y-68562731D01*
X224763778Y-68452570D01*
X224796700Y-68329701D01*
X224796700Y-68202499D01*
X224763778Y-68079630D01*
X224743206Y-68043999D01*
X224700178Y-67969472D01*
X224700171Y-67969463D01*
X224610236Y-67879528D01*
X224610230Y-67879523D01*
X224573949Y-67858576D01*
X224544829Y-67820625D01*
X224542700Y-67804450D01*
X224542700Y-59315000D01*
X225830500Y-59315000D01*
X225830500Y-59442199D01*
X225830501Y-59442207D01*
X225863420Y-59565066D01*
X225863424Y-59565075D01*
X225927021Y-59675227D01*
X225927028Y-59675236D01*
X226016965Y-59765173D01*
X226018715Y-59766516D01*
X226019270Y-59767478D01*
X226019865Y-59768073D01*
X226019705Y-59768232D01*
X226042632Y-59807944D01*
X226030250Y-59854149D01*
X226018715Y-59865684D01*
X226016965Y-59867026D01*
X225927028Y-59956963D01*
X225927021Y-59956972D01*
X225863424Y-60067124D01*
X225863420Y-60067133D01*
X225830501Y-60189992D01*
X225830500Y-60190000D01*
X225830500Y-60317199D01*
X225830501Y-60317207D01*
X225863420Y-60440066D01*
X225863424Y-60440075D01*
X225927021Y-60550227D01*
X225927028Y-60550236D01*
X226016965Y-60640173D01*
X226018715Y-60641516D01*
X226019270Y-60642478D01*
X226019865Y-60643073D01*
X226019705Y-60643232D01*
X226042632Y-60682944D01*
X226030250Y-60729149D01*
X226018715Y-60740684D01*
X226016965Y-60742026D01*
X225927028Y-60831963D01*
X225927021Y-60831972D01*
X225863424Y-60942124D01*
X225863420Y-60942133D01*
X225830501Y-61064992D01*
X225830500Y-61065000D01*
X225830500Y-61192199D01*
X225830501Y-61192207D01*
X225863420Y-61315066D01*
X225863424Y-61315075D01*
X225927021Y-61425227D01*
X225927028Y-61425236D01*
X226016965Y-61515173D01*
X226018715Y-61516516D01*
X226019270Y-61517478D01*
X226019865Y-61518073D01*
X226019705Y-61518232D01*
X226042632Y-61557944D01*
X226030250Y-61604149D01*
X226018715Y-61615684D01*
X226016965Y-61617026D01*
X225927028Y-61706963D01*
X225927021Y-61706972D01*
X225863424Y-61817124D01*
X225863420Y-61817133D01*
X225830501Y-61939992D01*
X225830500Y-61940000D01*
X225830500Y-62067199D01*
X225830501Y-62067207D01*
X225863420Y-62190066D01*
X225863424Y-62190075D01*
X225927021Y-62300227D01*
X225927028Y-62300236D01*
X226016963Y-62390171D01*
X226016972Y-62390178D01*
X226127124Y-62453775D01*
X226127127Y-62453776D01*
X226127130Y-62453778D01*
X226127131Y-62453778D01*
X226127133Y-62453779D01*
X226202316Y-62473923D01*
X226249999Y-62486700D01*
X226250000Y-62486700D01*
X226377200Y-62486700D01*
X226377201Y-62486700D01*
X226500070Y-62453778D01*
X226610231Y-62390176D01*
X226700176Y-62300231D01*
X226710452Y-62282432D01*
X226721124Y-62263949D01*
X226759075Y-62234829D01*
X226775250Y-62232700D01*
X238692815Y-62232700D01*
X238737009Y-62251006D01*
X239996325Y-63510322D01*
X240055866Y-63534984D01*
X240080529Y-63545200D01*
X240080530Y-63545200D01*
X240171670Y-63545200D01*
X243317815Y-63545200D01*
X243362009Y-63563506D01*
X243816194Y-64017690D01*
X243834500Y-64061884D01*
X243834500Y-64645530D01*
X243834500Y-64736670D01*
X243869378Y-64820875D01*
X244246326Y-65197822D01*
X244295651Y-65218252D01*
X244330529Y-65232700D01*
X244330530Y-65232700D01*
X244421670Y-65232700D01*
X244661565Y-65232700D01*
X244705759Y-65251006D01*
X244941194Y-65486441D01*
X244959500Y-65530635D01*
X244959500Y-67101565D01*
X244941194Y-67145759D01*
X244744379Y-67342573D01*
X244744377Y-67342576D01*
X244719836Y-67401826D01*
X244719836Y-67401827D01*
X244709500Y-67426780D01*
X244709500Y-68111670D01*
X244717547Y-68131097D01*
X244717548Y-68131100D01*
X244744378Y-68195875D01*
X245012665Y-68464162D01*
X245030971Y-68508356D01*
X245028842Y-68524530D01*
X245018000Y-68564994D01*
X245018000Y-68692199D01*
X245018001Y-68692207D01*
X245050920Y-68815066D01*
X245050924Y-68815075D01*
X245114521Y-68925227D01*
X245114528Y-68925236D01*
X245204463Y-69015171D01*
X245204472Y-69015178D01*
X245314624Y-69078775D01*
X245314627Y-69078776D01*
X245314630Y-69078778D01*
X245314631Y-69078778D01*
X245314633Y-69078779D01*
X245388220Y-69098496D01*
X245437499Y-69111700D01*
X245437500Y-69111700D01*
X245564700Y-69111700D01*
X245564701Y-69111700D01*
X245687570Y-69078778D01*
X245740750Y-69048073D01*
X245788175Y-69041829D01*
X245826126Y-69070949D01*
X245834500Y-69102200D01*
X245834500Y-70749173D01*
X245841128Y-70765172D01*
X245841128Y-70765176D01*
X245841130Y-70765176D01*
X245869378Y-70833375D01*
X246062665Y-71026662D01*
X246080971Y-71070856D01*
X246078842Y-71087030D01*
X246068000Y-71127494D01*
X246068000Y-71254699D01*
X246068001Y-71254707D01*
X246100920Y-71377566D01*
X246100924Y-71377575D01*
X246164521Y-71487727D01*
X246164528Y-71487736D01*
X246254463Y-71577671D01*
X246254472Y-71577678D01*
X246364624Y-71641275D01*
X246364627Y-71641276D01*
X246364630Y-71641278D01*
X246364631Y-71641278D01*
X246364633Y-71641279D01*
X246429662Y-71658703D01*
X246487499Y-71674200D01*
X246487500Y-71674200D01*
X246614700Y-71674200D01*
X246614701Y-71674200D01*
X246737570Y-71641278D01*
X246847731Y-71577676D01*
X246937676Y-71487731D01*
X247001278Y-71377570D01*
X247034200Y-71254701D01*
X247034200Y-71127499D01*
X247001278Y-71004630D01*
X246983237Y-70973383D01*
X246937678Y-70894472D01*
X246937671Y-70894463D01*
X246847736Y-70804528D01*
X246847727Y-70804521D01*
X246737575Y-70740924D01*
X246737566Y-70740920D01*
X246614707Y-70708001D01*
X246614702Y-70708000D01*
X246614701Y-70708000D01*
X246487499Y-70708000D01*
X246487494Y-70708000D01*
X246447030Y-70718842D01*
X246438657Y-70717739D01*
X246430856Y-70720971D01*
X246415782Y-70714727D01*
X246399604Y-70712597D01*
X246386662Y-70702665D01*
X246311006Y-70627009D01*
X246292700Y-70582815D01*
X246292700Y-67770084D01*
X246311006Y-67725890D01*
X246355200Y-67707584D01*
X246399394Y-67725890D01*
X247753694Y-69080190D01*
X247772000Y-69124384D01*
X247772000Y-69916950D01*
X247753694Y-69961144D01*
X247740751Y-69971076D01*
X247704469Y-69992023D01*
X247704463Y-69992028D01*
X247614528Y-70081963D01*
X247614521Y-70081972D01*
X247550924Y-70192124D01*
X247550920Y-70192133D01*
X247518001Y-70314992D01*
X247518000Y-70315000D01*
X247518000Y-70442199D01*
X247518001Y-70442207D01*
X247550920Y-70565066D01*
X247550924Y-70565075D01*
X247614521Y-70675227D01*
X247614528Y-70675236D01*
X247704463Y-70765171D01*
X247704472Y-70765178D01*
X247814624Y-70828775D01*
X247814627Y-70828776D01*
X247814630Y-70828778D01*
X247814631Y-70828778D01*
X247814633Y-70828779D01*
X247889816Y-70848923D01*
X247937499Y-70861700D01*
X247937500Y-70861700D01*
X248064700Y-70861700D01*
X248064701Y-70861700D01*
X248187570Y-70828778D01*
X248297731Y-70765176D01*
X248387676Y-70675231D01*
X248451278Y-70565070D01*
X248484200Y-70442201D01*
X248484200Y-70314999D01*
X248451278Y-70192130D01*
X248418392Y-70135171D01*
X248387678Y-70081972D01*
X248387671Y-70081963D01*
X248297736Y-69992028D01*
X248297730Y-69992023D01*
X248261449Y-69971076D01*
X248232329Y-69933125D01*
X248230200Y-69916950D01*
X248230200Y-68958029D01*
X248230199Y-68958026D01*
X248195323Y-68873828D01*
X248195319Y-68873823D01*
X248130875Y-68809379D01*
X246373506Y-67052009D01*
X246355200Y-67007815D01*
X246355200Y-64986700D01*
X246373506Y-64942506D01*
X246417700Y-64924200D01*
X246439700Y-64924200D01*
X246439701Y-64924200D01*
X246562570Y-64891278D01*
X246672731Y-64827676D01*
X246762676Y-64737731D01*
X246826278Y-64627570D01*
X246859200Y-64504701D01*
X246859200Y-64377499D01*
X246826278Y-64254630D01*
X246821802Y-64246878D01*
X246762678Y-64144472D01*
X246762671Y-64144463D01*
X246672736Y-64054528D01*
X246672727Y-64054521D01*
X246562575Y-63990924D01*
X246562566Y-63990920D01*
X246439707Y-63958001D01*
X246439702Y-63958000D01*
X246439701Y-63958000D01*
X246439700Y-63958000D01*
X246417700Y-63958000D01*
X246373506Y-63939694D01*
X246355200Y-63895500D01*
X246355200Y-63770529D01*
X246355199Y-63770526D01*
X246320323Y-63686328D01*
X246320319Y-63686323D01*
X246255875Y-63621879D01*
X244410891Y-61776894D01*
X244392585Y-61732700D01*
X244410891Y-61688506D01*
X244455085Y-61670200D01*
X246089450Y-61670200D01*
X246133644Y-61688506D01*
X246143576Y-61701449D01*
X246164523Y-61737730D01*
X246164528Y-61737736D01*
X246254463Y-61827671D01*
X246254472Y-61827678D01*
X246364624Y-61891275D01*
X246364627Y-61891276D01*
X246364630Y-61891278D01*
X246364631Y-61891278D01*
X246364633Y-61891279D01*
X246407165Y-61902675D01*
X246487499Y-61924200D01*
X246487500Y-61924200D01*
X246614700Y-61924200D01*
X246614701Y-61924200D01*
X246737570Y-61891278D01*
X246847731Y-61827676D01*
X246937676Y-61737731D01*
X247001278Y-61627570D01*
X247034200Y-61504701D01*
X247034200Y-61377499D01*
X247013952Y-61301930D01*
X247001279Y-61254633D01*
X247001275Y-61254624D01*
X246937678Y-61144472D01*
X246937671Y-61144463D01*
X246847736Y-61054528D01*
X246847727Y-61054521D01*
X246737575Y-60990924D01*
X246737566Y-60990920D01*
X246614707Y-60958001D01*
X246614702Y-60958000D01*
X246614701Y-60958000D01*
X246487499Y-60958000D01*
X246487498Y-60958000D01*
X246487492Y-60958001D01*
X246364633Y-60990920D01*
X246364624Y-60990924D01*
X246254472Y-61054521D01*
X246254463Y-61054528D01*
X246164528Y-61144463D01*
X246164523Y-61144469D01*
X246143576Y-61180751D01*
X246105625Y-61209871D01*
X246089450Y-61212000D01*
X240996885Y-61212000D01*
X240952691Y-61193694D01*
X239693376Y-59934379D01*
X239693375Y-59934378D01*
X239614786Y-59901826D01*
X239609171Y-59899500D01*
X229809385Y-59899500D01*
X229765191Y-59881194D01*
X229427033Y-59543036D01*
X229408727Y-59498842D01*
X229410856Y-59482670D01*
X229421700Y-59442201D01*
X229421700Y-59314999D01*
X229388778Y-59192130D01*
X229326504Y-59084270D01*
X229325178Y-59081972D01*
X229325171Y-59081963D01*
X229235236Y-58992028D01*
X229235227Y-58992021D01*
X229125075Y-58928424D01*
X229125066Y-58928420D01*
X229002207Y-58895501D01*
X229002202Y-58895500D01*
X229002201Y-58895500D01*
X228874999Y-58895500D01*
X228874998Y-58895500D01*
X228874992Y-58895501D01*
X228752133Y-58928420D01*
X228752124Y-58928424D01*
X228641972Y-58992021D01*
X228641963Y-58992028D01*
X228552026Y-59081965D01*
X228550684Y-59083715D01*
X228549721Y-59084270D01*
X228549127Y-59084865D01*
X228548967Y-59084705D01*
X228509256Y-59107632D01*
X228463051Y-59095250D01*
X228451516Y-59083715D01*
X228450173Y-59081965D01*
X228360236Y-58992028D01*
X228360227Y-58992021D01*
X228250075Y-58928424D01*
X228250066Y-58928420D01*
X228127207Y-58895501D01*
X228127202Y-58895500D01*
X228127201Y-58895500D01*
X227999999Y-58895500D01*
X227999998Y-58895500D01*
X227999992Y-58895501D01*
X227877133Y-58928420D01*
X227877124Y-58928424D01*
X227766972Y-58992021D01*
X227766963Y-58992028D01*
X227677026Y-59081965D01*
X227675684Y-59083715D01*
X227674721Y-59084270D01*
X227674127Y-59084865D01*
X227673967Y-59084705D01*
X227634256Y-59107632D01*
X227588051Y-59095250D01*
X227576516Y-59083715D01*
X227575173Y-59081965D01*
X227485236Y-58992028D01*
X227485227Y-58992021D01*
X227375075Y-58928424D01*
X227375066Y-58928420D01*
X227252207Y-58895501D01*
X227252202Y-58895500D01*
X227252201Y-58895500D01*
X227124999Y-58895500D01*
X227124998Y-58895500D01*
X227124992Y-58895501D01*
X227002133Y-58928420D01*
X227002124Y-58928424D01*
X226891972Y-58992021D01*
X226891963Y-58992028D01*
X226802026Y-59081965D01*
X226800684Y-59083715D01*
X226799721Y-59084270D01*
X226799127Y-59084865D01*
X226798967Y-59084705D01*
X226759256Y-59107632D01*
X226713051Y-59095250D01*
X226701516Y-59083715D01*
X226700173Y-59081965D01*
X226610236Y-58992028D01*
X226610227Y-58992021D01*
X226500075Y-58928424D01*
X226500066Y-58928420D01*
X226377207Y-58895501D01*
X226377202Y-58895500D01*
X226377201Y-58895500D01*
X226249999Y-58895500D01*
X226249998Y-58895500D01*
X226249992Y-58895501D01*
X226127133Y-58928420D01*
X226127124Y-58928424D01*
X226016972Y-58992021D01*
X226016963Y-58992028D01*
X225927028Y-59081963D01*
X225927021Y-59081972D01*
X225863424Y-59192124D01*
X225863420Y-59192133D01*
X225830501Y-59314992D01*
X225830500Y-59315000D01*
X224542700Y-59315000D01*
X224542700Y-58395529D01*
X224542699Y-58395527D01*
X224541321Y-58392201D01*
X224516382Y-58331992D01*
X224507822Y-58311326D01*
X223614533Y-57418036D01*
X223596227Y-57373842D01*
X223598356Y-57357670D01*
X223609200Y-57317201D01*
X223609200Y-57189999D01*
X223576278Y-57067130D01*
X223512676Y-56956969D01*
X223512674Y-56956967D01*
X223512671Y-56956963D01*
X223422736Y-56867028D01*
X223422727Y-56867021D01*
X223312575Y-56803424D01*
X223312566Y-56803420D01*
X223189707Y-56770501D01*
X223189702Y-56770500D01*
X223189701Y-56770500D01*
X223062499Y-56770500D01*
X223062498Y-56770500D01*
X223062492Y-56770501D01*
X222939633Y-56803420D01*
X222939624Y-56803424D01*
X222829472Y-56867021D01*
X222829463Y-56867028D01*
X222739528Y-56956963D01*
X222739521Y-56956972D01*
X222675924Y-57067124D01*
X222675920Y-57067133D01*
X222643001Y-57189992D01*
X222643000Y-57190000D01*
X180504750Y-57190000D01*
X180504750Y-52833398D01*
X180523056Y-52789204D01*
X181257054Y-52055206D01*
X181301248Y-52036900D01*
X230982202Y-52036900D01*
X231026396Y-52055206D01*
X231760394Y-52789204D01*
X231778700Y-52833398D01*
X231778700Y-53744196D01*
X231783090Y-53773795D01*
X231785498Y-53790028D01*
X231785500Y-53790037D01*
X231796030Y-53824751D01*
X231796031Y-53824755D01*
X231805516Y-53848754D01*
X231805516Y-53848755D01*
X231859407Y-53910208D01*
X231885973Y-53927958D01*
X231899180Y-53936783D01*
X231936150Y-53955015D01*
X231936152Y-53955015D01*
X231936191Y-53955026D01*
X231936225Y-53955052D01*
X231941671Y-53957738D01*
X231941136Y-53958821D01*
X231974140Y-53984149D01*
X231980382Y-54031575D01*
X231971979Y-54050119D01*
X231901409Y-54155733D01*
X231901408Y-54155735D01*
X231852190Y-54274557D01*
X231827100Y-54400694D01*
X231827100Y-55629305D01*
X231852190Y-55755442D01*
X231886918Y-55839282D01*
X231901408Y-55874264D01*
X231972860Y-55981199D01*
X232063801Y-56072140D01*
X232170736Y-56143592D01*
X232203767Y-56157274D01*
X232210247Y-56159958D01*
X232244072Y-56193783D01*
X232244071Y-56241618D01*
X232210246Y-56275443D01*
X232186329Y-56280200D01*
X226863242Y-56280200D01*
X226819048Y-56261894D01*
X224297398Y-53740244D01*
X224189155Y-53667918D01*
X224068875Y-53618097D01*
X223941193Y-53592700D01*
X205066194Y-53592700D01*
X204936007Y-53592700D01*
X204936006Y-53592700D01*
X204808324Y-53618096D01*
X204808321Y-53618097D01*
X204688048Y-53667916D01*
X204688044Y-53667919D01*
X204579801Y-53740244D01*
X203487744Y-54832301D01*
X203415418Y-54940544D01*
X203365597Y-55060824D01*
X203340200Y-55188506D01*
X203340200Y-55318693D01*
X203365597Y-55446375D01*
X203415418Y-55566655D01*
X203487744Y-55674898D01*
X203579801Y-55766955D01*
X203688044Y-55839281D01*
X203688045Y-55839281D01*
X203688046Y-55839282D01*
X203808323Y-55889102D01*
X203936007Y-55914500D01*
X204066193Y-55914500D01*
X204193877Y-55889102D01*
X204314154Y-55839282D01*
X204422399Y-55766955D01*
X205256548Y-54932806D01*
X205300742Y-54914500D01*
X223576458Y-54914500D01*
X223620652Y-54932806D01*
X226142301Y-57454455D01*
X226250544Y-57526781D01*
X226250545Y-57526781D01*
X226250546Y-57526782D01*
X226370823Y-57576602D01*
X226498507Y-57602000D01*
X243878693Y-57602000D01*
X244006377Y-57576602D01*
X244126654Y-57526782D01*
X244234899Y-57454455D01*
X246201954Y-55487399D01*
X246274281Y-55379154D01*
X246324102Y-55258877D01*
X246349500Y-55131194D01*
X246349500Y-55001007D01*
X246324102Y-54873323D01*
X246274281Y-54753046D01*
X246201954Y-54644801D01*
X246109899Y-54552746D01*
X246001654Y-54480419D01*
X246001653Y-54480418D01*
X246001651Y-54480417D01*
X245881375Y-54430597D01*
X245753693Y-54405200D01*
X245623506Y-54405200D01*
X245495824Y-54430597D01*
X245375548Y-54480417D01*
X245375544Y-54480420D01*
X245267301Y-54552745D01*
X243558152Y-56261894D01*
X243513958Y-56280200D01*
X241413671Y-56280200D01*
X241369477Y-56261894D01*
X241351171Y-56217700D01*
X241369477Y-56173506D01*
X241389753Y-56159958D01*
X241429264Y-56143592D01*
X241536199Y-56072140D01*
X241627140Y-55981199D01*
X241698592Y-55874264D01*
X241747809Y-55755444D01*
X241772900Y-55629305D01*
X241772900Y-54400695D01*
X241747809Y-54274556D01*
X241698592Y-54155736D01*
X241627140Y-54048801D01*
X241608234Y-54029895D01*
X241589928Y-53985701D01*
X241608234Y-53941507D01*
X241628504Y-53927962D01*
X241670220Y-53910683D01*
X241705917Y-53890074D01*
X241755674Y-53825229D01*
X241773980Y-53781035D01*
X241786000Y-53720609D01*
X241786000Y-53240400D01*
X241804306Y-53196206D01*
X241848500Y-53177900D01*
X248376160Y-53177900D01*
X248420354Y-53196206D01*
X253192393Y-57968245D01*
X253210699Y-58012439D01*
X253210699Y-58149812D01*
X253192393Y-58194006D01*
X253164375Y-58210182D01*
X253088787Y-58230435D01*
X253088784Y-58230436D01*
X252985513Y-58290061D01*
X252985507Y-58290066D01*
X252901194Y-58374379D01*
X252901189Y-58374385D01*
X252841564Y-58477656D01*
X252841563Y-58477659D01*
X252810701Y-58592840D01*
X252810700Y-58592848D01*
X252810700Y-58712095D01*
X252810701Y-58712103D01*
X252841563Y-58827284D01*
X252841564Y-58827287D01*
X252901189Y-58930558D01*
X252901194Y-58930564D01*
X252985507Y-59014877D01*
X252985513Y-59014882D01*
X253088784Y-59074507D01*
X253088787Y-59074508D01*
X253203975Y-59105372D01*
X253203976Y-59105372D01*
X253323224Y-59105372D01*
X253323225Y-59105372D01*
X253438413Y-59074508D01*
X253541687Y-59014882D01*
X253626010Y-58930559D01*
X253629172Y-58925081D01*
X253634474Y-58915900D01*
X253672424Y-58886780D01*
X253719850Y-58893024D01*
X253742726Y-58915900D01*
X253751187Y-58930555D01*
X253751194Y-58930564D01*
X253835507Y-59014877D01*
X253835513Y-59014882D01*
X253938784Y-59074507D01*
X253938787Y-59074508D01*
X254053975Y-59105372D01*
X254053976Y-59105372D01*
X254173224Y-59105372D01*
X254173225Y-59105372D01*
X254288413Y-59074508D01*
X254391687Y-59014882D01*
X254476010Y-58930559D01*
X254535636Y-58827285D01*
X254566500Y-58712097D01*
X254566500Y-58592847D01*
X254535636Y-58477659D01*
X254535635Y-58477656D01*
X254476010Y-58374385D01*
X254476005Y-58374379D01*
X254391692Y-58290066D01*
X254391686Y-58290061D01*
X254288415Y-58230436D01*
X254288412Y-58230435D01*
X254212825Y-58210182D01*
X254174874Y-58181062D01*
X254166501Y-58149812D01*
X254166501Y-57752989D01*
X254166502Y-57752980D01*
X254166502Y-57645098D01*
X254166501Y-57645095D01*
X254138130Y-57576602D01*
X254128000Y-57552146D01*
X254102635Y-57526781D01*
X254053303Y-57477448D01*
X254053288Y-57477435D01*
X248912746Y-52336894D01*
X248912738Y-52336884D01*
X248836455Y-52260601D01*
X248780900Y-52237590D01*
X248780899Y-52237589D01*
X248743504Y-52222099D01*
X248743503Y-52222099D01*
X248642893Y-52222099D01*
X248635620Y-52222099D01*
X248635612Y-52222100D01*
X242272298Y-52222100D01*
X242228104Y-52203794D01*
X242209798Y-52159600D01*
X242228104Y-52115406D01*
X242386107Y-51957402D01*
X242701411Y-51642096D01*
X242745604Y-51623791D01*
X242745702Y-51623791D01*
X249295084Y-51649600D01*
G37*
%TD.AperFunction*%
%TD*%
%TA.AperFunction,Conductor*%
%TO.N,CGND*%
G36*
X255751449Y-49500567D02*
G01*
X256082002Y-49515849D01*
X256085181Y-49516078D01*
X256162932Y-49523736D01*
X256165398Y-49524029D01*
X256454960Y-49564421D01*
X256458497Y-49565020D01*
X256530044Y-49579251D01*
X256532016Y-49579679D01*
X256822524Y-49648005D01*
X256826329Y-49649029D01*
X256886678Y-49667336D01*
X256888347Y-49667869D01*
X257181224Y-49766031D01*
X257185234Y-49767532D01*
X257227490Y-49785035D01*
X257228738Y-49785568D01*
X257527654Y-49917552D01*
X257531838Y-49919591D01*
X257544540Y-49926380D01*
X257545330Y-49926811D01*
X257852941Y-50098151D01*
X257857847Y-50101189D01*
X258157850Y-50306695D01*
X258157852Y-50306696D01*
X258162457Y-50310173D01*
X258217419Y-50355813D01*
X258442223Y-50542488D01*
X258446489Y-50546377D01*
X258703622Y-50803510D01*
X258707511Y-50807776D01*
X258939824Y-51087540D01*
X258943303Y-51092147D01*
X259148809Y-51392150D01*
X259151848Y-51397058D01*
X259323141Y-51704585D01*
X259323660Y-51705536D01*
X259330399Y-51718144D01*
X259332454Y-51722361D01*
X259464396Y-52021181D01*
X259464963Y-52022508D01*
X259482462Y-52064754D01*
X259483980Y-52068810D01*
X259582121Y-52361626D01*
X259582670Y-52363345D01*
X259600965Y-52423655D01*
X259601996Y-52427488D01*
X259670303Y-52717909D01*
X259670762Y-52720027D01*
X259684976Y-52791491D01*
X259685578Y-52795048D01*
X259725966Y-53084579D01*
X259726264Y-53087088D01*
X259733917Y-53164786D01*
X259734151Y-53168025D01*
X259749433Y-53498550D01*
X259749500Y-53501437D01*
X259749500Y-77504000D01*
X257374100Y-77504000D01*
X257374100Y-61305000D01*
X257374106Y-61304159D01*
X257400000Y-59379001D01*
X257399998Y-59378997D01*
X251603528Y-53674813D01*
X251560334Y-53632307D01*
X253650600Y-53632307D01*
X253650600Y-53874892D01*
X253682262Y-54115392D01*
X253682262Y-54115393D01*
X253745040Y-54349683D01*
X253745044Y-54349694D01*
X253745046Y-54349700D01*
X253768035Y-54405200D01*
X253837874Y-54573808D01*
X253837875Y-54573811D01*
X253959162Y-54783886D01*
X254106199Y-54975510D01*
X254106835Y-54976338D01*
X254278362Y-55147865D01*
X254470811Y-55295536D01*
X254680888Y-55416824D01*
X254905000Y-55509654D01*
X254905008Y-55509656D01*
X254905016Y-55509659D01*
X255117725Y-55566654D01*
X255139311Y-55572438D01*
X255379812Y-55604100D01*
X255379818Y-55604100D01*
X255622382Y-55604100D01*
X255622388Y-55604100D01*
X255862889Y-55572438D01*
X255862893Y-55572437D01*
X256097183Y-55509659D01*
X256097187Y-55509657D01*
X256097200Y-55509654D01*
X256321312Y-55416824D01*
X256531389Y-55295536D01*
X256723838Y-55147865D01*
X256895365Y-54976338D01*
X257043036Y-54783889D01*
X257164324Y-54573812D01*
X257257154Y-54349700D01*
X257265764Y-54317570D01*
X257319937Y-54115393D01*
X257319937Y-54115392D01*
X257319938Y-54115389D01*
X257351600Y-53874888D01*
X257351600Y-53632312D01*
X257319938Y-53391811D01*
X257284512Y-53259600D01*
X257257159Y-53157516D01*
X257257155Y-53157505D01*
X257257154Y-53157500D01*
X257164324Y-52933388D01*
X257043036Y-52723311D01*
X256895365Y-52530862D01*
X256723838Y-52359335D01*
X256723834Y-52359332D01*
X256723832Y-52359330D01*
X256595165Y-52260601D01*
X256531389Y-52211664D01*
X256517758Y-52203794D01*
X256321311Y-52090375D01*
X256321308Y-52090374D01*
X256228475Y-52051922D01*
X256097200Y-51997546D01*
X256097196Y-51997545D01*
X256097194Y-51997544D01*
X256097183Y-51997540D01*
X255862892Y-51934762D01*
X255622392Y-51903100D01*
X255622388Y-51903100D01*
X255379812Y-51903100D01*
X255379807Y-51903100D01*
X255139307Y-51934762D01*
X255139306Y-51934762D01*
X254905016Y-51997540D01*
X254905005Y-51997544D01*
X254680891Y-52090374D01*
X254680888Y-52090375D01*
X254470813Y-52211662D01*
X254278367Y-52359330D01*
X254278357Y-52359339D01*
X254106839Y-52530857D01*
X254106830Y-52530867D01*
X253959162Y-52723313D01*
X253837875Y-52933388D01*
X253837874Y-52933391D01*
X253745044Y-53157505D01*
X253745040Y-53157516D01*
X253682262Y-53391806D01*
X253682262Y-53391807D01*
X253650600Y-53632307D01*
X251560334Y-53632307D01*
X249385458Y-51492057D01*
X249385456Y-51492056D01*
X242654675Y-51465531D01*
X242654674Y-51465531D01*
X241916412Y-52203794D01*
X241872218Y-52222100D01*
X239364388Y-52222100D01*
X239364380Y-52222099D01*
X239357107Y-52222099D01*
X239256497Y-52222099D01*
X239256495Y-52222099D01*
X239219101Y-52237589D01*
X239219100Y-52237590D01*
X239163544Y-52260601D01*
X239163543Y-52260602D01*
X239090215Y-52333931D01*
X238120354Y-53303794D01*
X238076160Y-53322100D01*
X237365401Y-53322100D01*
X237321207Y-53303794D01*
X237302901Y-53259600D01*
X237302901Y-53230640D01*
X237321206Y-53186447D01*
X237437103Y-53070549D01*
X237481296Y-53052244D01*
X237489455Y-53052779D01*
X237490374Y-53052900D01*
X237490375Y-53052900D01*
X237609624Y-53052900D01*
X237609625Y-53052900D01*
X237724813Y-53022036D01*
X237828087Y-52962410D01*
X237912410Y-52878087D01*
X237972036Y-52774813D01*
X238002900Y-52659625D01*
X238002900Y-52540375D01*
X237972036Y-52425187D01*
X237972035Y-52425184D01*
X237912410Y-52321913D01*
X237912405Y-52321907D01*
X237828092Y-52237594D01*
X237828086Y-52237589D01*
X237724815Y-52177964D01*
X237724812Y-52177963D01*
X237609631Y-52147101D01*
X237609626Y-52147100D01*
X237609625Y-52147100D01*
X237490375Y-52147100D01*
X237490374Y-52147100D01*
X237490368Y-52147101D01*
X237375187Y-52177963D01*
X237375184Y-52177964D01*
X237271913Y-52237589D01*
X237271907Y-52237594D01*
X237187594Y-52321907D01*
X237187589Y-52321913D01*
X237127964Y-52425184D01*
X237127963Y-52425187D01*
X237097101Y-52540368D01*
X237097100Y-52540376D01*
X237097100Y-52659631D01*
X237097221Y-52660551D01*
X237097100Y-52661002D01*
X237097100Y-52663721D01*
X237096371Y-52663721D01*
X237084835Y-52706755D01*
X237079449Y-52712895D01*
X236908927Y-52883416D01*
X236908927Y-52883418D01*
X236906747Y-52885598D01*
X236906744Y-52885600D01*
X236879939Y-52912405D01*
X236869194Y-52923150D01*
X236824999Y-52941455D01*
X236780805Y-52923149D01*
X236780804Y-52923147D01*
X236739703Y-52882046D01*
X236739683Y-52882029D01*
X236520550Y-52662896D01*
X236502244Y-52618702D01*
X236502779Y-52610540D01*
X236502898Y-52609628D01*
X236502900Y-52609625D01*
X236502900Y-52490375D01*
X236472036Y-52375187D01*
X236472035Y-52375184D01*
X236412410Y-52271913D01*
X236412405Y-52271907D01*
X236328092Y-52187594D01*
X236328086Y-52187589D01*
X236224815Y-52127964D01*
X236224812Y-52127963D01*
X236109631Y-52097101D01*
X236109626Y-52097100D01*
X236109625Y-52097100D01*
X235990375Y-52097100D01*
X235990374Y-52097100D01*
X235990368Y-52097101D01*
X235875187Y-52127963D01*
X235875184Y-52127964D01*
X235771913Y-52187589D01*
X235771907Y-52187594D01*
X235687594Y-52271907D01*
X235687589Y-52271913D01*
X235627964Y-52375184D01*
X235627963Y-52375187D01*
X235597101Y-52490368D01*
X235597100Y-52490376D01*
X235597100Y-52609623D01*
X235597101Y-52609631D01*
X235627963Y-52724812D01*
X235627964Y-52724815D01*
X235687589Y-52828086D01*
X235687594Y-52828092D01*
X235771907Y-52912405D01*
X235771913Y-52912410D01*
X235875184Y-52972035D01*
X235875187Y-52972036D01*
X235990375Y-53002900D01*
X235990376Y-53002900D01*
X236109621Y-53002900D01*
X236109625Y-53002900D01*
X236109628Y-53002898D01*
X236110540Y-53002779D01*
X236110992Y-53002900D01*
X236113722Y-53002900D01*
X236113722Y-53003631D01*
X236156746Y-53015157D01*
X236162896Y-53020550D01*
X236328793Y-53186447D01*
X236347099Y-53230641D01*
X236347099Y-53562847D01*
X236347098Y-53562861D01*
X236347098Y-53567892D01*
X236347098Y-53668502D01*
X236349990Y-53675483D01*
X236362630Y-53705997D01*
X236362631Y-53706000D01*
X236385600Y-53761454D01*
X236461883Y-53837737D01*
X236461893Y-53837745D01*
X236788834Y-54164687D01*
X236788847Y-54164702D01*
X236849086Y-54224940D01*
X236863545Y-54239399D01*
X236903649Y-54256010D01*
X236956497Y-54277901D01*
X237064380Y-54277901D01*
X237064388Y-54277900D01*
X238335612Y-54277900D01*
X238335620Y-54277901D01*
X238342893Y-54277901D01*
X238443502Y-54277901D01*
X238443503Y-54277901D01*
X238496351Y-54256010D01*
X238536455Y-54239399D01*
X238607597Y-54168257D01*
X238607597Y-54168256D01*
X238613597Y-54162257D01*
X238613606Y-54162244D01*
X239579646Y-53196206D01*
X239623840Y-53177900D01*
X241565600Y-53177900D01*
X241609794Y-53196206D01*
X241628100Y-53240400D01*
X241628100Y-53720609D01*
X241609794Y-53764803D01*
X241565600Y-53783109D01*
X241530878Y-53772577D01*
X241500837Y-53752505D01*
X241500834Y-53752503D01*
X241354516Y-53691896D01*
X241272000Y-53675483D01*
X241272000Y-54206346D01*
X241235796Y-54185444D01*
X241159496Y-54165000D01*
X241080504Y-54165000D01*
X241004204Y-54185444D01*
X240968000Y-54206346D01*
X240968000Y-53675483D01*
X240967999Y-53675483D01*
X240885483Y-53691896D01*
X240739165Y-53752503D01*
X240739161Y-53752506D01*
X240607480Y-53840492D01*
X240495492Y-53952480D01*
X240407506Y-54084161D01*
X240407503Y-54084165D01*
X240346896Y-54230483D01*
X240339157Y-54269392D01*
X240312581Y-54309166D01*
X240265665Y-54318498D01*
X240225891Y-54291922D01*
X240223731Y-54288449D01*
X240217641Y-54277901D01*
X240150515Y-54161635D01*
X240150513Y-54161633D01*
X240150510Y-54161629D01*
X240043370Y-54054489D01*
X240043366Y-54054486D01*
X240043365Y-54054485D01*
X239977750Y-54016602D01*
X239912134Y-53978718D01*
X239912131Y-53978717D01*
X239765772Y-53939501D01*
X239765767Y-53939500D01*
X239765766Y-53939500D01*
X239614234Y-53939500D01*
X239614233Y-53939500D01*
X239614227Y-53939501D01*
X239467868Y-53978717D01*
X239467865Y-53978718D01*
X239336633Y-54054486D01*
X239336629Y-54054489D01*
X239229489Y-54161629D01*
X239229486Y-54161633D01*
X239153718Y-54292865D01*
X239153717Y-54292868D01*
X239114501Y-54439227D01*
X239114500Y-54439235D01*
X239114500Y-54590764D01*
X239114501Y-54590772D01*
X239153717Y-54737131D01*
X239153718Y-54737134D01*
X239184238Y-54789996D01*
X239208663Y-54832301D01*
X239229486Y-54868366D01*
X239229489Y-54868370D01*
X239336629Y-54975510D01*
X239336633Y-54975513D01*
X239336635Y-54975515D01*
X239405025Y-55015000D01*
X239467865Y-55051281D01*
X239467868Y-55051282D01*
X239537517Y-55069944D01*
X239614234Y-55090500D01*
X239614235Y-55090500D01*
X239765765Y-55090500D01*
X239765766Y-55090500D01*
X239912135Y-55051281D01*
X240043365Y-54975515D01*
X240150515Y-54868365D01*
X240199374Y-54783737D01*
X240237324Y-54754619D01*
X240284750Y-54760862D01*
X240313870Y-54798813D01*
X240316000Y-54814989D01*
X240316000Y-54863000D01*
X240820000Y-54863000D01*
X240820000Y-55167000D01*
X240316000Y-55167000D01*
X240316000Y-55644187D01*
X240346896Y-55799516D01*
X240407503Y-55945834D01*
X240407506Y-55945838D01*
X240495492Y-56077519D01*
X240591479Y-56173506D01*
X240609785Y-56217700D01*
X240591479Y-56261894D01*
X240547285Y-56280200D01*
X233052715Y-56280200D01*
X233008521Y-56261894D01*
X232990215Y-56217700D01*
X233008521Y-56173506D01*
X233104505Y-56077521D01*
X233104507Y-56077519D01*
X233192493Y-55945838D01*
X233192496Y-55945834D01*
X233253103Y-55799516D01*
X233283999Y-55644187D01*
X233284000Y-55644187D01*
X233284000Y-55167000D01*
X232780000Y-55167000D01*
X232780000Y-54863000D01*
X233284000Y-54863000D01*
X233284000Y-54814989D01*
X233302306Y-54770795D01*
X233346500Y-54752489D01*
X233390694Y-54770795D01*
X233400622Y-54783733D01*
X233446388Y-54863000D01*
X233449486Y-54868366D01*
X233449489Y-54868370D01*
X233556629Y-54975510D01*
X233556633Y-54975513D01*
X233556635Y-54975515D01*
X233625025Y-55015000D01*
X233687865Y-55051281D01*
X233687868Y-55051282D01*
X233757517Y-55069944D01*
X233834234Y-55090500D01*
X233834235Y-55090500D01*
X233985765Y-55090500D01*
X233985766Y-55090500D01*
X234132135Y-55051281D01*
X234263365Y-54975515D01*
X234370515Y-54868365D01*
X234446281Y-54737135D01*
X234485500Y-54590766D01*
X234485500Y-54439234D01*
X234446281Y-54292865D01*
X234370515Y-54161635D01*
X234370513Y-54161633D01*
X234370510Y-54161629D01*
X234263370Y-54054489D01*
X234263366Y-54054486D01*
X234263365Y-54054485D01*
X234197750Y-54016602D01*
X234132134Y-53978718D01*
X234132131Y-53978717D01*
X233985772Y-53939501D01*
X233985767Y-53939500D01*
X233985766Y-53939500D01*
X233834234Y-53939500D01*
X233834233Y-53939500D01*
X233834227Y-53939501D01*
X233687868Y-53978717D01*
X233687865Y-53978718D01*
X233556633Y-54054486D01*
X233556629Y-54054489D01*
X233449489Y-54161629D01*
X233449482Y-54161638D01*
X233376267Y-54288449D01*
X233338317Y-54317570D01*
X233290891Y-54311325D01*
X233261770Y-54273375D01*
X233260842Y-54269391D01*
X233253103Y-54230484D01*
X233253103Y-54230483D01*
X233192496Y-54084165D01*
X233192493Y-54084161D01*
X233104507Y-53952480D01*
X232992519Y-53840492D01*
X232860838Y-53752506D01*
X232860834Y-53752503D01*
X232714516Y-53691896D01*
X232632000Y-53675483D01*
X232632000Y-54206346D01*
X232595796Y-54185444D01*
X232519496Y-54165000D01*
X232440504Y-54165000D01*
X232364204Y-54185444D01*
X232328000Y-54206346D01*
X232328000Y-53675483D01*
X232327999Y-53675483D01*
X232245483Y-53691896D01*
X232099165Y-53752503D01*
X232099160Y-53752506D01*
X232033823Y-53796163D01*
X231986906Y-53805495D01*
X231947133Y-53778919D01*
X231936600Y-53744196D01*
X231936600Y-52742106D01*
X231073494Y-51879000D01*
X181209956Y-51879000D01*
X180346850Y-52742106D01*
X180346850Y-59778717D01*
X180328544Y-59822911D01*
X179978261Y-60173194D01*
X179934067Y-60191500D01*
X179884697Y-60191500D01*
X179840503Y-60173194D01*
X179822197Y-60129000D01*
X179824327Y-60112824D01*
X179843279Y-60042093D01*
X179843279Y-60042091D01*
X179873769Y-59810500D01*
X179055110Y-59810500D01*
X179064850Y-59749007D01*
X179064850Y-59567993D01*
X179055110Y-59506500D01*
X179873769Y-59506500D01*
X179873769Y-59506499D01*
X179843279Y-59274908D01*
X179843279Y-59274906D01*
X179776718Y-59026499D01*
X179776714Y-59026488D01*
X179678291Y-58788871D01*
X179678290Y-58788868D01*
X179549697Y-58566138D01*
X179393123Y-58362086D01*
X179211263Y-58180226D01*
X179007211Y-58023652D01*
X178784481Y-57895059D01*
X178784478Y-57895058D01*
X178546861Y-57796635D01*
X178546850Y-57796631D01*
X178298442Y-57730070D01*
X178066850Y-57699580D01*
X178066850Y-58518239D01*
X178005357Y-58508500D01*
X177824343Y-58508500D01*
X177762850Y-58518239D01*
X177762850Y-57699581D01*
X177762849Y-57699580D01*
X177531258Y-57730070D01*
X177531256Y-57730070D01*
X177282849Y-57796631D01*
X177282838Y-57796635D01*
X177045221Y-57895058D01*
X177045218Y-57895059D01*
X176822488Y-58023652D01*
X176618436Y-58180226D01*
X176436576Y-58362086D01*
X176280002Y-58566138D01*
X176151409Y-58788868D01*
X176151408Y-58788871D01*
X176052985Y-59026488D01*
X176052981Y-59026499D01*
X175986420Y-59274906D01*
X175986420Y-59274908D01*
X175955930Y-59506499D01*
X175955931Y-59506500D01*
X176774590Y-59506500D01*
X176764850Y-59567993D01*
X176764850Y-59749007D01*
X176774590Y-59810500D01*
X175955930Y-59810500D01*
X175986420Y-60042091D01*
X175986420Y-60042093D01*
X176005373Y-60112824D01*
X176004270Y-60121196D01*
X176007503Y-60129000D01*
X176001259Y-60144072D01*
X175999130Y-60160250D01*
X175992428Y-60165391D01*
X175989197Y-60173194D01*
X175974123Y-60179437D01*
X175961179Y-60189370D01*
X175945003Y-60191500D01*
X175880633Y-60191500D01*
X175836439Y-60173194D01*
X175486156Y-59822911D01*
X175467850Y-59778717D01*
X175467850Y-52742106D01*
X174604744Y-51879000D01*
X168084956Y-51879000D01*
X167221850Y-52742106D01*
X167221850Y-59778717D01*
X167203544Y-59822911D01*
X166853261Y-60173194D01*
X166809067Y-60191500D01*
X166744697Y-60191500D01*
X166700503Y-60173194D01*
X166682197Y-60129000D01*
X166684327Y-60112824D01*
X166703279Y-60042093D01*
X166703279Y-60042091D01*
X166733769Y-59810500D01*
X165915110Y-59810500D01*
X165924850Y-59749007D01*
X165924850Y-59567993D01*
X165915110Y-59506500D01*
X166733769Y-59506500D01*
X166733769Y-59506499D01*
X166703279Y-59274908D01*
X166703279Y-59274906D01*
X166636718Y-59026499D01*
X166636714Y-59026488D01*
X166538291Y-58788871D01*
X166538290Y-58788868D01*
X166409697Y-58566138D01*
X166253123Y-58362086D01*
X166071263Y-58180226D01*
X165867211Y-58023652D01*
X165644481Y-57895059D01*
X165644478Y-57895058D01*
X165406861Y-57796635D01*
X165406850Y-57796631D01*
X165158442Y-57730070D01*
X164926850Y-57699580D01*
X164926850Y-58518239D01*
X164865357Y-58508500D01*
X164684343Y-58508500D01*
X164622850Y-58518239D01*
X164622850Y-57699581D01*
X164622849Y-57699580D01*
X164391258Y-57730070D01*
X164391256Y-57730070D01*
X164142849Y-57796631D01*
X164142838Y-57796635D01*
X163905221Y-57895058D01*
X163905218Y-57895059D01*
X163682488Y-58023652D01*
X163478436Y-58180226D01*
X163296576Y-58362086D01*
X163140002Y-58566138D01*
X163011409Y-58788868D01*
X163011408Y-58788871D01*
X162912985Y-59026488D01*
X162912981Y-59026499D01*
X162846420Y-59274906D01*
X162846420Y-59274908D01*
X162815930Y-59506499D01*
X162815931Y-59506500D01*
X163634590Y-59506500D01*
X163624850Y-59567993D01*
X163624850Y-59749007D01*
X163634590Y-59810500D01*
X162815930Y-59810500D01*
X162846420Y-60042091D01*
X162846420Y-60042093D01*
X162865373Y-60112824D01*
X162864270Y-60121196D01*
X162867503Y-60129000D01*
X162861259Y-60144072D01*
X162859130Y-60160250D01*
X162852428Y-60165391D01*
X162849197Y-60173194D01*
X162834123Y-60179437D01*
X162821179Y-60189370D01*
X162805003Y-60191500D01*
X162755633Y-60191500D01*
X162711439Y-60173194D01*
X162361156Y-59822911D01*
X162342850Y-59778717D01*
X162342850Y-52742106D01*
X161479744Y-51879000D01*
X160053706Y-51879000D01*
X158128100Y-53804606D01*
X158128100Y-56278717D01*
X158109794Y-56322911D01*
X155072011Y-59360694D01*
X155027817Y-59379000D01*
X153438038Y-59379000D01*
X153393844Y-59360694D01*
X153380296Y-59340418D01*
X153353160Y-59274906D01*
X153311874Y-59175232D01*
X153211749Y-59025385D01*
X153084315Y-58897951D01*
X152980791Y-58828778D01*
X152934470Y-58797827D01*
X152934468Y-58797826D01*
X152767965Y-58728858D01*
X152591210Y-58693700D01*
X152410990Y-58693700D01*
X152234234Y-58728858D01*
X152234233Y-58728858D01*
X152067731Y-58797826D01*
X152067729Y-58797827D01*
X151917885Y-58897950D01*
X151790450Y-59025385D01*
X151690327Y-59175229D01*
X151690326Y-59175231D01*
X151621358Y-59341733D01*
X151621358Y-59341734D01*
X151586200Y-59518489D01*
X151586200Y-59698710D01*
X151621358Y-59875465D01*
X151621358Y-59875466D01*
X151690326Y-60041968D01*
X151690327Y-60041971D01*
X151742102Y-60119458D01*
X151751434Y-60166375D01*
X151734329Y-60198375D01*
X150628100Y-61304605D01*
X150628100Y-68462459D01*
X150619728Y-68493707D01*
X150613422Y-68504628D01*
X150613420Y-68504633D01*
X150580501Y-68627492D01*
X150580500Y-68627500D01*
X150580500Y-68754699D01*
X150580501Y-68754707D01*
X150613421Y-68877569D01*
X150613422Y-68877570D01*
X150619725Y-68888487D01*
X150628100Y-68919739D01*
X150628100Y-77504000D01*
X148250500Y-77504000D01*
X148250500Y-53632307D01*
X150650600Y-53632307D01*
X150650600Y-53874892D01*
X150682262Y-54115392D01*
X150682262Y-54115393D01*
X150745040Y-54349683D01*
X150745044Y-54349694D01*
X150745046Y-54349700D01*
X150768035Y-54405200D01*
X150837874Y-54573808D01*
X150837875Y-54573811D01*
X150959162Y-54783886D01*
X151106199Y-54975510D01*
X151106835Y-54976338D01*
X151278362Y-55147865D01*
X151470811Y-55295536D01*
X151680888Y-55416824D01*
X151905000Y-55509654D01*
X151905008Y-55509656D01*
X151905016Y-55509659D01*
X152117725Y-55566654D01*
X152139311Y-55572438D01*
X152379812Y-55604100D01*
X152379818Y-55604100D01*
X152622382Y-55604100D01*
X152622388Y-55604100D01*
X152862889Y-55572438D01*
X152862893Y-55572437D01*
X153097183Y-55509659D01*
X153097187Y-55509657D01*
X153097200Y-55509654D01*
X153321312Y-55416824D01*
X153531389Y-55295536D01*
X153723838Y-55147865D01*
X153895365Y-54976338D01*
X154043036Y-54783889D01*
X154164324Y-54573812D01*
X154257154Y-54349700D01*
X154265764Y-54317570D01*
X154319937Y-54115393D01*
X154319937Y-54115392D01*
X154319938Y-54115389D01*
X154351600Y-53874888D01*
X154351600Y-53632312D01*
X154319938Y-53391811D01*
X154284512Y-53259600D01*
X154257159Y-53157516D01*
X154257155Y-53157505D01*
X154257154Y-53157500D01*
X154164324Y-52933388D01*
X154043036Y-52723311D01*
X153895365Y-52530862D01*
X153723838Y-52359335D01*
X153723834Y-52359332D01*
X153723832Y-52359330D01*
X153595165Y-52260601D01*
X153531389Y-52211664D01*
X153517758Y-52203794D01*
X153321311Y-52090375D01*
X153321308Y-52090374D01*
X153228475Y-52051922D01*
X153097200Y-51997546D01*
X153097196Y-51997545D01*
X153097194Y-51997544D01*
X153097183Y-51997540D01*
X152862892Y-51934762D01*
X152622392Y-51903100D01*
X152622388Y-51903100D01*
X152379812Y-51903100D01*
X152379807Y-51903100D01*
X152139307Y-51934762D01*
X152139306Y-51934762D01*
X151905016Y-51997540D01*
X151905005Y-51997544D01*
X151680891Y-52090374D01*
X151680888Y-52090375D01*
X151470813Y-52211662D01*
X151278367Y-52359330D01*
X151278357Y-52359339D01*
X151106839Y-52530857D01*
X151106830Y-52530867D01*
X150959162Y-52723313D01*
X150837875Y-52933388D01*
X150837874Y-52933391D01*
X150745044Y-53157505D01*
X150745040Y-53157516D01*
X150682262Y-53391806D01*
X150682262Y-53391807D01*
X150650600Y-53632307D01*
X148250500Y-53632307D01*
X148250500Y-53501436D01*
X148250567Y-53498550D01*
X148255502Y-53391806D01*
X148265849Y-53167992D01*
X148266078Y-53164823D01*
X148273737Y-53087055D01*
X148274027Y-53084613D01*
X148314423Y-52795028D01*
X148315018Y-52791513D01*
X148329256Y-52719930D01*
X148329673Y-52718007D01*
X148398009Y-52427459D01*
X148399024Y-52423686D01*
X148417348Y-52363281D01*
X148417855Y-52361693D01*
X148516038Y-52068756D01*
X148517524Y-52064783D01*
X148535066Y-52022434D01*
X148535539Y-52021326D01*
X148667561Y-51722324D01*
X148669580Y-51718182D01*
X148676432Y-51705362D01*
X148676748Y-51704783D01*
X148848157Y-51397046D01*
X148851182Y-51392161D01*
X149056705Y-51092133D01*
X149060165Y-51087552D01*
X149292497Y-50807765D01*
X149296366Y-50803521D01*
X149553521Y-50546366D01*
X149557765Y-50542497D01*
X149782581Y-50355812D01*
X231676000Y-50355812D01*
X231676000Y-50683000D01*
X232180000Y-50683000D01*
X232180000Y-50987000D01*
X231676000Y-50987000D01*
X231676000Y-51314187D01*
X231706896Y-51469516D01*
X231767503Y-51615834D01*
X231767506Y-51615838D01*
X231855492Y-51747519D01*
X231967480Y-51859507D01*
X232099161Y-51947493D01*
X232099165Y-51947496D01*
X232245480Y-52008102D01*
X232245483Y-52008103D01*
X232327999Y-52024516D01*
X232328000Y-52024516D01*
X232328000Y-51493653D01*
X232364204Y-51514556D01*
X232440504Y-51535000D01*
X232519496Y-51535000D01*
X232595796Y-51514556D01*
X232632000Y-51493653D01*
X232632000Y-52024516D01*
X232714516Y-52008103D01*
X232714519Y-52008102D01*
X232860834Y-51947496D01*
X232860838Y-51947493D01*
X232992519Y-51859507D01*
X233104507Y-51747519D01*
X233192493Y-51615838D01*
X233192496Y-51615834D01*
X233253103Y-51469516D01*
X233283999Y-51314187D01*
X233284000Y-51314187D01*
X233284000Y-50987000D01*
X232780000Y-50987000D01*
X232780000Y-50683000D01*
X233284000Y-50683000D01*
X233284000Y-50355813D01*
X233283999Y-50355812D01*
X240316000Y-50355812D01*
X240316000Y-50683000D01*
X240820000Y-50683000D01*
X240820000Y-50987000D01*
X240316000Y-50987000D01*
X240316000Y-51314187D01*
X240346896Y-51469516D01*
X240407503Y-51615834D01*
X240407506Y-51615838D01*
X240495492Y-51747519D01*
X240607480Y-51859507D01*
X240739161Y-51947493D01*
X240739165Y-51947496D01*
X240885480Y-52008102D01*
X240885483Y-52008103D01*
X240967999Y-52024516D01*
X240968000Y-52024516D01*
X240968000Y-51493653D01*
X241004204Y-51514556D01*
X241080504Y-51535000D01*
X241159496Y-51535000D01*
X241235796Y-51514556D01*
X241272000Y-51493653D01*
X241272000Y-52024516D01*
X241354516Y-52008103D01*
X241354519Y-52008102D01*
X241500834Y-51947496D01*
X241500838Y-51947493D01*
X241632519Y-51859507D01*
X241744507Y-51747519D01*
X241832493Y-51615838D01*
X241832496Y-51615834D01*
X241893103Y-51469516D01*
X241923999Y-51314187D01*
X241924000Y-51314187D01*
X241924000Y-50987000D01*
X241420000Y-50987000D01*
X241420000Y-50683000D01*
X241924000Y-50683000D01*
X241924000Y-50355813D01*
X241923999Y-50355812D01*
X241893103Y-50200483D01*
X241832496Y-50054165D01*
X241832493Y-50054161D01*
X241744507Y-49922480D01*
X241632519Y-49810492D01*
X241500838Y-49722506D01*
X241500834Y-49722503D01*
X241354516Y-49661896D01*
X241272000Y-49645483D01*
X241272000Y-50176346D01*
X241235796Y-50155444D01*
X241159496Y-50135000D01*
X241080504Y-50135000D01*
X241004204Y-50155444D01*
X240968000Y-50176346D01*
X240968000Y-49645483D01*
X240967999Y-49645483D01*
X240885483Y-49661896D01*
X240739165Y-49722503D01*
X240739161Y-49722506D01*
X240607480Y-49810492D01*
X240495492Y-49922480D01*
X240407506Y-50054161D01*
X240407503Y-50054165D01*
X240346896Y-50200483D01*
X240316000Y-50355812D01*
X233283999Y-50355812D01*
X233253103Y-50200483D01*
X233192496Y-50054165D01*
X233192493Y-50054161D01*
X233104507Y-49922480D01*
X232992519Y-49810492D01*
X232860838Y-49722506D01*
X232860834Y-49722503D01*
X232714516Y-49661896D01*
X232632000Y-49645483D01*
X232632000Y-50176346D01*
X232595796Y-50155444D01*
X232519496Y-50135000D01*
X232440504Y-50135000D01*
X232364204Y-50155444D01*
X232328000Y-50176346D01*
X232328000Y-49645483D01*
X232327999Y-49645483D01*
X232245483Y-49661896D01*
X232099165Y-49722503D01*
X232099161Y-49722506D01*
X231967480Y-49810492D01*
X231855492Y-49922480D01*
X231767506Y-50054161D01*
X231767503Y-50054165D01*
X231706896Y-50200483D01*
X231676000Y-50355812D01*
X149782581Y-50355812D01*
X149837552Y-50310165D01*
X149842119Y-50306715D01*
X150142161Y-50101182D01*
X150147046Y-50098157D01*
X150454783Y-49926748D01*
X150455362Y-49926432D01*
X150468182Y-49919580D01*
X150472324Y-49917561D01*
X150771326Y-49785539D01*
X150772434Y-49785066D01*
X150814783Y-49767524D01*
X150818756Y-49766038D01*
X151111693Y-49667855D01*
X151113281Y-49667348D01*
X151173686Y-49649024D01*
X151177459Y-49648009D01*
X151468007Y-49579673D01*
X151469930Y-49579256D01*
X151541513Y-49565018D01*
X151545028Y-49564423D01*
X151834613Y-49524027D01*
X151837055Y-49523737D01*
X151914823Y-49516078D01*
X151917992Y-49515849D01*
X152248551Y-49500567D01*
X152251437Y-49500500D01*
X255748563Y-49500500D01*
X255751449Y-49500567D01*
G37*
%TD.AperFunction*%
%TD*%
M02*
