%TF.GenerationSoftware,KiCad,Pcbnew,9.0.2*%
%TF.CreationDate,2025-06-01T02:46:13+05:30*%
%TF.ProjectId,TechLab,54656368-4c61-4622-9e6b-696361645f70,rev?*%
%TF.SameCoordinates,Original*%
%TF.FileFunction,Soldermask,Top*%
%TF.FilePolarity,Negative*%
%FSLAX46Y46*%
G04 Gerber Fmt 4.6, Leading zero omitted, Abs format (unit mm)*
G04 Created by KiCad (PCBNEW 9.0.2) date 2025-06-01 02:46:13*
%MOMM*%
%LPD*%
G01*
G04 APERTURE LIST*
G04 Aperture macros list*
%AMRoundRect*
0 Rectangle with rounded corners*
0 $1 Rounding radius*
0 $2 $3 $4 $5 $6 $7 $8 $9 X,Y pos of 4 corners*
0 Add a 4 corners polygon primitive as box body*
4,1,4,$2,$3,$4,$5,$6,$7,$8,$9,$2,$3,0*
0 Add four circle primitives for the rounded corners*
1,1,$1+$1,$2,$3*
1,1,$1+$1,$4,$5*
1,1,$1+$1,$6,$7*
1,1,$1+$1,$8,$9*
0 Add four rect primitives between the rounded corners*
20,1,$1+$1,$2,$3,$4,$5,0*
20,1,$1+$1,$4,$5,$6,$7,0*
20,1,$1+$1,$6,$7,$8,$9,0*
20,1,$1+$1,$8,$9,$2,$3,0*%
G04 Aperture macros list end*
%ADD10C,0.010000*%
%ADD11C,0.000000*%
%ADD12C,0.609600*%
%ADD13RoundRect,0.050800X-0.550000X0.500000X-0.550000X-0.500000X0.550000X-0.500000X0.550000X0.500000X0*%
%ADD14C,1.625600*%
%ADD15RoundRect,0.050800X0.600000X0.450000X-0.600000X0.450000X-0.600000X-0.450000X0.600000X-0.450000X0*%
%ADD16RoundRect,0.050800X-0.406500X-0.147500X0.406500X-0.147500X0.406500X0.147500X-0.406500X0.147500X0*%
%ADD17RoundRect,0.050800X0.147500X-0.406500X0.147500X0.406500X-0.147500X0.406500X-0.147500X-0.406500X0*%
%ADD18RoundRect,0.050800X0.406500X0.147500X-0.406500X0.147500X-0.406500X-0.147500X0.406500X-0.147500X0*%
%ADD19RoundRect,0.050800X-0.147500X0.406500X-0.147500X-0.406500X0.147500X-0.406500X0.147500X0.406500X0*%
%ADD20RoundRect,0.050800X0.300000X-0.250000X0.300000X0.250000X-0.300000X0.250000X-0.300000X-0.250000X0*%
%ADD21RoundRect,0.050800X1.000000X0.500000X-1.000000X0.500000X-1.000000X-0.500000X1.000000X-0.500000X0*%
%ADD22RoundRect,0.050800X-0.800000X-0.901500X0.800000X-0.901500X0.800000X0.901500X-0.800000X0.901500X0*%
%ADD23RoundRect,0.050800X-0.600000X0.600000X-0.600000X-0.600000X0.600000X-0.600000X0.600000X0.600000X0*%
%ADD24RoundRect,0.050800X0.600000X0.600000X-0.600000X0.600000X-0.600000X-0.600000X0.600000X-0.600000X0*%
%ADD25RoundRect,0.102000X-0.775000X0.300000X-0.775000X-0.300000X0.775000X-0.300000X0.775000X0.300000X0*%
%ADD26RoundRect,0.102000X0.900000X-0.600000X0.900000X0.600000X-0.900000X0.600000X-0.900000X-0.600000X0*%
%ADD27C,3.200000*%
%ADD28RoundRect,0.050800X-0.300000X0.250000X-0.300000X-0.250000X0.300000X-0.250000X0.300000X0.250000X0*%
%ADD29RoundRect,0.050800X0.250000X0.300000X-0.250000X0.300000X-0.250000X-0.300000X0.250000X-0.300000X0*%
%ADD30RoundRect,0.050800X0.475000X-0.200000X0.475000X0.200000X-0.475000X0.200000X-0.475000X-0.200000X0*%
%ADD31RoundRect,0.050800X0.200000X0.475000X-0.200000X0.475000X-0.200000X-0.475000X0.200000X-0.475000X0*%
%ADD32RoundRect,0.050800X-0.475000X0.200000X-0.475000X-0.200000X0.475000X-0.200000X0.475000X0.200000X0*%
%ADD33RoundRect,0.050800X-0.200000X-0.475000X0.200000X-0.475000X0.200000X0.475000X-0.200000X0.475000X0*%
%ADD34RoundRect,0.050800X-1.150000X-1.150000X1.150000X-1.150000X1.150000X1.150000X-1.150000X1.150000X0*%
%ADD35RoundRect,0.050800X0.600000X-0.600000X0.600000X0.600000X-0.600000X0.600000X-0.600000X-0.600000X0*%
%ADD36RoundRect,0.102000X0.300000X-0.775000X0.300000X0.775000X-0.300000X0.775000X-0.300000X-0.775000X0*%
%ADD37RoundRect,0.102000X0.600000X0.900000X-0.600000X0.900000X-0.600000X-0.900000X0.600000X-0.900000X0*%
%ADD38RoundRect,0.050800X0.150000X0.340000X-0.150000X0.340000X-0.150000X-0.340000X0.150000X-0.340000X0*%
%ADD39RoundRect,0.050800X0.780000X0.725000X-0.780000X0.725000X-0.780000X-0.725000X0.780000X-0.725000X0*%
%ADD40RoundRect,0.050800X0.300000X-0.275000X0.300000X0.275000X-0.300000X0.275000X-0.300000X-0.275000X0*%
%ADD41C,1.711200*%
%ADD42C,3.417600*%
%ADD43RoundRect,0.050800X-0.248920X-0.250000X0.248920X-0.250000X0.248920X0.250000X-0.248920X0.250000X0*%
%ADD44RoundRect,0.050800X-0.150000X-0.250000X0.150000X-0.250000X0.150000X0.250000X-0.150000X0.250000X0*%
%ADD45RoundRect,0.050800X-0.250000X-0.300000X0.250000X-0.300000X0.250000X0.300000X-0.250000X0.300000X0*%
%ADD46RoundRect,0.050800X0.550000X-0.300000X0.550000X0.300000X-0.550000X0.300000X-0.550000X-0.300000X0*%
%ADD47RoundRect,0.237500X-0.300000X-0.237500X0.300000X-0.237500X0.300000X0.237500X-0.300000X0.237500X0*%
%ADD48RoundRect,0.050800X-0.775000X-0.650000X0.775000X-0.650000X0.775000X0.650000X-0.775000X0.650000X0*%
%ADD49RoundRect,0.050800X0.750000X-0.650000X0.750000X0.650000X-0.750000X0.650000X-0.750000X-0.650000X0*%
%ADD50RoundRect,0.050800X0.260000X-0.150000X0.260000X0.150000X-0.260000X0.150000X-0.260000X-0.150000X0*%
%ADD51RoundRect,0.050800X0.245000X-0.150000X0.245000X0.150000X-0.245000X0.150000X-0.245000X-0.150000X0*%
%ADD52RoundRect,0.050800X-0.500000X-2.300000X0.500000X-2.300000X0.500000X2.300000X-0.500000X2.300000X0*%
%ADD53RoundRect,0.050800X0.800000X-1.700000X0.800000X1.700000X-0.800000X1.700000X-0.800000X-1.700000X0*%
%ADD54RoundRect,0.050800X-0.400000X-0.400000X0.400000X-0.400000X0.400000X0.400000X-0.400000X0.400000X0*%
%ADD55RoundRect,0.050800X0.800000X0.901500X-0.800000X0.901500X-0.800000X-0.901500X0.800000X-0.901500X0*%
%ADD56RoundRect,0.050800X-0.500000X-0.700000X0.500000X-0.700000X0.500000X0.700000X-0.500000X0.700000X0*%
%ADD57RoundRect,0.050800X-1.100000X-0.510000X1.100000X-0.510000X1.100000X0.510000X-1.100000X0.510000X0*%
%ADD58RoundRect,0.050800X-1.100000X-0.500000X1.100000X-0.500000X1.100000X0.500000X-1.100000X0.500000X0*%
%ADD59RoundRect,0.050800X0.248920X0.250000X-0.248920X0.250000X-0.248920X-0.250000X0.248920X-0.250000X0*%
%ADD60RoundRect,0.050800X0.150000X0.250000X-0.150000X0.250000X-0.150000X-0.250000X0.150000X-0.250000X0*%
%ADD61C,1.000000*%
%ADD62RoundRect,0.050800X-0.700000X0.850000X-0.700000X-0.850000X0.700000X-0.850000X0.700000X0.850000X0*%
%ADD63RoundRect,0.558800X0.000010X-0.000010X0.000010X0.000010X-0.000010X0.000010X-0.000010X-0.000010X0*%
%ADD64RoundRect,0.050800X-1.000000X-0.500000X1.000000X-0.500000X1.000000X0.500000X-1.000000X0.500000X0*%
%ADD65RoundRect,0.050800X0.700000X-0.450000X0.700000X0.450000X-0.700000X0.450000X-0.700000X-0.450000X0*%
%ADD66RoundRect,0.558800X-0.000010X-0.000010X0.000010X-0.000010X0.000010X0.000010X-0.000010X0.000010X0*%
%ADD67C,0.650000*%
%ADD68RoundRect,0.150000X0.150000X0.425000X-0.150000X0.425000X-0.150000X-0.425000X0.150000X-0.425000X0*%
%ADD69RoundRect,0.075000X0.075000X0.500000X-0.075000X0.500000X-0.075000X-0.500000X0.075000X-0.500000X0*%
%ADD70O,1.000000X2.100000*%
%ADD71O,1.000000X1.800000*%
%ADD72RoundRect,0.225000X-0.250000X0.225000X-0.250000X-0.225000X0.250000X-0.225000X0.250000X0.225000X0*%
%ADD73RoundRect,0.050800X0.150000X0.425000X-0.150000X0.425000X-0.150000X-0.425000X0.150000X-0.425000X0*%
%ADD74RoundRect,0.050800X-0.425000X0.150000X-0.425000X-0.150000X0.425000X-0.150000X0.425000X0.150000X0*%
%ADD75RoundRect,0.050800X-0.150000X-0.425000X0.150000X-0.425000X0.150000X0.425000X-0.150000X0.425000X0*%
%ADD76RoundRect,0.050800X0.425000X-0.150000X0.425000X0.150000X-0.425000X0.150000X-0.425000X-0.150000X0*%
%ADD77RoundRect,0.050800X1.300000X-1.300000X1.300000X1.300000X-1.300000X1.300000X-1.300000X-1.300000X0*%
G04 APERTURE END LIST*
D10*
%TO.C,U7*%
X234735000Y-97301000D02*
X234741000Y-97301000D01*
X234746000Y-97302000D01*
X234751000Y-97303000D01*
X234756000Y-97305000D01*
X234761000Y-97307000D01*
X234766000Y-97309000D01*
X234770000Y-97311000D01*
X234775000Y-97313000D01*
X234779000Y-97316000D01*
X234784000Y-97319000D01*
X234788000Y-97322000D01*
X234792000Y-97326000D01*
X234796000Y-97329000D01*
X234799000Y-97333000D01*
X234803000Y-97337000D01*
X234806000Y-97341000D01*
X234809000Y-97346000D01*
X234812000Y-97350000D01*
X234814000Y-97355000D01*
X234816000Y-97359000D01*
X234818000Y-97364000D01*
X234820000Y-97369000D01*
X234822000Y-97374000D01*
X234823000Y-97379000D01*
X234824000Y-97384000D01*
X234824000Y-97390000D01*
X234825000Y-97395000D01*
X234825000Y-97400000D01*
X234825000Y-97600000D01*
X234825000Y-97605000D01*
X234824000Y-97610000D01*
X234824000Y-97616000D01*
X234823000Y-97621000D01*
X234822000Y-97626000D01*
X234820000Y-97631000D01*
X234818000Y-97636000D01*
X234816000Y-97641000D01*
X234814000Y-97645000D01*
X234812000Y-97650000D01*
X234809000Y-97654000D01*
X234806000Y-97659000D01*
X234803000Y-97663000D01*
X234799000Y-97667000D01*
X234796000Y-97671000D01*
X234792000Y-97674000D01*
X234788000Y-97678000D01*
X234784000Y-97681000D01*
X234779000Y-97684000D01*
X234775000Y-97687000D01*
X234770000Y-97689000D01*
X234766000Y-97691000D01*
X234761000Y-97693000D01*
X234756000Y-97695000D01*
X234751000Y-97697000D01*
X234746000Y-97698000D01*
X234741000Y-97699000D01*
X234735000Y-97699000D01*
X234730000Y-97700000D01*
X234725000Y-97700000D01*
X233775000Y-97700000D01*
X233770000Y-97700000D01*
X233765000Y-97699000D01*
X233759000Y-97699000D01*
X233754000Y-97698000D01*
X233749000Y-97697000D01*
X233744000Y-97695000D01*
X233739000Y-97693000D01*
X233734000Y-97691000D01*
X233730000Y-97689000D01*
X233725000Y-97687000D01*
X233721000Y-97684000D01*
X233716000Y-97681000D01*
X233712000Y-97678000D01*
X233708000Y-97674000D01*
X233704000Y-97671000D01*
X233701000Y-97667000D01*
X233697000Y-97663000D01*
X233694000Y-97659000D01*
X233691000Y-97654000D01*
X233688000Y-97650000D01*
X233686000Y-97645000D01*
X233684000Y-97641000D01*
X233682000Y-97636000D01*
X233680000Y-97631000D01*
X233678000Y-97626000D01*
X233677000Y-97621000D01*
X233676000Y-97616000D01*
X233676000Y-97610000D01*
X233675000Y-97605000D01*
X233675000Y-97600000D01*
X233675000Y-97400000D01*
X233675000Y-97395000D01*
X233676000Y-97390000D01*
X233676000Y-97384000D01*
X233677000Y-97379000D01*
X233678000Y-97374000D01*
X233680000Y-97369000D01*
X233682000Y-97364000D01*
X233684000Y-97359000D01*
X233686000Y-97355000D01*
X233688000Y-97350000D01*
X233691000Y-97346000D01*
X233694000Y-97341000D01*
X233697000Y-97337000D01*
X233701000Y-97333000D01*
X233704000Y-97329000D01*
X233708000Y-97326000D01*
X233712000Y-97322000D01*
X233716000Y-97319000D01*
X233721000Y-97316000D01*
X233725000Y-97313000D01*
X233730000Y-97311000D01*
X233734000Y-97309000D01*
X233739000Y-97307000D01*
X233744000Y-97305000D01*
X233749000Y-97303000D01*
X233754000Y-97302000D01*
X233759000Y-97301000D01*
X233765000Y-97301000D01*
X233770000Y-97300000D01*
X233775000Y-97300000D01*
X234725000Y-97300000D01*
X234730000Y-97300000D01*
X234735000Y-97301000D01*
G36*
X234735000Y-97301000D02*
G01*
X234741000Y-97301000D01*
X234746000Y-97302000D01*
X234751000Y-97303000D01*
X234756000Y-97305000D01*
X234761000Y-97307000D01*
X234766000Y-97309000D01*
X234770000Y-97311000D01*
X234775000Y-97313000D01*
X234779000Y-97316000D01*
X234784000Y-97319000D01*
X234788000Y-97322000D01*
X234792000Y-97326000D01*
X234796000Y-97329000D01*
X234799000Y-97333000D01*
X234803000Y-97337000D01*
X234806000Y-97341000D01*
X234809000Y-97346000D01*
X234812000Y-97350000D01*
X234814000Y-97355000D01*
X234816000Y-97359000D01*
X234818000Y-97364000D01*
X234820000Y-97369000D01*
X234822000Y-97374000D01*
X234823000Y-97379000D01*
X234824000Y-97384000D01*
X234824000Y-97390000D01*
X234825000Y-97395000D01*
X234825000Y-97400000D01*
X234825000Y-97600000D01*
X234825000Y-97605000D01*
X234824000Y-97610000D01*
X234824000Y-97616000D01*
X234823000Y-97621000D01*
X234822000Y-97626000D01*
X234820000Y-97631000D01*
X234818000Y-97636000D01*
X234816000Y-97641000D01*
X234814000Y-97645000D01*
X234812000Y-97650000D01*
X234809000Y-97654000D01*
X234806000Y-97659000D01*
X234803000Y-97663000D01*
X234799000Y-97667000D01*
X234796000Y-97671000D01*
X234792000Y-97674000D01*
X234788000Y-97678000D01*
X234784000Y-97681000D01*
X234779000Y-97684000D01*
X234775000Y-97687000D01*
X234770000Y-97689000D01*
X234766000Y-97691000D01*
X234761000Y-97693000D01*
X234756000Y-97695000D01*
X234751000Y-97697000D01*
X234746000Y-97698000D01*
X234741000Y-97699000D01*
X234735000Y-97699000D01*
X234730000Y-97700000D01*
X234725000Y-97700000D01*
X233775000Y-97700000D01*
X233770000Y-97700000D01*
X233765000Y-97699000D01*
X233759000Y-97699000D01*
X233754000Y-97698000D01*
X233749000Y-97697000D01*
X233744000Y-97695000D01*
X233739000Y-97693000D01*
X233734000Y-97691000D01*
X233730000Y-97689000D01*
X233725000Y-97687000D01*
X233721000Y-97684000D01*
X233716000Y-97681000D01*
X233712000Y-97678000D01*
X233708000Y-97674000D01*
X233704000Y-97671000D01*
X233701000Y-97667000D01*
X233697000Y-97663000D01*
X233694000Y-97659000D01*
X233691000Y-97654000D01*
X233688000Y-97650000D01*
X233686000Y-97645000D01*
X233684000Y-97641000D01*
X233682000Y-97636000D01*
X233680000Y-97631000D01*
X233678000Y-97626000D01*
X233677000Y-97621000D01*
X233676000Y-97616000D01*
X233676000Y-97610000D01*
X233675000Y-97605000D01*
X233675000Y-97600000D01*
X233675000Y-97400000D01*
X233675000Y-97395000D01*
X233676000Y-97390000D01*
X233676000Y-97384000D01*
X233677000Y-97379000D01*
X233678000Y-97374000D01*
X233680000Y-97369000D01*
X233682000Y-97364000D01*
X233684000Y-97359000D01*
X233686000Y-97355000D01*
X233688000Y-97350000D01*
X233691000Y-97346000D01*
X233694000Y-97341000D01*
X233697000Y-97337000D01*
X233701000Y-97333000D01*
X233704000Y-97329000D01*
X233708000Y-97326000D01*
X233712000Y-97322000D01*
X233716000Y-97319000D01*
X233721000Y-97316000D01*
X233725000Y-97313000D01*
X233730000Y-97311000D01*
X233734000Y-97309000D01*
X233739000Y-97307000D01*
X233744000Y-97305000D01*
X233749000Y-97303000D01*
X233754000Y-97302000D01*
X233759000Y-97301000D01*
X233765000Y-97301000D01*
X233770000Y-97300000D01*
X233775000Y-97300000D01*
X234725000Y-97300000D01*
X234730000Y-97300000D01*
X234735000Y-97301000D01*
G37*
X234735000Y-97801000D02*
X234741000Y-97801000D01*
X234746000Y-97802000D01*
X234751000Y-97803000D01*
X234756000Y-97805000D01*
X234761000Y-97807000D01*
X234766000Y-97809000D01*
X234770000Y-97811000D01*
X234775000Y-97813000D01*
X234779000Y-97816000D01*
X234784000Y-97819000D01*
X234788000Y-97822000D01*
X234792000Y-97826000D01*
X234796000Y-97829000D01*
X234799000Y-97833000D01*
X234803000Y-97837000D01*
X234806000Y-97841000D01*
X234809000Y-97846000D01*
X234812000Y-97850000D01*
X234814000Y-97855000D01*
X234816000Y-97859000D01*
X234818000Y-97864000D01*
X234820000Y-97869000D01*
X234822000Y-97874000D01*
X234823000Y-97879000D01*
X234824000Y-97884000D01*
X234824000Y-97890000D01*
X234825000Y-97895000D01*
X234825000Y-97900000D01*
X234825000Y-98100000D01*
X234825000Y-98105000D01*
X234824000Y-98110000D01*
X234824000Y-98116000D01*
X234823000Y-98121000D01*
X234822000Y-98126000D01*
X234820000Y-98131000D01*
X234818000Y-98136000D01*
X234816000Y-98141000D01*
X234814000Y-98145000D01*
X234812000Y-98150000D01*
X234809000Y-98154000D01*
X234806000Y-98159000D01*
X234803000Y-98163000D01*
X234799000Y-98167000D01*
X234796000Y-98171000D01*
X234792000Y-98174000D01*
X234788000Y-98178000D01*
X234784000Y-98181000D01*
X234779000Y-98184000D01*
X234775000Y-98187000D01*
X234770000Y-98189000D01*
X234766000Y-98191000D01*
X234761000Y-98193000D01*
X234756000Y-98195000D01*
X234751000Y-98197000D01*
X234746000Y-98198000D01*
X234741000Y-98199000D01*
X234735000Y-98199000D01*
X234730000Y-98200000D01*
X234725000Y-98200000D01*
X233775000Y-98200000D01*
X233770000Y-98200000D01*
X233765000Y-98199000D01*
X233759000Y-98199000D01*
X233754000Y-98198000D01*
X233749000Y-98197000D01*
X233744000Y-98195000D01*
X233739000Y-98193000D01*
X233734000Y-98191000D01*
X233730000Y-98189000D01*
X233725000Y-98187000D01*
X233721000Y-98184000D01*
X233716000Y-98181000D01*
X233712000Y-98178000D01*
X233708000Y-98174000D01*
X233704000Y-98171000D01*
X233701000Y-98167000D01*
X233697000Y-98163000D01*
X233694000Y-98159000D01*
X233691000Y-98154000D01*
X233688000Y-98150000D01*
X233686000Y-98145000D01*
X233684000Y-98141000D01*
X233682000Y-98136000D01*
X233680000Y-98131000D01*
X233678000Y-98126000D01*
X233677000Y-98121000D01*
X233676000Y-98116000D01*
X233676000Y-98110000D01*
X233675000Y-98105000D01*
X233675000Y-98100000D01*
X233675000Y-97900000D01*
X233675000Y-97895000D01*
X233676000Y-97890000D01*
X233676000Y-97884000D01*
X233677000Y-97879000D01*
X233678000Y-97874000D01*
X233680000Y-97869000D01*
X233682000Y-97864000D01*
X233684000Y-97859000D01*
X233686000Y-97855000D01*
X233688000Y-97850000D01*
X233691000Y-97846000D01*
X233694000Y-97841000D01*
X233697000Y-97837000D01*
X233701000Y-97833000D01*
X233704000Y-97829000D01*
X233708000Y-97826000D01*
X233712000Y-97822000D01*
X233716000Y-97819000D01*
X233721000Y-97816000D01*
X233725000Y-97813000D01*
X233730000Y-97811000D01*
X233734000Y-97809000D01*
X233739000Y-97807000D01*
X233744000Y-97805000D01*
X233749000Y-97803000D01*
X233754000Y-97802000D01*
X233759000Y-97801000D01*
X233765000Y-97801000D01*
X233770000Y-97800000D01*
X233775000Y-97800000D01*
X234725000Y-97800000D01*
X234730000Y-97800000D01*
X234735000Y-97801000D01*
G36*
X234735000Y-97801000D02*
G01*
X234741000Y-97801000D01*
X234746000Y-97802000D01*
X234751000Y-97803000D01*
X234756000Y-97805000D01*
X234761000Y-97807000D01*
X234766000Y-97809000D01*
X234770000Y-97811000D01*
X234775000Y-97813000D01*
X234779000Y-97816000D01*
X234784000Y-97819000D01*
X234788000Y-97822000D01*
X234792000Y-97826000D01*
X234796000Y-97829000D01*
X234799000Y-97833000D01*
X234803000Y-97837000D01*
X234806000Y-97841000D01*
X234809000Y-97846000D01*
X234812000Y-97850000D01*
X234814000Y-97855000D01*
X234816000Y-97859000D01*
X234818000Y-97864000D01*
X234820000Y-97869000D01*
X234822000Y-97874000D01*
X234823000Y-97879000D01*
X234824000Y-97884000D01*
X234824000Y-97890000D01*
X234825000Y-97895000D01*
X234825000Y-97900000D01*
X234825000Y-98100000D01*
X234825000Y-98105000D01*
X234824000Y-98110000D01*
X234824000Y-98116000D01*
X234823000Y-98121000D01*
X234822000Y-98126000D01*
X234820000Y-98131000D01*
X234818000Y-98136000D01*
X234816000Y-98141000D01*
X234814000Y-98145000D01*
X234812000Y-98150000D01*
X234809000Y-98154000D01*
X234806000Y-98159000D01*
X234803000Y-98163000D01*
X234799000Y-98167000D01*
X234796000Y-98171000D01*
X234792000Y-98174000D01*
X234788000Y-98178000D01*
X234784000Y-98181000D01*
X234779000Y-98184000D01*
X234775000Y-98187000D01*
X234770000Y-98189000D01*
X234766000Y-98191000D01*
X234761000Y-98193000D01*
X234756000Y-98195000D01*
X234751000Y-98197000D01*
X234746000Y-98198000D01*
X234741000Y-98199000D01*
X234735000Y-98199000D01*
X234730000Y-98200000D01*
X234725000Y-98200000D01*
X233775000Y-98200000D01*
X233770000Y-98200000D01*
X233765000Y-98199000D01*
X233759000Y-98199000D01*
X233754000Y-98198000D01*
X233749000Y-98197000D01*
X233744000Y-98195000D01*
X233739000Y-98193000D01*
X233734000Y-98191000D01*
X233730000Y-98189000D01*
X233725000Y-98187000D01*
X233721000Y-98184000D01*
X233716000Y-98181000D01*
X233712000Y-98178000D01*
X233708000Y-98174000D01*
X233704000Y-98171000D01*
X233701000Y-98167000D01*
X233697000Y-98163000D01*
X233694000Y-98159000D01*
X233691000Y-98154000D01*
X233688000Y-98150000D01*
X233686000Y-98145000D01*
X233684000Y-98141000D01*
X233682000Y-98136000D01*
X233680000Y-98131000D01*
X233678000Y-98126000D01*
X233677000Y-98121000D01*
X233676000Y-98116000D01*
X233676000Y-98110000D01*
X233675000Y-98105000D01*
X233675000Y-98100000D01*
X233675000Y-97900000D01*
X233675000Y-97895000D01*
X233676000Y-97890000D01*
X233676000Y-97884000D01*
X233677000Y-97879000D01*
X233678000Y-97874000D01*
X233680000Y-97869000D01*
X233682000Y-97864000D01*
X233684000Y-97859000D01*
X233686000Y-97855000D01*
X233688000Y-97850000D01*
X233691000Y-97846000D01*
X233694000Y-97841000D01*
X233697000Y-97837000D01*
X233701000Y-97833000D01*
X233704000Y-97829000D01*
X233708000Y-97826000D01*
X233712000Y-97822000D01*
X233716000Y-97819000D01*
X233721000Y-97816000D01*
X233725000Y-97813000D01*
X233730000Y-97811000D01*
X233734000Y-97809000D01*
X233739000Y-97807000D01*
X233744000Y-97805000D01*
X233749000Y-97803000D01*
X233754000Y-97802000D01*
X233759000Y-97801000D01*
X233765000Y-97801000D01*
X233770000Y-97800000D01*
X233775000Y-97800000D01*
X234725000Y-97800000D01*
X234730000Y-97800000D01*
X234735000Y-97801000D01*
G37*
X234735000Y-98301000D02*
X234741000Y-98301000D01*
X234746000Y-98302000D01*
X234751000Y-98303000D01*
X234756000Y-98305000D01*
X234761000Y-98307000D01*
X234766000Y-98309000D01*
X234770000Y-98311000D01*
X234775000Y-98313000D01*
X234779000Y-98316000D01*
X234784000Y-98319000D01*
X234788000Y-98322000D01*
X234792000Y-98326000D01*
X234796000Y-98329000D01*
X234799000Y-98333000D01*
X234803000Y-98337000D01*
X234806000Y-98341000D01*
X234809000Y-98346000D01*
X234812000Y-98350000D01*
X234814000Y-98355000D01*
X234816000Y-98359000D01*
X234818000Y-98364000D01*
X234820000Y-98369000D01*
X234822000Y-98374000D01*
X234823000Y-98379000D01*
X234824000Y-98384000D01*
X234824000Y-98390000D01*
X234825000Y-98395000D01*
X234825000Y-98400000D01*
X234825000Y-98600000D01*
X234825000Y-98605000D01*
X234824000Y-98610000D01*
X234824000Y-98616000D01*
X234823000Y-98621000D01*
X234822000Y-98626000D01*
X234820000Y-98631000D01*
X234818000Y-98636000D01*
X234816000Y-98641000D01*
X234814000Y-98645000D01*
X234812000Y-98650000D01*
X234809000Y-98654000D01*
X234806000Y-98659000D01*
X234803000Y-98663000D01*
X234799000Y-98667000D01*
X234796000Y-98671000D01*
X234792000Y-98674000D01*
X234788000Y-98678000D01*
X234784000Y-98681000D01*
X234779000Y-98684000D01*
X234775000Y-98687000D01*
X234770000Y-98689000D01*
X234766000Y-98691000D01*
X234761000Y-98693000D01*
X234756000Y-98695000D01*
X234751000Y-98697000D01*
X234746000Y-98698000D01*
X234741000Y-98699000D01*
X234735000Y-98699000D01*
X234730000Y-98700000D01*
X234725000Y-98700000D01*
X233775000Y-98700000D01*
X233770000Y-98700000D01*
X233765000Y-98699000D01*
X233759000Y-98699000D01*
X233754000Y-98698000D01*
X233749000Y-98697000D01*
X233744000Y-98695000D01*
X233739000Y-98693000D01*
X233734000Y-98691000D01*
X233730000Y-98689000D01*
X233725000Y-98687000D01*
X233721000Y-98684000D01*
X233716000Y-98681000D01*
X233712000Y-98678000D01*
X233708000Y-98674000D01*
X233704000Y-98671000D01*
X233701000Y-98667000D01*
X233697000Y-98663000D01*
X233694000Y-98659000D01*
X233691000Y-98654000D01*
X233688000Y-98650000D01*
X233686000Y-98645000D01*
X233684000Y-98641000D01*
X233682000Y-98636000D01*
X233680000Y-98631000D01*
X233678000Y-98626000D01*
X233677000Y-98621000D01*
X233676000Y-98616000D01*
X233676000Y-98610000D01*
X233675000Y-98605000D01*
X233675000Y-98600000D01*
X233675000Y-98400000D01*
X233675000Y-98395000D01*
X233676000Y-98390000D01*
X233676000Y-98384000D01*
X233677000Y-98379000D01*
X233678000Y-98374000D01*
X233680000Y-98369000D01*
X233682000Y-98364000D01*
X233684000Y-98359000D01*
X233686000Y-98355000D01*
X233688000Y-98350000D01*
X233691000Y-98346000D01*
X233694000Y-98341000D01*
X233697000Y-98337000D01*
X233701000Y-98333000D01*
X233704000Y-98329000D01*
X233708000Y-98326000D01*
X233712000Y-98322000D01*
X233716000Y-98319000D01*
X233721000Y-98316000D01*
X233725000Y-98313000D01*
X233730000Y-98311000D01*
X233734000Y-98309000D01*
X233739000Y-98307000D01*
X233744000Y-98305000D01*
X233749000Y-98303000D01*
X233754000Y-98302000D01*
X233759000Y-98301000D01*
X233765000Y-98301000D01*
X233770000Y-98300000D01*
X233775000Y-98300000D01*
X234725000Y-98300000D01*
X234730000Y-98300000D01*
X234735000Y-98301000D01*
G36*
X234735000Y-98301000D02*
G01*
X234741000Y-98301000D01*
X234746000Y-98302000D01*
X234751000Y-98303000D01*
X234756000Y-98305000D01*
X234761000Y-98307000D01*
X234766000Y-98309000D01*
X234770000Y-98311000D01*
X234775000Y-98313000D01*
X234779000Y-98316000D01*
X234784000Y-98319000D01*
X234788000Y-98322000D01*
X234792000Y-98326000D01*
X234796000Y-98329000D01*
X234799000Y-98333000D01*
X234803000Y-98337000D01*
X234806000Y-98341000D01*
X234809000Y-98346000D01*
X234812000Y-98350000D01*
X234814000Y-98355000D01*
X234816000Y-98359000D01*
X234818000Y-98364000D01*
X234820000Y-98369000D01*
X234822000Y-98374000D01*
X234823000Y-98379000D01*
X234824000Y-98384000D01*
X234824000Y-98390000D01*
X234825000Y-98395000D01*
X234825000Y-98400000D01*
X234825000Y-98600000D01*
X234825000Y-98605000D01*
X234824000Y-98610000D01*
X234824000Y-98616000D01*
X234823000Y-98621000D01*
X234822000Y-98626000D01*
X234820000Y-98631000D01*
X234818000Y-98636000D01*
X234816000Y-98641000D01*
X234814000Y-98645000D01*
X234812000Y-98650000D01*
X234809000Y-98654000D01*
X234806000Y-98659000D01*
X234803000Y-98663000D01*
X234799000Y-98667000D01*
X234796000Y-98671000D01*
X234792000Y-98674000D01*
X234788000Y-98678000D01*
X234784000Y-98681000D01*
X234779000Y-98684000D01*
X234775000Y-98687000D01*
X234770000Y-98689000D01*
X234766000Y-98691000D01*
X234761000Y-98693000D01*
X234756000Y-98695000D01*
X234751000Y-98697000D01*
X234746000Y-98698000D01*
X234741000Y-98699000D01*
X234735000Y-98699000D01*
X234730000Y-98700000D01*
X234725000Y-98700000D01*
X233775000Y-98700000D01*
X233770000Y-98700000D01*
X233765000Y-98699000D01*
X233759000Y-98699000D01*
X233754000Y-98698000D01*
X233749000Y-98697000D01*
X233744000Y-98695000D01*
X233739000Y-98693000D01*
X233734000Y-98691000D01*
X233730000Y-98689000D01*
X233725000Y-98687000D01*
X233721000Y-98684000D01*
X233716000Y-98681000D01*
X233712000Y-98678000D01*
X233708000Y-98674000D01*
X233704000Y-98671000D01*
X233701000Y-98667000D01*
X233697000Y-98663000D01*
X233694000Y-98659000D01*
X233691000Y-98654000D01*
X233688000Y-98650000D01*
X233686000Y-98645000D01*
X233684000Y-98641000D01*
X233682000Y-98636000D01*
X233680000Y-98631000D01*
X233678000Y-98626000D01*
X233677000Y-98621000D01*
X233676000Y-98616000D01*
X233676000Y-98610000D01*
X233675000Y-98605000D01*
X233675000Y-98600000D01*
X233675000Y-98400000D01*
X233675000Y-98395000D01*
X233676000Y-98390000D01*
X233676000Y-98384000D01*
X233677000Y-98379000D01*
X233678000Y-98374000D01*
X233680000Y-98369000D01*
X233682000Y-98364000D01*
X233684000Y-98359000D01*
X233686000Y-98355000D01*
X233688000Y-98350000D01*
X233691000Y-98346000D01*
X233694000Y-98341000D01*
X233697000Y-98337000D01*
X233701000Y-98333000D01*
X233704000Y-98329000D01*
X233708000Y-98326000D01*
X233712000Y-98322000D01*
X233716000Y-98319000D01*
X233721000Y-98316000D01*
X233725000Y-98313000D01*
X233730000Y-98311000D01*
X233734000Y-98309000D01*
X233739000Y-98307000D01*
X233744000Y-98305000D01*
X233749000Y-98303000D01*
X233754000Y-98302000D01*
X233759000Y-98301000D01*
X233765000Y-98301000D01*
X233770000Y-98300000D01*
X233775000Y-98300000D01*
X234725000Y-98300000D01*
X234730000Y-98300000D01*
X234735000Y-98301000D01*
G37*
X234735000Y-98801000D02*
X234741000Y-98801000D01*
X234746000Y-98802000D01*
X234751000Y-98803000D01*
X234756000Y-98805000D01*
X234761000Y-98807000D01*
X234766000Y-98809000D01*
X234770000Y-98811000D01*
X234775000Y-98813000D01*
X234779000Y-98816000D01*
X234784000Y-98819000D01*
X234788000Y-98822000D01*
X234792000Y-98826000D01*
X234796000Y-98829000D01*
X234799000Y-98833000D01*
X234803000Y-98837000D01*
X234806000Y-98841000D01*
X234809000Y-98846000D01*
X234812000Y-98850000D01*
X234814000Y-98855000D01*
X234816000Y-98859000D01*
X234818000Y-98864000D01*
X234820000Y-98869000D01*
X234822000Y-98874000D01*
X234823000Y-98879000D01*
X234824000Y-98884000D01*
X234824000Y-98890000D01*
X234825000Y-98895000D01*
X234825000Y-98900000D01*
X234825000Y-99100000D01*
X234825000Y-99105000D01*
X234824000Y-99110000D01*
X234824000Y-99116000D01*
X234823000Y-99121000D01*
X234822000Y-99126000D01*
X234820000Y-99131000D01*
X234818000Y-99136000D01*
X234816000Y-99141000D01*
X234814000Y-99145000D01*
X234812000Y-99150000D01*
X234809000Y-99154000D01*
X234806000Y-99159000D01*
X234803000Y-99163000D01*
X234799000Y-99167000D01*
X234796000Y-99171000D01*
X234792000Y-99174000D01*
X234788000Y-99178000D01*
X234784000Y-99181000D01*
X234779000Y-99184000D01*
X234775000Y-99187000D01*
X234770000Y-99189000D01*
X234766000Y-99191000D01*
X234761000Y-99193000D01*
X234756000Y-99195000D01*
X234751000Y-99197000D01*
X234746000Y-99198000D01*
X234741000Y-99199000D01*
X234735000Y-99199000D01*
X234730000Y-99200000D01*
X234725000Y-99200000D01*
X233775000Y-99200000D01*
X233770000Y-99200000D01*
X233765000Y-99199000D01*
X233759000Y-99199000D01*
X233754000Y-99198000D01*
X233749000Y-99197000D01*
X233744000Y-99195000D01*
X233739000Y-99193000D01*
X233734000Y-99191000D01*
X233730000Y-99189000D01*
X233725000Y-99187000D01*
X233721000Y-99184000D01*
X233716000Y-99181000D01*
X233712000Y-99178000D01*
X233708000Y-99174000D01*
X233704000Y-99171000D01*
X233701000Y-99167000D01*
X233697000Y-99163000D01*
X233694000Y-99159000D01*
X233691000Y-99154000D01*
X233688000Y-99150000D01*
X233686000Y-99145000D01*
X233684000Y-99141000D01*
X233682000Y-99136000D01*
X233680000Y-99131000D01*
X233678000Y-99126000D01*
X233677000Y-99121000D01*
X233676000Y-99116000D01*
X233676000Y-99110000D01*
X233675000Y-99105000D01*
X233675000Y-99100000D01*
X233675000Y-98900000D01*
X233675000Y-98895000D01*
X233676000Y-98890000D01*
X233676000Y-98884000D01*
X233677000Y-98879000D01*
X233678000Y-98874000D01*
X233680000Y-98869000D01*
X233682000Y-98864000D01*
X233684000Y-98859000D01*
X233686000Y-98855000D01*
X233688000Y-98850000D01*
X233691000Y-98846000D01*
X233694000Y-98841000D01*
X233697000Y-98837000D01*
X233701000Y-98833000D01*
X233704000Y-98829000D01*
X233708000Y-98826000D01*
X233712000Y-98822000D01*
X233716000Y-98819000D01*
X233721000Y-98816000D01*
X233725000Y-98813000D01*
X233730000Y-98811000D01*
X233734000Y-98809000D01*
X233739000Y-98807000D01*
X233744000Y-98805000D01*
X233749000Y-98803000D01*
X233754000Y-98802000D01*
X233759000Y-98801000D01*
X233765000Y-98801000D01*
X233770000Y-98800000D01*
X233775000Y-98800000D01*
X234725000Y-98800000D01*
X234730000Y-98800000D01*
X234735000Y-98801000D01*
G36*
X234735000Y-98801000D02*
G01*
X234741000Y-98801000D01*
X234746000Y-98802000D01*
X234751000Y-98803000D01*
X234756000Y-98805000D01*
X234761000Y-98807000D01*
X234766000Y-98809000D01*
X234770000Y-98811000D01*
X234775000Y-98813000D01*
X234779000Y-98816000D01*
X234784000Y-98819000D01*
X234788000Y-98822000D01*
X234792000Y-98826000D01*
X234796000Y-98829000D01*
X234799000Y-98833000D01*
X234803000Y-98837000D01*
X234806000Y-98841000D01*
X234809000Y-98846000D01*
X234812000Y-98850000D01*
X234814000Y-98855000D01*
X234816000Y-98859000D01*
X234818000Y-98864000D01*
X234820000Y-98869000D01*
X234822000Y-98874000D01*
X234823000Y-98879000D01*
X234824000Y-98884000D01*
X234824000Y-98890000D01*
X234825000Y-98895000D01*
X234825000Y-98900000D01*
X234825000Y-99100000D01*
X234825000Y-99105000D01*
X234824000Y-99110000D01*
X234824000Y-99116000D01*
X234823000Y-99121000D01*
X234822000Y-99126000D01*
X234820000Y-99131000D01*
X234818000Y-99136000D01*
X234816000Y-99141000D01*
X234814000Y-99145000D01*
X234812000Y-99150000D01*
X234809000Y-99154000D01*
X234806000Y-99159000D01*
X234803000Y-99163000D01*
X234799000Y-99167000D01*
X234796000Y-99171000D01*
X234792000Y-99174000D01*
X234788000Y-99178000D01*
X234784000Y-99181000D01*
X234779000Y-99184000D01*
X234775000Y-99187000D01*
X234770000Y-99189000D01*
X234766000Y-99191000D01*
X234761000Y-99193000D01*
X234756000Y-99195000D01*
X234751000Y-99197000D01*
X234746000Y-99198000D01*
X234741000Y-99199000D01*
X234735000Y-99199000D01*
X234730000Y-99200000D01*
X234725000Y-99200000D01*
X233775000Y-99200000D01*
X233770000Y-99200000D01*
X233765000Y-99199000D01*
X233759000Y-99199000D01*
X233754000Y-99198000D01*
X233749000Y-99197000D01*
X233744000Y-99195000D01*
X233739000Y-99193000D01*
X233734000Y-99191000D01*
X233730000Y-99189000D01*
X233725000Y-99187000D01*
X233721000Y-99184000D01*
X233716000Y-99181000D01*
X233712000Y-99178000D01*
X233708000Y-99174000D01*
X233704000Y-99171000D01*
X233701000Y-99167000D01*
X233697000Y-99163000D01*
X233694000Y-99159000D01*
X233691000Y-99154000D01*
X233688000Y-99150000D01*
X233686000Y-99145000D01*
X233684000Y-99141000D01*
X233682000Y-99136000D01*
X233680000Y-99131000D01*
X233678000Y-99126000D01*
X233677000Y-99121000D01*
X233676000Y-99116000D01*
X233676000Y-99110000D01*
X233675000Y-99105000D01*
X233675000Y-99100000D01*
X233675000Y-98900000D01*
X233675000Y-98895000D01*
X233676000Y-98890000D01*
X233676000Y-98884000D01*
X233677000Y-98879000D01*
X233678000Y-98874000D01*
X233680000Y-98869000D01*
X233682000Y-98864000D01*
X233684000Y-98859000D01*
X233686000Y-98855000D01*
X233688000Y-98850000D01*
X233691000Y-98846000D01*
X233694000Y-98841000D01*
X233697000Y-98837000D01*
X233701000Y-98833000D01*
X233704000Y-98829000D01*
X233708000Y-98826000D01*
X233712000Y-98822000D01*
X233716000Y-98819000D01*
X233721000Y-98816000D01*
X233725000Y-98813000D01*
X233730000Y-98811000D01*
X233734000Y-98809000D01*
X233739000Y-98807000D01*
X233744000Y-98805000D01*
X233749000Y-98803000D01*
X233754000Y-98802000D01*
X233759000Y-98801000D01*
X233765000Y-98801000D01*
X233770000Y-98800000D01*
X233775000Y-98800000D01*
X234725000Y-98800000D01*
X234730000Y-98800000D01*
X234735000Y-98801000D01*
G37*
X234735000Y-99301000D02*
X234741000Y-99301000D01*
X234746000Y-99302000D01*
X234751000Y-99303000D01*
X234756000Y-99305000D01*
X234761000Y-99307000D01*
X234766000Y-99309000D01*
X234770000Y-99311000D01*
X234775000Y-99313000D01*
X234779000Y-99316000D01*
X234784000Y-99319000D01*
X234788000Y-99322000D01*
X234792000Y-99326000D01*
X234796000Y-99329000D01*
X234799000Y-99333000D01*
X234803000Y-99337000D01*
X234806000Y-99341000D01*
X234809000Y-99346000D01*
X234812000Y-99350000D01*
X234814000Y-99355000D01*
X234816000Y-99359000D01*
X234818000Y-99364000D01*
X234820000Y-99369000D01*
X234822000Y-99374000D01*
X234823000Y-99379000D01*
X234824000Y-99384000D01*
X234824000Y-99390000D01*
X234825000Y-99395000D01*
X234825000Y-99400000D01*
X234825000Y-99600000D01*
X234825000Y-99605000D01*
X234824000Y-99610000D01*
X234824000Y-99616000D01*
X234823000Y-99621000D01*
X234822000Y-99626000D01*
X234820000Y-99631000D01*
X234818000Y-99636000D01*
X234816000Y-99641000D01*
X234814000Y-99645000D01*
X234812000Y-99650000D01*
X234809000Y-99654000D01*
X234806000Y-99659000D01*
X234803000Y-99663000D01*
X234799000Y-99667000D01*
X234796000Y-99671000D01*
X234792000Y-99674000D01*
X234788000Y-99678000D01*
X234784000Y-99681000D01*
X234779000Y-99684000D01*
X234775000Y-99687000D01*
X234770000Y-99689000D01*
X234766000Y-99691000D01*
X234761000Y-99693000D01*
X234756000Y-99695000D01*
X234751000Y-99697000D01*
X234746000Y-99698000D01*
X234741000Y-99699000D01*
X234735000Y-99699000D01*
X234730000Y-99700000D01*
X234725000Y-99700000D01*
X233775000Y-99700000D01*
X233770000Y-99700000D01*
X233765000Y-99699000D01*
X233759000Y-99699000D01*
X233754000Y-99698000D01*
X233749000Y-99697000D01*
X233744000Y-99695000D01*
X233739000Y-99693000D01*
X233734000Y-99691000D01*
X233730000Y-99689000D01*
X233725000Y-99687000D01*
X233721000Y-99684000D01*
X233716000Y-99681000D01*
X233712000Y-99678000D01*
X233708000Y-99674000D01*
X233704000Y-99671000D01*
X233701000Y-99667000D01*
X233697000Y-99663000D01*
X233694000Y-99659000D01*
X233691000Y-99654000D01*
X233688000Y-99650000D01*
X233686000Y-99645000D01*
X233684000Y-99641000D01*
X233682000Y-99636000D01*
X233680000Y-99631000D01*
X233678000Y-99626000D01*
X233677000Y-99621000D01*
X233676000Y-99616000D01*
X233676000Y-99610000D01*
X233675000Y-99605000D01*
X233675000Y-99600000D01*
X233675000Y-99400000D01*
X233675000Y-99395000D01*
X233676000Y-99390000D01*
X233676000Y-99384000D01*
X233677000Y-99379000D01*
X233678000Y-99374000D01*
X233680000Y-99369000D01*
X233682000Y-99364000D01*
X233684000Y-99359000D01*
X233686000Y-99355000D01*
X233688000Y-99350000D01*
X233691000Y-99346000D01*
X233694000Y-99341000D01*
X233697000Y-99337000D01*
X233701000Y-99333000D01*
X233704000Y-99329000D01*
X233708000Y-99326000D01*
X233712000Y-99322000D01*
X233716000Y-99319000D01*
X233721000Y-99316000D01*
X233725000Y-99313000D01*
X233730000Y-99311000D01*
X233734000Y-99309000D01*
X233739000Y-99307000D01*
X233744000Y-99305000D01*
X233749000Y-99303000D01*
X233754000Y-99302000D01*
X233759000Y-99301000D01*
X233765000Y-99301000D01*
X233770000Y-99300000D01*
X233775000Y-99300000D01*
X234725000Y-99300000D01*
X234730000Y-99300000D01*
X234735000Y-99301000D01*
G36*
X234735000Y-99301000D02*
G01*
X234741000Y-99301000D01*
X234746000Y-99302000D01*
X234751000Y-99303000D01*
X234756000Y-99305000D01*
X234761000Y-99307000D01*
X234766000Y-99309000D01*
X234770000Y-99311000D01*
X234775000Y-99313000D01*
X234779000Y-99316000D01*
X234784000Y-99319000D01*
X234788000Y-99322000D01*
X234792000Y-99326000D01*
X234796000Y-99329000D01*
X234799000Y-99333000D01*
X234803000Y-99337000D01*
X234806000Y-99341000D01*
X234809000Y-99346000D01*
X234812000Y-99350000D01*
X234814000Y-99355000D01*
X234816000Y-99359000D01*
X234818000Y-99364000D01*
X234820000Y-99369000D01*
X234822000Y-99374000D01*
X234823000Y-99379000D01*
X234824000Y-99384000D01*
X234824000Y-99390000D01*
X234825000Y-99395000D01*
X234825000Y-99400000D01*
X234825000Y-99600000D01*
X234825000Y-99605000D01*
X234824000Y-99610000D01*
X234824000Y-99616000D01*
X234823000Y-99621000D01*
X234822000Y-99626000D01*
X234820000Y-99631000D01*
X234818000Y-99636000D01*
X234816000Y-99641000D01*
X234814000Y-99645000D01*
X234812000Y-99650000D01*
X234809000Y-99654000D01*
X234806000Y-99659000D01*
X234803000Y-99663000D01*
X234799000Y-99667000D01*
X234796000Y-99671000D01*
X234792000Y-99674000D01*
X234788000Y-99678000D01*
X234784000Y-99681000D01*
X234779000Y-99684000D01*
X234775000Y-99687000D01*
X234770000Y-99689000D01*
X234766000Y-99691000D01*
X234761000Y-99693000D01*
X234756000Y-99695000D01*
X234751000Y-99697000D01*
X234746000Y-99698000D01*
X234741000Y-99699000D01*
X234735000Y-99699000D01*
X234730000Y-99700000D01*
X234725000Y-99700000D01*
X233775000Y-99700000D01*
X233770000Y-99700000D01*
X233765000Y-99699000D01*
X233759000Y-99699000D01*
X233754000Y-99698000D01*
X233749000Y-99697000D01*
X233744000Y-99695000D01*
X233739000Y-99693000D01*
X233734000Y-99691000D01*
X233730000Y-99689000D01*
X233725000Y-99687000D01*
X233721000Y-99684000D01*
X233716000Y-99681000D01*
X233712000Y-99678000D01*
X233708000Y-99674000D01*
X233704000Y-99671000D01*
X233701000Y-99667000D01*
X233697000Y-99663000D01*
X233694000Y-99659000D01*
X233691000Y-99654000D01*
X233688000Y-99650000D01*
X233686000Y-99645000D01*
X233684000Y-99641000D01*
X233682000Y-99636000D01*
X233680000Y-99631000D01*
X233678000Y-99626000D01*
X233677000Y-99621000D01*
X233676000Y-99616000D01*
X233676000Y-99610000D01*
X233675000Y-99605000D01*
X233675000Y-99600000D01*
X233675000Y-99400000D01*
X233675000Y-99395000D01*
X233676000Y-99390000D01*
X233676000Y-99384000D01*
X233677000Y-99379000D01*
X233678000Y-99374000D01*
X233680000Y-99369000D01*
X233682000Y-99364000D01*
X233684000Y-99359000D01*
X233686000Y-99355000D01*
X233688000Y-99350000D01*
X233691000Y-99346000D01*
X233694000Y-99341000D01*
X233697000Y-99337000D01*
X233701000Y-99333000D01*
X233704000Y-99329000D01*
X233708000Y-99326000D01*
X233712000Y-99322000D01*
X233716000Y-99319000D01*
X233721000Y-99316000D01*
X233725000Y-99313000D01*
X233730000Y-99311000D01*
X233734000Y-99309000D01*
X233739000Y-99307000D01*
X233744000Y-99305000D01*
X233749000Y-99303000D01*
X233754000Y-99302000D01*
X233759000Y-99301000D01*
X233765000Y-99301000D01*
X233770000Y-99300000D01*
X233775000Y-99300000D01*
X234725000Y-99300000D01*
X234730000Y-99300000D01*
X234735000Y-99301000D01*
G37*
X234735000Y-99801000D02*
X234741000Y-99801000D01*
X234746000Y-99802000D01*
X234751000Y-99803000D01*
X234756000Y-99805000D01*
X234761000Y-99807000D01*
X234766000Y-99809000D01*
X234770000Y-99811000D01*
X234775000Y-99813000D01*
X234779000Y-99816000D01*
X234784000Y-99819000D01*
X234788000Y-99822000D01*
X234792000Y-99826000D01*
X234796000Y-99829000D01*
X234799000Y-99833000D01*
X234803000Y-99837000D01*
X234806000Y-99841000D01*
X234809000Y-99846000D01*
X234812000Y-99850000D01*
X234814000Y-99855000D01*
X234816000Y-99859000D01*
X234818000Y-99864000D01*
X234820000Y-99869000D01*
X234822000Y-99874000D01*
X234823000Y-99879000D01*
X234824000Y-99884000D01*
X234824000Y-99890000D01*
X234825000Y-99895000D01*
X234825000Y-99900000D01*
X234825000Y-100100000D01*
X234825000Y-100105000D01*
X234824000Y-100110000D01*
X234824000Y-100116000D01*
X234823000Y-100121000D01*
X234822000Y-100126000D01*
X234820000Y-100131000D01*
X234818000Y-100136000D01*
X234816000Y-100141000D01*
X234814000Y-100145000D01*
X234812000Y-100150000D01*
X234809000Y-100154000D01*
X234806000Y-100159000D01*
X234803000Y-100163000D01*
X234799000Y-100167000D01*
X234796000Y-100171000D01*
X234792000Y-100174000D01*
X234788000Y-100178000D01*
X234784000Y-100181000D01*
X234779000Y-100184000D01*
X234775000Y-100187000D01*
X234770000Y-100189000D01*
X234766000Y-100191000D01*
X234761000Y-100193000D01*
X234756000Y-100195000D01*
X234751000Y-100197000D01*
X234746000Y-100198000D01*
X234741000Y-100199000D01*
X234735000Y-100199000D01*
X234730000Y-100200000D01*
X234725000Y-100200000D01*
X233775000Y-100200000D01*
X233770000Y-100200000D01*
X233765000Y-100199000D01*
X233759000Y-100199000D01*
X233754000Y-100198000D01*
X233749000Y-100197000D01*
X233744000Y-100195000D01*
X233739000Y-100193000D01*
X233734000Y-100191000D01*
X233730000Y-100189000D01*
X233725000Y-100187000D01*
X233721000Y-100184000D01*
X233716000Y-100181000D01*
X233712000Y-100178000D01*
X233708000Y-100174000D01*
X233704000Y-100171000D01*
X233701000Y-100167000D01*
X233697000Y-100163000D01*
X233694000Y-100159000D01*
X233691000Y-100154000D01*
X233688000Y-100150000D01*
X233686000Y-100145000D01*
X233684000Y-100141000D01*
X233682000Y-100136000D01*
X233680000Y-100131000D01*
X233678000Y-100126000D01*
X233677000Y-100121000D01*
X233676000Y-100116000D01*
X233676000Y-100110000D01*
X233675000Y-100105000D01*
X233675000Y-100100000D01*
X233675000Y-99900000D01*
X233675000Y-99895000D01*
X233676000Y-99890000D01*
X233676000Y-99884000D01*
X233677000Y-99879000D01*
X233678000Y-99874000D01*
X233680000Y-99869000D01*
X233682000Y-99864000D01*
X233684000Y-99859000D01*
X233686000Y-99855000D01*
X233688000Y-99850000D01*
X233691000Y-99846000D01*
X233694000Y-99841000D01*
X233697000Y-99837000D01*
X233701000Y-99833000D01*
X233704000Y-99829000D01*
X233708000Y-99826000D01*
X233712000Y-99822000D01*
X233716000Y-99819000D01*
X233721000Y-99816000D01*
X233725000Y-99813000D01*
X233730000Y-99811000D01*
X233734000Y-99809000D01*
X233739000Y-99807000D01*
X233744000Y-99805000D01*
X233749000Y-99803000D01*
X233754000Y-99802000D01*
X233759000Y-99801000D01*
X233765000Y-99801000D01*
X233770000Y-99800000D01*
X233775000Y-99800000D01*
X234725000Y-99800000D01*
X234730000Y-99800000D01*
X234735000Y-99801000D01*
G36*
X234735000Y-99801000D02*
G01*
X234741000Y-99801000D01*
X234746000Y-99802000D01*
X234751000Y-99803000D01*
X234756000Y-99805000D01*
X234761000Y-99807000D01*
X234766000Y-99809000D01*
X234770000Y-99811000D01*
X234775000Y-99813000D01*
X234779000Y-99816000D01*
X234784000Y-99819000D01*
X234788000Y-99822000D01*
X234792000Y-99826000D01*
X234796000Y-99829000D01*
X234799000Y-99833000D01*
X234803000Y-99837000D01*
X234806000Y-99841000D01*
X234809000Y-99846000D01*
X234812000Y-99850000D01*
X234814000Y-99855000D01*
X234816000Y-99859000D01*
X234818000Y-99864000D01*
X234820000Y-99869000D01*
X234822000Y-99874000D01*
X234823000Y-99879000D01*
X234824000Y-99884000D01*
X234824000Y-99890000D01*
X234825000Y-99895000D01*
X234825000Y-99900000D01*
X234825000Y-100100000D01*
X234825000Y-100105000D01*
X234824000Y-100110000D01*
X234824000Y-100116000D01*
X234823000Y-100121000D01*
X234822000Y-100126000D01*
X234820000Y-100131000D01*
X234818000Y-100136000D01*
X234816000Y-100141000D01*
X234814000Y-100145000D01*
X234812000Y-100150000D01*
X234809000Y-100154000D01*
X234806000Y-100159000D01*
X234803000Y-100163000D01*
X234799000Y-100167000D01*
X234796000Y-100171000D01*
X234792000Y-100174000D01*
X234788000Y-100178000D01*
X234784000Y-100181000D01*
X234779000Y-100184000D01*
X234775000Y-100187000D01*
X234770000Y-100189000D01*
X234766000Y-100191000D01*
X234761000Y-100193000D01*
X234756000Y-100195000D01*
X234751000Y-100197000D01*
X234746000Y-100198000D01*
X234741000Y-100199000D01*
X234735000Y-100199000D01*
X234730000Y-100200000D01*
X234725000Y-100200000D01*
X233775000Y-100200000D01*
X233770000Y-100200000D01*
X233765000Y-100199000D01*
X233759000Y-100199000D01*
X233754000Y-100198000D01*
X233749000Y-100197000D01*
X233744000Y-100195000D01*
X233739000Y-100193000D01*
X233734000Y-100191000D01*
X233730000Y-100189000D01*
X233725000Y-100187000D01*
X233721000Y-100184000D01*
X233716000Y-100181000D01*
X233712000Y-100178000D01*
X233708000Y-100174000D01*
X233704000Y-100171000D01*
X233701000Y-100167000D01*
X233697000Y-100163000D01*
X233694000Y-100159000D01*
X233691000Y-100154000D01*
X233688000Y-100150000D01*
X233686000Y-100145000D01*
X233684000Y-100141000D01*
X233682000Y-100136000D01*
X233680000Y-100131000D01*
X233678000Y-100126000D01*
X233677000Y-100121000D01*
X233676000Y-100116000D01*
X233676000Y-100110000D01*
X233675000Y-100105000D01*
X233675000Y-100100000D01*
X233675000Y-99900000D01*
X233675000Y-99895000D01*
X233676000Y-99890000D01*
X233676000Y-99884000D01*
X233677000Y-99879000D01*
X233678000Y-99874000D01*
X233680000Y-99869000D01*
X233682000Y-99864000D01*
X233684000Y-99859000D01*
X233686000Y-99855000D01*
X233688000Y-99850000D01*
X233691000Y-99846000D01*
X233694000Y-99841000D01*
X233697000Y-99837000D01*
X233701000Y-99833000D01*
X233704000Y-99829000D01*
X233708000Y-99826000D01*
X233712000Y-99822000D01*
X233716000Y-99819000D01*
X233721000Y-99816000D01*
X233725000Y-99813000D01*
X233730000Y-99811000D01*
X233734000Y-99809000D01*
X233739000Y-99807000D01*
X233744000Y-99805000D01*
X233749000Y-99803000D01*
X233754000Y-99802000D01*
X233759000Y-99801000D01*
X233765000Y-99801000D01*
X233770000Y-99800000D01*
X233775000Y-99800000D01*
X234725000Y-99800000D01*
X234730000Y-99800000D01*
X234735000Y-99801000D01*
G37*
X234735000Y-100301000D02*
X234741000Y-100301000D01*
X234746000Y-100302000D01*
X234751000Y-100303000D01*
X234756000Y-100305000D01*
X234761000Y-100307000D01*
X234766000Y-100309000D01*
X234770000Y-100311000D01*
X234775000Y-100313000D01*
X234779000Y-100316000D01*
X234784000Y-100319000D01*
X234788000Y-100322000D01*
X234792000Y-100326000D01*
X234796000Y-100329000D01*
X234799000Y-100333000D01*
X234803000Y-100337000D01*
X234806000Y-100341000D01*
X234809000Y-100346000D01*
X234812000Y-100350000D01*
X234814000Y-100355000D01*
X234816000Y-100359000D01*
X234818000Y-100364000D01*
X234820000Y-100369000D01*
X234822000Y-100374000D01*
X234823000Y-100379000D01*
X234824000Y-100384000D01*
X234824000Y-100390000D01*
X234825000Y-100395000D01*
X234825000Y-100400000D01*
X234825000Y-100600000D01*
X234825000Y-100605000D01*
X234824000Y-100610000D01*
X234824000Y-100616000D01*
X234823000Y-100621000D01*
X234822000Y-100626000D01*
X234820000Y-100631000D01*
X234818000Y-100636000D01*
X234816000Y-100641000D01*
X234814000Y-100645000D01*
X234812000Y-100650000D01*
X234809000Y-100654000D01*
X234806000Y-100659000D01*
X234803000Y-100663000D01*
X234799000Y-100667000D01*
X234796000Y-100671000D01*
X234792000Y-100674000D01*
X234788000Y-100678000D01*
X234784000Y-100681000D01*
X234779000Y-100684000D01*
X234775000Y-100687000D01*
X234770000Y-100689000D01*
X234766000Y-100691000D01*
X234761000Y-100693000D01*
X234756000Y-100695000D01*
X234751000Y-100697000D01*
X234746000Y-100698000D01*
X234741000Y-100699000D01*
X234735000Y-100699000D01*
X234730000Y-100700000D01*
X234725000Y-100700000D01*
X233775000Y-100700000D01*
X233770000Y-100700000D01*
X233765000Y-100699000D01*
X233759000Y-100699000D01*
X233754000Y-100698000D01*
X233749000Y-100697000D01*
X233744000Y-100695000D01*
X233739000Y-100693000D01*
X233734000Y-100691000D01*
X233730000Y-100689000D01*
X233725000Y-100687000D01*
X233721000Y-100684000D01*
X233716000Y-100681000D01*
X233712000Y-100678000D01*
X233708000Y-100674000D01*
X233704000Y-100671000D01*
X233701000Y-100667000D01*
X233697000Y-100663000D01*
X233694000Y-100659000D01*
X233691000Y-100654000D01*
X233688000Y-100650000D01*
X233686000Y-100645000D01*
X233684000Y-100641000D01*
X233682000Y-100636000D01*
X233680000Y-100631000D01*
X233678000Y-100626000D01*
X233677000Y-100621000D01*
X233676000Y-100616000D01*
X233676000Y-100610000D01*
X233675000Y-100605000D01*
X233675000Y-100600000D01*
X233675000Y-100400000D01*
X233675000Y-100395000D01*
X233676000Y-100390000D01*
X233676000Y-100384000D01*
X233677000Y-100379000D01*
X233678000Y-100374000D01*
X233680000Y-100369000D01*
X233682000Y-100364000D01*
X233684000Y-100359000D01*
X233686000Y-100355000D01*
X233688000Y-100350000D01*
X233691000Y-100346000D01*
X233694000Y-100341000D01*
X233697000Y-100337000D01*
X233701000Y-100333000D01*
X233704000Y-100329000D01*
X233708000Y-100326000D01*
X233712000Y-100322000D01*
X233716000Y-100319000D01*
X233721000Y-100316000D01*
X233725000Y-100313000D01*
X233730000Y-100311000D01*
X233734000Y-100309000D01*
X233739000Y-100307000D01*
X233744000Y-100305000D01*
X233749000Y-100303000D01*
X233754000Y-100302000D01*
X233759000Y-100301000D01*
X233765000Y-100301000D01*
X233770000Y-100300000D01*
X233775000Y-100300000D01*
X234725000Y-100300000D01*
X234730000Y-100300000D01*
X234735000Y-100301000D01*
G36*
X234735000Y-100301000D02*
G01*
X234741000Y-100301000D01*
X234746000Y-100302000D01*
X234751000Y-100303000D01*
X234756000Y-100305000D01*
X234761000Y-100307000D01*
X234766000Y-100309000D01*
X234770000Y-100311000D01*
X234775000Y-100313000D01*
X234779000Y-100316000D01*
X234784000Y-100319000D01*
X234788000Y-100322000D01*
X234792000Y-100326000D01*
X234796000Y-100329000D01*
X234799000Y-100333000D01*
X234803000Y-100337000D01*
X234806000Y-100341000D01*
X234809000Y-100346000D01*
X234812000Y-100350000D01*
X234814000Y-100355000D01*
X234816000Y-100359000D01*
X234818000Y-100364000D01*
X234820000Y-100369000D01*
X234822000Y-100374000D01*
X234823000Y-100379000D01*
X234824000Y-100384000D01*
X234824000Y-100390000D01*
X234825000Y-100395000D01*
X234825000Y-100400000D01*
X234825000Y-100600000D01*
X234825000Y-100605000D01*
X234824000Y-100610000D01*
X234824000Y-100616000D01*
X234823000Y-100621000D01*
X234822000Y-100626000D01*
X234820000Y-100631000D01*
X234818000Y-100636000D01*
X234816000Y-100641000D01*
X234814000Y-100645000D01*
X234812000Y-100650000D01*
X234809000Y-100654000D01*
X234806000Y-100659000D01*
X234803000Y-100663000D01*
X234799000Y-100667000D01*
X234796000Y-100671000D01*
X234792000Y-100674000D01*
X234788000Y-100678000D01*
X234784000Y-100681000D01*
X234779000Y-100684000D01*
X234775000Y-100687000D01*
X234770000Y-100689000D01*
X234766000Y-100691000D01*
X234761000Y-100693000D01*
X234756000Y-100695000D01*
X234751000Y-100697000D01*
X234746000Y-100698000D01*
X234741000Y-100699000D01*
X234735000Y-100699000D01*
X234730000Y-100700000D01*
X234725000Y-100700000D01*
X233775000Y-100700000D01*
X233770000Y-100700000D01*
X233765000Y-100699000D01*
X233759000Y-100699000D01*
X233754000Y-100698000D01*
X233749000Y-100697000D01*
X233744000Y-100695000D01*
X233739000Y-100693000D01*
X233734000Y-100691000D01*
X233730000Y-100689000D01*
X233725000Y-100687000D01*
X233721000Y-100684000D01*
X233716000Y-100681000D01*
X233712000Y-100678000D01*
X233708000Y-100674000D01*
X233704000Y-100671000D01*
X233701000Y-100667000D01*
X233697000Y-100663000D01*
X233694000Y-100659000D01*
X233691000Y-100654000D01*
X233688000Y-100650000D01*
X233686000Y-100645000D01*
X233684000Y-100641000D01*
X233682000Y-100636000D01*
X233680000Y-100631000D01*
X233678000Y-100626000D01*
X233677000Y-100621000D01*
X233676000Y-100616000D01*
X233676000Y-100610000D01*
X233675000Y-100605000D01*
X233675000Y-100600000D01*
X233675000Y-100400000D01*
X233675000Y-100395000D01*
X233676000Y-100390000D01*
X233676000Y-100384000D01*
X233677000Y-100379000D01*
X233678000Y-100374000D01*
X233680000Y-100369000D01*
X233682000Y-100364000D01*
X233684000Y-100359000D01*
X233686000Y-100355000D01*
X233688000Y-100350000D01*
X233691000Y-100346000D01*
X233694000Y-100341000D01*
X233697000Y-100337000D01*
X233701000Y-100333000D01*
X233704000Y-100329000D01*
X233708000Y-100326000D01*
X233712000Y-100322000D01*
X233716000Y-100319000D01*
X233721000Y-100316000D01*
X233725000Y-100313000D01*
X233730000Y-100311000D01*
X233734000Y-100309000D01*
X233739000Y-100307000D01*
X233744000Y-100305000D01*
X233749000Y-100303000D01*
X233754000Y-100302000D01*
X233759000Y-100301000D01*
X233765000Y-100301000D01*
X233770000Y-100300000D01*
X233775000Y-100300000D01*
X234725000Y-100300000D01*
X234730000Y-100300000D01*
X234735000Y-100301000D01*
G37*
X234735000Y-100801000D02*
X234741000Y-100801000D01*
X234746000Y-100802000D01*
X234751000Y-100803000D01*
X234756000Y-100805000D01*
X234761000Y-100807000D01*
X234766000Y-100809000D01*
X234770000Y-100811000D01*
X234775000Y-100813000D01*
X234779000Y-100816000D01*
X234784000Y-100819000D01*
X234788000Y-100822000D01*
X234792000Y-100826000D01*
X234796000Y-100829000D01*
X234799000Y-100833000D01*
X234803000Y-100837000D01*
X234806000Y-100841000D01*
X234809000Y-100846000D01*
X234812000Y-100850000D01*
X234814000Y-100855000D01*
X234816000Y-100859000D01*
X234818000Y-100864000D01*
X234820000Y-100869000D01*
X234822000Y-100874000D01*
X234823000Y-100879000D01*
X234824000Y-100884000D01*
X234824000Y-100890000D01*
X234825000Y-100895000D01*
X234825000Y-100900000D01*
X234825000Y-101100000D01*
X234825000Y-101105000D01*
X234824000Y-101110000D01*
X234824000Y-101116000D01*
X234823000Y-101121000D01*
X234822000Y-101126000D01*
X234820000Y-101131000D01*
X234818000Y-101136000D01*
X234816000Y-101141000D01*
X234814000Y-101145000D01*
X234812000Y-101150000D01*
X234809000Y-101154000D01*
X234806000Y-101159000D01*
X234803000Y-101163000D01*
X234799000Y-101167000D01*
X234796000Y-101171000D01*
X234792000Y-101174000D01*
X234788000Y-101178000D01*
X234784000Y-101181000D01*
X234779000Y-101184000D01*
X234775000Y-101187000D01*
X234770000Y-101189000D01*
X234766000Y-101191000D01*
X234761000Y-101193000D01*
X234756000Y-101195000D01*
X234751000Y-101197000D01*
X234746000Y-101198000D01*
X234741000Y-101199000D01*
X234735000Y-101199000D01*
X234730000Y-101200000D01*
X234725000Y-101200000D01*
X233775000Y-101200000D01*
X233770000Y-101200000D01*
X233765000Y-101199000D01*
X233759000Y-101199000D01*
X233754000Y-101198000D01*
X233749000Y-101197000D01*
X233744000Y-101195000D01*
X233739000Y-101193000D01*
X233734000Y-101191000D01*
X233730000Y-101189000D01*
X233725000Y-101187000D01*
X233721000Y-101184000D01*
X233716000Y-101181000D01*
X233712000Y-101178000D01*
X233708000Y-101174000D01*
X233704000Y-101171000D01*
X233701000Y-101167000D01*
X233697000Y-101163000D01*
X233694000Y-101159000D01*
X233691000Y-101154000D01*
X233688000Y-101150000D01*
X233686000Y-101145000D01*
X233684000Y-101141000D01*
X233682000Y-101136000D01*
X233680000Y-101131000D01*
X233678000Y-101126000D01*
X233677000Y-101121000D01*
X233676000Y-101116000D01*
X233676000Y-101110000D01*
X233675000Y-101105000D01*
X233675000Y-101100000D01*
X233675000Y-100900000D01*
X233675000Y-100895000D01*
X233676000Y-100890000D01*
X233676000Y-100884000D01*
X233677000Y-100879000D01*
X233678000Y-100874000D01*
X233680000Y-100869000D01*
X233682000Y-100864000D01*
X233684000Y-100859000D01*
X233686000Y-100855000D01*
X233688000Y-100850000D01*
X233691000Y-100846000D01*
X233694000Y-100841000D01*
X233697000Y-100837000D01*
X233701000Y-100833000D01*
X233704000Y-100829000D01*
X233708000Y-100826000D01*
X233712000Y-100822000D01*
X233716000Y-100819000D01*
X233721000Y-100816000D01*
X233725000Y-100813000D01*
X233730000Y-100811000D01*
X233734000Y-100809000D01*
X233739000Y-100807000D01*
X233744000Y-100805000D01*
X233749000Y-100803000D01*
X233754000Y-100802000D01*
X233759000Y-100801000D01*
X233765000Y-100801000D01*
X233770000Y-100800000D01*
X233775000Y-100800000D01*
X234725000Y-100800000D01*
X234730000Y-100800000D01*
X234735000Y-100801000D01*
G36*
X234735000Y-100801000D02*
G01*
X234741000Y-100801000D01*
X234746000Y-100802000D01*
X234751000Y-100803000D01*
X234756000Y-100805000D01*
X234761000Y-100807000D01*
X234766000Y-100809000D01*
X234770000Y-100811000D01*
X234775000Y-100813000D01*
X234779000Y-100816000D01*
X234784000Y-100819000D01*
X234788000Y-100822000D01*
X234792000Y-100826000D01*
X234796000Y-100829000D01*
X234799000Y-100833000D01*
X234803000Y-100837000D01*
X234806000Y-100841000D01*
X234809000Y-100846000D01*
X234812000Y-100850000D01*
X234814000Y-100855000D01*
X234816000Y-100859000D01*
X234818000Y-100864000D01*
X234820000Y-100869000D01*
X234822000Y-100874000D01*
X234823000Y-100879000D01*
X234824000Y-100884000D01*
X234824000Y-100890000D01*
X234825000Y-100895000D01*
X234825000Y-100900000D01*
X234825000Y-101100000D01*
X234825000Y-101105000D01*
X234824000Y-101110000D01*
X234824000Y-101116000D01*
X234823000Y-101121000D01*
X234822000Y-101126000D01*
X234820000Y-101131000D01*
X234818000Y-101136000D01*
X234816000Y-101141000D01*
X234814000Y-101145000D01*
X234812000Y-101150000D01*
X234809000Y-101154000D01*
X234806000Y-101159000D01*
X234803000Y-101163000D01*
X234799000Y-101167000D01*
X234796000Y-101171000D01*
X234792000Y-101174000D01*
X234788000Y-101178000D01*
X234784000Y-101181000D01*
X234779000Y-101184000D01*
X234775000Y-101187000D01*
X234770000Y-101189000D01*
X234766000Y-101191000D01*
X234761000Y-101193000D01*
X234756000Y-101195000D01*
X234751000Y-101197000D01*
X234746000Y-101198000D01*
X234741000Y-101199000D01*
X234735000Y-101199000D01*
X234730000Y-101200000D01*
X234725000Y-101200000D01*
X233775000Y-101200000D01*
X233770000Y-101200000D01*
X233765000Y-101199000D01*
X233759000Y-101199000D01*
X233754000Y-101198000D01*
X233749000Y-101197000D01*
X233744000Y-101195000D01*
X233739000Y-101193000D01*
X233734000Y-101191000D01*
X233730000Y-101189000D01*
X233725000Y-101187000D01*
X233721000Y-101184000D01*
X233716000Y-101181000D01*
X233712000Y-101178000D01*
X233708000Y-101174000D01*
X233704000Y-101171000D01*
X233701000Y-101167000D01*
X233697000Y-101163000D01*
X233694000Y-101159000D01*
X233691000Y-101154000D01*
X233688000Y-101150000D01*
X233686000Y-101145000D01*
X233684000Y-101141000D01*
X233682000Y-101136000D01*
X233680000Y-101131000D01*
X233678000Y-101126000D01*
X233677000Y-101121000D01*
X233676000Y-101116000D01*
X233676000Y-101110000D01*
X233675000Y-101105000D01*
X233675000Y-101100000D01*
X233675000Y-100900000D01*
X233675000Y-100895000D01*
X233676000Y-100890000D01*
X233676000Y-100884000D01*
X233677000Y-100879000D01*
X233678000Y-100874000D01*
X233680000Y-100869000D01*
X233682000Y-100864000D01*
X233684000Y-100859000D01*
X233686000Y-100855000D01*
X233688000Y-100850000D01*
X233691000Y-100846000D01*
X233694000Y-100841000D01*
X233697000Y-100837000D01*
X233701000Y-100833000D01*
X233704000Y-100829000D01*
X233708000Y-100826000D01*
X233712000Y-100822000D01*
X233716000Y-100819000D01*
X233721000Y-100816000D01*
X233725000Y-100813000D01*
X233730000Y-100811000D01*
X233734000Y-100809000D01*
X233739000Y-100807000D01*
X233744000Y-100805000D01*
X233749000Y-100803000D01*
X233754000Y-100802000D01*
X233759000Y-100801000D01*
X233765000Y-100801000D01*
X233770000Y-100800000D01*
X233775000Y-100800000D01*
X234725000Y-100800000D01*
X234730000Y-100800000D01*
X234735000Y-100801000D01*
G37*
X237735000Y-97301000D02*
X237741000Y-97301000D01*
X237746000Y-97302000D01*
X237751000Y-97303000D01*
X237756000Y-97305000D01*
X237761000Y-97307000D01*
X237766000Y-97309000D01*
X237770000Y-97311000D01*
X237775000Y-97313000D01*
X237779000Y-97316000D01*
X237784000Y-97319000D01*
X237788000Y-97322000D01*
X237792000Y-97326000D01*
X237796000Y-97329000D01*
X237799000Y-97333000D01*
X237803000Y-97337000D01*
X237806000Y-97341000D01*
X237809000Y-97346000D01*
X237812000Y-97350000D01*
X237814000Y-97355000D01*
X237816000Y-97359000D01*
X237818000Y-97364000D01*
X237820000Y-97369000D01*
X237822000Y-97374000D01*
X237823000Y-97379000D01*
X237824000Y-97384000D01*
X237824000Y-97390000D01*
X237825000Y-97395000D01*
X237825000Y-97400000D01*
X237825000Y-97600000D01*
X237825000Y-97605000D01*
X237824000Y-97610000D01*
X237824000Y-97616000D01*
X237823000Y-97621000D01*
X237822000Y-97626000D01*
X237820000Y-97631000D01*
X237818000Y-97636000D01*
X237816000Y-97641000D01*
X237814000Y-97645000D01*
X237812000Y-97650000D01*
X237809000Y-97654000D01*
X237806000Y-97659000D01*
X237803000Y-97663000D01*
X237799000Y-97667000D01*
X237796000Y-97671000D01*
X237792000Y-97674000D01*
X237788000Y-97678000D01*
X237784000Y-97681000D01*
X237779000Y-97684000D01*
X237775000Y-97687000D01*
X237770000Y-97689000D01*
X237766000Y-97691000D01*
X237761000Y-97693000D01*
X237756000Y-97695000D01*
X237751000Y-97697000D01*
X237746000Y-97698000D01*
X237741000Y-97699000D01*
X237735000Y-97699000D01*
X237730000Y-97700000D01*
X237725000Y-97700000D01*
X236775000Y-97700000D01*
X236770000Y-97700000D01*
X236765000Y-97699000D01*
X236759000Y-97699000D01*
X236754000Y-97698000D01*
X236749000Y-97697000D01*
X236744000Y-97695000D01*
X236739000Y-97693000D01*
X236734000Y-97691000D01*
X236730000Y-97689000D01*
X236725000Y-97687000D01*
X236721000Y-97684000D01*
X236716000Y-97681000D01*
X236712000Y-97678000D01*
X236708000Y-97674000D01*
X236704000Y-97671000D01*
X236701000Y-97667000D01*
X236697000Y-97663000D01*
X236694000Y-97659000D01*
X236691000Y-97654000D01*
X236688000Y-97650000D01*
X236686000Y-97645000D01*
X236684000Y-97641000D01*
X236682000Y-97636000D01*
X236680000Y-97631000D01*
X236678000Y-97626000D01*
X236677000Y-97621000D01*
X236676000Y-97616000D01*
X236676000Y-97610000D01*
X236675000Y-97605000D01*
X236675000Y-97600000D01*
X236675000Y-97400000D01*
X236675000Y-97395000D01*
X236676000Y-97390000D01*
X236676000Y-97384000D01*
X236677000Y-97379000D01*
X236678000Y-97374000D01*
X236680000Y-97369000D01*
X236682000Y-97364000D01*
X236684000Y-97359000D01*
X236686000Y-97355000D01*
X236688000Y-97350000D01*
X236691000Y-97346000D01*
X236694000Y-97341000D01*
X236697000Y-97337000D01*
X236701000Y-97333000D01*
X236704000Y-97329000D01*
X236708000Y-97326000D01*
X236712000Y-97322000D01*
X236716000Y-97319000D01*
X236721000Y-97316000D01*
X236725000Y-97313000D01*
X236730000Y-97311000D01*
X236734000Y-97309000D01*
X236739000Y-97307000D01*
X236744000Y-97305000D01*
X236749000Y-97303000D01*
X236754000Y-97302000D01*
X236759000Y-97301000D01*
X236765000Y-97301000D01*
X236770000Y-97300000D01*
X236775000Y-97300000D01*
X237725000Y-97300000D01*
X237730000Y-97300000D01*
X237735000Y-97301000D01*
G36*
X237735000Y-97301000D02*
G01*
X237741000Y-97301000D01*
X237746000Y-97302000D01*
X237751000Y-97303000D01*
X237756000Y-97305000D01*
X237761000Y-97307000D01*
X237766000Y-97309000D01*
X237770000Y-97311000D01*
X237775000Y-97313000D01*
X237779000Y-97316000D01*
X237784000Y-97319000D01*
X237788000Y-97322000D01*
X237792000Y-97326000D01*
X237796000Y-97329000D01*
X237799000Y-97333000D01*
X237803000Y-97337000D01*
X237806000Y-97341000D01*
X237809000Y-97346000D01*
X237812000Y-97350000D01*
X237814000Y-97355000D01*
X237816000Y-97359000D01*
X237818000Y-97364000D01*
X237820000Y-97369000D01*
X237822000Y-97374000D01*
X237823000Y-97379000D01*
X237824000Y-97384000D01*
X237824000Y-97390000D01*
X237825000Y-97395000D01*
X237825000Y-97400000D01*
X237825000Y-97600000D01*
X237825000Y-97605000D01*
X237824000Y-97610000D01*
X237824000Y-97616000D01*
X237823000Y-97621000D01*
X237822000Y-97626000D01*
X237820000Y-97631000D01*
X237818000Y-97636000D01*
X237816000Y-97641000D01*
X237814000Y-97645000D01*
X237812000Y-97650000D01*
X237809000Y-97654000D01*
X237806000Y-97659000D01*
X237803000Y-97663000D01*
X237799000Y-97667000D01*
X237796000Y-97671000D01*
X237792000Y-97674000D01*
X237788000Y-97678000D01*
X237784000Y-97681000D01*
X237779000Y-97684000D01*
X237775000Y-97687000D01*
X237770000Y-97689000D01*
X237766000Y-97691000D01*
X237761000Y-97693000D01*
X237756000Y-97695000D01*
X237751000Y-97697000D01*
X237746000Y-97698000D01*
X237741000Y-97699000D01*
X237735000Y-97699000D01*
X237730000Y-97700000D01*
X237725000Y-97700000D01*
X236775000Y-97700000D01*
X236770000Y-97700000D01*
X236765000Y-97699000D01*
X236759000Y-97699000D01*
X236754000Y-97698000D01*
X236749000Y-97697000D01*
X236744000Y-97695000D01*
X236739000Y-97693000D01*
X236734000Y-97691000D01*
X236730000Y-97689000D01*
X236725000Y-97687000D01*
X236721000Y-97684000D01*
X236716000Y-97681000D01*
X236712000Y-97678000D01*
X236708000Y-97674000D01*
X236704000Y-97671000D01*
X236701000Y-97667000D01*
X236697000Y-97663000D01*
X236694000Y-97659000D01*
X236691000Y-97654000D01*
X236688000Y-97650000D01*
X236686000Y-97645000D01*
X236684000Y-97641000D01*
X236682000Y-97636000D01*
X236680000Y-97631000D01*
X236678000Y-97626000D01*
X236677000Y-97621000D01*
X236676000Y-97616000D01*
X236676000Y-97610000D01*
X236675000Y-97605000D01*
X236675000Y-97600000D01*
X236675000Y-97400000D01*
X236675000Y-97395000D01*
X236676000Y-97390000D01*
X236676000Y-97384000D01*
X236677000Y-97379000D01*
X236678000Y-97374000D01*
X236680000Y-97369000D01*
X236682000Y-97364000D01*
X236684000Y-97359000D01*
X236686000Y-97355000D01*
X236688000Y-97350000D01*
X236691000Y-97346000D01*
X236694000Y-97341000D01*
X236697000Y-97337000D01*
X236701000Y-97333000D01*
X236704000Y-97329000D01*
X236708000Y-97326000D01*
X236712000Y-97322000D01*
X236716000Y-97319000D01*
X236721000Y-97316000D01*
X236725000Y-97313000D01*
X236730000Y-97311000D01*
X236734000Y-97309000D01*
X236739000Y-97307000D01*
X236744000Y-97305000D01*
X236749000Y-97303000D01*
X236754000Y-97302000D01*
X236759000Y-97301000D01*
X236765000Y-97301000D01*
X236770000Y-97300000D01*
X236775000Y-97300000D01*
X237725000Y-97300000D01*
X237730000Y-97300000D01*
X237735000Y-97301000D01*
G37*
X237735000Y-97801000D02*
X237741000Y-97801000D01*
X237746000Y-97802000D01*
X237751000Y-97803000D01*
X237756000Y-97805000D01*
X237761000Y-97807000D01*
X237766000Y-97809000D01*
X237770000Y-97811000D01*
X237775000Y-97813000D01*
X237779000Y-97816000D01*
X237784000Y-97819000D01*
X237788000Y-97822000D01*
X237792000Y-97826000D01*
X237796000Y-97829000D01*
X237799000Y-97833000D01*
X237803000Y-97837000D01*
X237806000Y-97841000D01*
X237809000Y-97846000D01*
X237812000Y-97850000D01*
X237814000Y-97855000D01*
X237816000Y-97859000D01*
X237818000Y-97864000D01*
X237820000Y-97869000D01*
X237822000Y-97874000D01*
X237823000Y-97879000D01*
X237824000Y-97884000D01*
X237824000Y-97890000D01*
X237825000Y-97895000D01*
X237825000Y-97900000D01*
X237825000Y-98100000D01*
X237825000Y-98105000D01*
X237824000Y-98110000D01*
X237824000Y-98116000D01*
X237823000Y-98121000D01*
X237822000Y-98126000D01*
X237820000Y-98131000D01*
X237818000Y-98136000D01*
X237816000Y-98141000D01*
X237814000Y-98145000D01*
X237812000Y-98150000D01*
X237809000Y-98154000D01*
X237806000Y-98159000D01*
X237803000Y-98163000D01*
X237799000Y-98167000D01*
X237796000Y-98171000D01*
X237792000Y-98174000D01*
X237788000Y-98178000D01*
X237784000Y-98181000D01*
X237779000Y-98184000D01*
X237775000Y-98187000D01*
X237770000Y-98189000D01*
X237766000Y-98191000D01*
X237761000Y-98193000D01*
X237756000Y-98195000D01*
X237751000Y-98197000D01*
X237746000Y-98198000D01*
X237741000Y-98199000D01*
X237735000Y-98199000D01*
X237730000Y-98200000D01*
X237725000Y-98200000D01*
X236775000Y-98200000D01*
X236770000Y-98200000D01*
X236765000Y-98199000D01*
X236759000Y-98199000D01*
X236754000Y-98198000D01*
X236749000Y-98197000D01*
X236744000Y-98195000D01*
X236739000Y-98193000D01*
X236734000Y-98191000D01*
X236730000Y-98189000D01*
X236725000Y-98187000D01*
X236721000Y-98184000D01*
X236716000Y-98181000D01*
X236712000Y-98178000D01*
X236708000Y-98174000D01*
X236704000Y-98171000D01*
X236701000Y-98167000D01*
X236697000Y-98163000D01*
X236694000Y-98159000D01*
X236691000Y-98154000D01*
X236688000Y-98150000D01*
X236686000Y-98145000D01*
X236684000Y-98141000D01*
X236682000Y-98136000D01*
X236680000Y-98131000D01*
X236678000Y-98126000D01*
X236677000Y-98121000D01*
X236676000Y-98116000D01*
X236676000Y-98110000D01*
X236675000Y-98105000D01*
X236675000Y-98100000D01*
X236675000Y-97900000D01*
X236675000Y-97895000D01*
X236676000Y-97890000D01*
X236676000Y-97884000D01*
X236677000Y-97879000D01*
X236678000Y-97874000D01*
X236680000Y-97869000D01*
X236682000Y-97864000D01*
X236684000Y-97859000D01*
X236686000Y-97855000D01*
X236688000Y-97850000D01*
X236691000Y-97846000D01*
X236694000Y-97841000D01*
X236697000Y-97837000D01*
X236701000Y-97833000D01*
X236704000Y-97829000D01*
X236708000Y-97826000D01*
X236712000Y-97822000D01*
X236716000Y-97819000D01*
X236721000Y-97816000D01*
X236725000Y-97813000D01*
X236730000Y-97811000D01*
X236734000Y-97809000D01*
X236739000Y-97807000D01*
X236744000Y-97805000D01*
X236749000Y-97803000D01*
X236754000Y-97802000D01*
X236759000Y-97801000D01*
X236765000Y-97801000D01*
X236770000Y-97800000D01*
X236775000Y-97800000D01*
X237725000Y-97800000D01*
X237730000Y-97800000D01*
X237735000Y-97801000D01*
G36*
X237735000Y-97801000D02*
G01*
X237741000Y-97801000D01*
X237746000Y-97802000D01*
X237751000Y-97803000D01*
X237756000Y-97805000D01*
X237761000Y-97807000D01*
X237766000Y-97809000D01*
X237770000Y-97811000D01*
X237775000Y-97813000D01*
X237779000Y-97816000D01*
X237784000Y-97819000D01*
X237788000Y-97822000D01*
X237792000Y-97826000D01*
X237796000Y-97829000D01*
X237799000Y-97833000D01*
X237803000Y-97837000D01*
X237806000Y-97841000D01*
X237809000Y-97846000D01*
X237812000Y-97850000D01*
X237814000Y-97855000D01*
X237816000Y-97859000D01*
X237818000Y-97864000D01*
X237820000Y-97869000D01*
X237822000Y-97874000D01*
X237823000Y-97879000D01*
X237824000Y-97884000D01*
X237824000Y-97890000D01*
X237825000Y-97895000D01*
X237825000Y-97900000D01*
X237825000Y-98100000D01*
X237825000Y-98105000D01*
X237824000Y-98110000D01*
X237824000Y-98116000D01*
X237823000Y-98121000D01*
X237822000Y-98126000D01*
X237820000Y-98131000D01*
X237818000Y-98136000D01*
X237816000Y-98141000D01*
X237814000Y-98145000D01*
X237812000Y-98150000D01*
X237809000Y-98154000D01*
X237806000Y-98159000D01*
X237803000Y-98163000D01*
X237799000Y-98167000D01*
X237796000Y-98171000D01*
X237792000Y-98174000D01*
X237788000Y-98178000D01*
X237784000Y-98181000D01*
X237779000Y-98184000D01*
X237775000Y-98187000D01*
X237770000Y-98189000D01*
X237766000Y-98191000D01*
X237761000Y-98193000D01*
X237756000Y-98195000D01*
X237751000Y-98197000D01*
X237746000Y-98198000D01*
X237741000Y-98199000D01*
X237735000Y-98199000D01*
X237730000Y-98200000D01*
X237725000Y-98200000D01*
X236775000Y-98200000D01*
X236770000Y-98200000D01*
X236765000Y-98199000D01*
X236759000Y-98199000D01*
X236754000Y-98198000D01*
X236749000Y-98197000D01*
X236744000Y-98195000D01*
X236739000Y-98193000D01*
X236734000Y-98191000D01*
X236730000Y-98189000D01*
X236725000Y-98187000D01*
X236721000Y-98184000D01*
X236716000Y-98181000D01*
X236712000Y-98178000D01*
X236708000Y-98174000D01*
X236704000Y-98171000D01*
X236701000Y-98167000D01*
X236697000Y-98163000D01*
X236694000Y-98159000D01*
X236691000Y-98154000D01*
X236688000Y-98150000D01*
X236686000Y-98145000D01*
X236684000Y-98141000D01*
X236682000Y-98136000D01*
X236680000Y-98131000D01*
X236678000Y-98126000D01*
X236677000Y-98121000D01*
X236676000Y-98116000D01*
X236676000Y-98110000D01*
X236675000Y-98105000D01*
X236675000Y-98100000D01*
X236675000Y-97900000D01*
X236675000Y-97895000D01*
X236676000Y-97890000D01*
X236676000Y-97884000D01*
X236677000Y-97879000D01*
X236678000Y-97874000D01*
X236680000Y-97869000D01*
X236682000Y-97864000D01*
X236684000Y-97859000D01*
X236686000Y-97855000D01*
X236688000Y-97850000D01*
X236691000Y-97846000D01*
X236694000Y-97841000D01*
X236697000Y-97837000D01*
X236701000Y-97833000D01*
X236704000Y-97829000D01*
X236708000Y-97826000D01*
X236712000Y-97822000D01*
X236716000Y-97819000D01*
X236721000Y-97816000D01*
X236725000Y-97813000D01*
X236730000Y-97811000D01*
X236734000Y-97809000D01*
X236739000Y-97807000D01*
X236744000Y-97805000D01*
X236749000Y-97803000D01*
X236754000Y-97802000D01*
X236759000Y-97801000D01*
X236765000Y-97801000D01*
X236770000Y-97800000D01*
X236775000Y-97800000D01*
X237725000Y-97800000D01*
X237730000Y-97800000D01*
X237735000Y-97801000D01*
G37*
X237735000Y-98301000D02*
X237741000Y-98301000D01*
X237746000Y-98302000D01*
X237751000Y-98303000D01*
X237756000Y-98305000D01*
X237761000Y-98307000D01*
X237766000Y-98309000D01*
X237770000Y-98311000D01*
X237775000Y-98313000D01*
X237779000Y-98316000D01*
X237784000Y-98319000D01*
X237788000Y-98322000D01*
X237792000Y-98326000D01*
X237796000Y-98329000D01*
X237799000Y-98333000D01*
X237803000Y-98337000D01*
X237806000Y-98341000D01*
X237809000Y-98346000D01*
X237812000Y-98350000D01*
X237814000Y-98355000D01*
X237816000Y-98359000D01*
X237818000Y-98364000D01*
X237820000Y-98369000D01*
X237822000Y-98374000D01*
X237823000Y-98379000D01*
X237824000Y-98384000D01*
X237824000Y-98390000D01*
X237825000Y-98395000D01*
X237825000Y-98400000D01*
X237825000Y-98600000D01*
X237825000Y-98605000D01*
X237824000Y-98610000D01*
X237824000Y-98616000D01*
X237823000Y-98621000D01*
X237822000Y-98626000D01*
X237820000Y-98631000D01*
X237818000Y-98636000D01*
X237816000Y-98641000D01*
X237814000Y-98645000D01*
X237812000Y-98650000D01*
X237809000Y-98654000D01*
X237806000Y-98659000D01*
X237803000Y-98663000D01*
X237799000Y-98667000D01*
X237796000Y-98671000D01*
X237792000Y-98674000D01*
X237788000Y-98678000D01*
X237784000Y-98681000D01*
X237779000Y-98684000D01*
X237775000Y-98687000D01*
X237770000Y-98689000D01*
X237766000Y-98691000D01*
X237761000Y-98693000D01*
X237756000Y-98695000D01*
X237751000Y-98697000D01*
X237746000Y-98698000D01*
X237741000Y-98699000D01*
X237735000Y-98699000D01*
X237730000Y-98700000D01*
X237725000Y-98700000D01*
X236775000Y-98700000D01*
X236770000Y-98700000D01*
X236765000Y-98699000D01*
X236759000Y-98699000D01*
X236754000Y-98698000D01*
X236749000Y-98697000D01*
X236744000Y-98695000D01*
X236739000Y-98693000D01*
X236734000Y-98691000D01*
X236730000Y-98689000D01*
X236725000Y-98687000D01*
X236721000Y-98684000D01*
X236716000Y-98681000D01*
X236712000Y-98678000D01*
X236708000Y-98674000D01*
X236704000Y-98671000D01*
X236701000Y-98667000D01*
X236697000Y-98663000D01*
X236694000Y-98659000D01*
X236691000Y-98654000D01*
X236688000Y-98650000D01*
X236686000Y-98645000D01*
X236684000Y-98641000D01*
X236682000Y-98636000D01*
X236680000Y-98631000D01*
X236678000Y-98626000D01*
X236677000Y-98621000D01*
X236676000Y-98616000D01*
X236676000Y-98610000D01*
X236675000Y-98605000D01*
X236675000Y-98600000D01*
X236675000Y-98400000D01*
X236675000Y-98395000D01*
X236676000Y-98390000D01*
X236676000Y-98384000D01*
X236677000Y-98379000D01*
X236678000Y-98374000D01*
X236680000Y-98369000D01*
X236682000Y-98364000D01*
X236684000Y-98359000D01*
X236686000Y-98355000D01*
X236688000Y-98350000D01*
X236691000Y-98346000D01*
X236694000Y-98341000D01*
X236697000Y-98337000D01*
X236701000Y-98333000D01*
X236704000Y-98329000D01*
X236708000Y-98326000D01*
X236712000Y-98322000D01*
X236716000Y-98319000D01*
X236721000Y-98316000D01*
X236725000Y-98313000D01*
X236730000Y-98311000D01*
X236734000Y-98309000D01*
X236739000Y-98307000D01*
X236744000Y-98305000D01*
X236749000Y-98303000D01*
X236754000Y-98302000D01*
X236759000Y-98301000D01*
X236765000Y-98301000D01*
X236770000Y-98300000D01*
X236775000Y-98300000D01*
X237725000Y-98300000D01*
X237730000Y-98300000D01*
X237735000Y-98301000D01*
G36*
X237735000Y-98301000D02*
G01*
X237741000Y-98301000D01*
X237746000Y-98302000D01*
X237751000Y-98303000D01*
X237756000Y-98305000D01*
X237761000Y-98307000D01*
X237766000Y-98309000D01*
X237770000Y-98311000D01*
X237775000Y-98313000D01*
X237779000Y-98316000D01*
X237784000Y-98319000D01*
X237788000Y-98322000D01*
X237792000Y-98326000D01*
X237796000Y-98329000D01*
X237799000Y-98333000D01*
X237803000Y-98337000D01*
X237806000Y-98341000D01*
X237809000Y-98346000D01*
X237812000Y-98350000D01*
X237814000Y-98355000D01*
X237816000Y-98359000D01*
X237818000Y-98364000D01*
X237820000Y-98369000D01*
X237822000Y-98374000D01*
X237823000Y-98379000D01*
X237824000Y-98384000D01*
X237824000Y-98390000D01*
X237825000Y-98395000D01*
X237825000Y-98400000D01*
X237825000Y-98600000D01*
X237825000Y-98605000D01*
X237824000Y-98610000D01*
X237824000Y-98616000D01*
X237823000Y-98621000D01*
X237822000Y-98626000D01*
X237820000Y-98631000D01*
X237818000Y-98636000D01*
X237816000Y-98641000D01*
X237814000Y-98645000D01*
X237812000Y-98650000D01*
X237809000Y-98654000D01*
X237806000Y-98659000D01*
X237803000Y-98663000D01*
X237799000Y-98667000D01*
X237796000Y-98671000D01*
X237792000Y-98674000D01*
X237788000Y-98678000D01*
X237784000Y-98681000D01*
X237779000Y-98684000D01*
X237775000Y-98687000D01*
X237770000Y-98689000D01*
X237766000Y-98691000D01*
X237761000Y-98693000D01*
X237756000Y-98695000D01*
X237751000Y-98697000D01*
X237746000Y-98698000D01*
X237741000Y-98699000D01*
X237735000Y-98699000D01*
X237730000Y-98700000D01*
X237725000Y-98700000D01*
X236775000Y-98700000D01*
X236770000Y-98700000D01*
X236765000Y-98699000D01*
X236759000Y-98699000D01*
X236754000Y-98698000D01*
X236749000Y-98697000D01*
X236744000Y-98695000D01*
X236739000Y-98693000D01*
X236734000Y-98691000D01*
X236730000Y-98689000D01*
X236725000Y-98687000D01*
X236721000Y-98684000D01*
X236716000Y-98681000D01*
X236712000Y-98678000D01*
X236708000Y-98674000D01*
X236704000Y-98671000D01*
X236701000Y-98667000D01*
X236697000Y-98663000D01*
X236694000Y-98659000D01*
X236691000Y-98654000D01*
X236688000Y-98650000D01*
X236686000Y-98645000D01*
X236684000Y-98641000D01*
X236682000Y-98636000D01*
X236680000Y-98631000D01*
X236678000Y-98626000D01*
X236677000Y-98621000D01*
X236676000Y-98616000D01*
X236676000Y-98610000D01*
X236675000Y-98605000D01*
X236675000Y-98600000D01*
X236675000Y-98400000D01*
X236675000Y-98395000D01*
X236676000Y-98390000D01*
X236676000Y-98384000D01*
X236677000Y-98379000D01*
X236678000Y-98374000D01*
X236680000Y-98369000D01*
X236682000Y-98364000D01*
X236684000Y-98359000D01*
X236686000Y-98355000D01*
X236688000Y-98350000D01*
X236691000Y-98346000D01*
X236694000Y-98341000D01*
X236697000Y-98337000D01*
X236701000Y-98333000D01*
X236704000Y-98329000D01*
X236708000Y-98326000D01*
X236712000Y-98322000D01*
X236716000Y-98319000D01*
X236721000Y-98316000D01*
X236725000Y-98313000D01*
X236730000Y-98311000D01*
X236734000Y-98309000D01*
X236739000Y-98307000D01*
X236744000Y-98305000D01*
X236749000Y-98303000D01*
X236754000Y-98302000D01*
X236759000Y-98301000D01*
X236765000Y-98301000D01*
X236770000Y-98300000D01*
X236775000Y-98300000D01*
X237725000Y-98300000D01*
X237730000Y-98300000D01*
X237735000Y-98301000D01*
G37*
X237735000Y-98801000D02*
X237741000Y-98801000D01*
X237746000Y-98802000D01*
X237751000Y-98803000D01*
X237756000Y-98805000D01*
X237761000Y-98807000D01*
X237766000Y-98809000D01*
X237770000Y-98811000D01*
X237775000Y-98813000D01*
X237779000Y-98816000D01*
X237784000Y-98819000D01*
X237788000Y-98822000D01*
X237792000Y-98826000D01*
X237796000Y-98829000D01*
X237799000Y-98833000D01*
X237803000Y-98837000D01*
X237806000Y-98841000D01*
X237809000Y-98846000D01*
X237812000Y-98850000D01*
X237814000Y-98855000D01*
X237816000Y-98859000D01*
X237818000Y-98864000D01*
X237820000Y-98869000D01*
X237822000Y-98874000D01*
X237823000Y-98879000D01*
X237824000Y-98884000D01*
X237824000Y-98890000D01*
X237825000Y-98895000D01*
X237825000Y-98900000D01*
X237825000Y-99100000D01*
X237825000Y-99105000D01*
X237824000Y-99110000D01*
X237824000Y-99116000D01*
X237823000Y-99121000D01*
X237822000Y-99126000D01*
X237820000Y-99131000D01*
X237818000Y-99136000D01*
X237816000Y-99141000D01*
X237814000Y-99145000D01*
X237812000Y-99150000D01*
X237809000Y-99154000D01*
X237806000Y-99159000D01*
X237803000Y-99163000D01*
X237799000Y-99167000D01*
X237796000Y-99171000D01*
X237792000Y-99174000D01*
X237788000Y-99178000D01*
X237784000Y-99181000D01*
X237779000Y-99184000D01*
X237775000Y-99187000D01*
X237770000Y-99189000D01*
X237766000Y-99191000D01*
X237761000Y-99193000D01*
X237756000Y-99195000D01*
X237751000Y-99197000D01*
X237746000Y-99198000D01*
X237741000Y-99199000D01*
X237735000Y-99199000D01*
X237730000Y-99200000D01*
X237725000Y-99200000D01*
X236775000Y-99200000D01*
X236770000Y-99200000D01*
X236765000Y-99199000D01*
X236759000Y-99199000D01*
X236754000Y-99198000D01*
X236749000Y-99197000D01*
X236744000Y-99195000D01*
X236739000Y-99193000D01*
X236734000Y-99191000D01*
X236730000Y-99189000D01*
X236725000Y-99187000D01*
X236721000Y-99184000D01*
X236716000Y-99181000D01*
X236712000Y-99178000D01*
X236708000Y-99174000D01*
X236704000Y-99171000D01*
X236701000Y-99167000D01*
X236697000Y-99163000D01*
X236694000Y-99159000D01*
X236691000Y-99154000D01*
X236688000Y-99150000D01*
X236686000Y-99145000D01*
X236684000Y-99141000D01*
X236682000Y-99136000D01*
X236680000Y-99131000D01*
X236678000Y-99126000D01*
X236677000Y-99121000D01*
X236676000Y-99116000D01*
X236676000Y-99110000D01*
X236675000Y-99105000D01*
X236675000Y-99100000D01*
X236675000Y-98900000D01*
X236675000Y-98895000D01*
X236676000Y-98890000D01*
X236676000Y-98884000D01*
X236677000Y-98879000D01*
X236678000Y-98874000D01*
X236680000Y-98869000D01*
X236682000Y-98864000D01*
X236684000Y-98859000D01*
X236686000Y-98855000D01*
X236688000Y-98850000D01*
X236691000Y-98846000D01*
X236694000Y-98841000D01*
X236697000Y-98837000D01*
X236701000Y-98833000D01*
X236704000Y-98829000D01*
X236708000Y-98826000D01*
X236712000Y-98822000D01*
X236716000Y-98819000D01*
X236721000Y-98816000D01*
X236725000Y-98813000D01*
X236730000Y-98811000D01*
X236734000Y-98809000D01*
X236739000Y-98807000D01*
X236744000Y-98805000D01*
X236749000Y-98803000D01*
X236754000Y-98802000D01*
X236759000Y-98801000D01*
X236765000Y-98801000D01*
X236770000Y-98800000D01*
X236775000Y-98800000D01*
X237725000Y-98800000D01*
X237730000Y-98800000D01*
X237735000Y-98801000D01*
G36*
X237735000Y-98801000D02*
G01*
X237741000Y-98801000D01*
X237746000Y-98802000D01*
X237751000Y-98803000D01*
X237756000Y-98805000D01*
X237761000Y-98807000D01*
X237766000Y-98809000D01*
X237770000Y-98811000D01*
X237775000Y-98813000D01*
X237779000Y-98816000D01*
X237784000Y-98819000D01*
X237788000Y-98822000D01*
X237792000Y-98826000D01*
X237796000Y-98829000D01*
X237799000Y-98833000D01*
X237803000Y-98837000D01*
X237806000Y-98841000D01*
X237809000Y-98846000D01*
X237812000Y-98850000D01*
X237814000Y-98855000D01*
X237816000Y-98859000D01*
X237818000Y-98864000D01*
X237820000Y-98869000D01*
X237822000Y-98874000D01*
X237823000Y-98879000D01*
X237824000Y-98884000D01*
X237824000Y-98890000D01*
X237825000Y-98895000D01*
X237825000Y-98900000D01*
X237825000Y-99100000D01*
X237825000Y-99105000D01*
X237824000Y-99110000D01*
X237824000Y-99116000D01*
X237823000Y-99121000D01*
X237822000Y-99126000D01*
X237820000Y-99131000D01*
X237818000Y-99136000D01*
X237816000Y-99141000D01*
X237814000Y-99145000D01*
X237812000Y-99150000D01*
X237809000Y-99154000D01*
X237806000Y-99159000D01*
X237803000Y-99163000D01*
X237799000Y-99167000D01*
X237796000Y-99171000D01*
X237792000Y-99174000D01*
X237788000Y-99178000D01*
X237784000Y-99181000D01*
X237779000Y-99184000D01*
X237775000Y-99187000D01*
X237770000Y-99189000D01*
X237766000Y-99191000D01*
X237761000Y-99193000D01*
X237756000Y-99195000D01*
X237751000Y-99197000D01*
X237746000Y-99198000D01*
X237741000Y-99199000D01*
X237735000Y-99199000D01*
X237730000Y-99200000D01*
X237725000Y-99200000D01*
X236775000Y-99200000D01*
X236770000Y-99200000D01*
X236765000Y-99199000D01*
X236759000Y-99199000D01*
X236754000Y-99198000D01*
X236749000Y-99197000D01*
X236744000Y-99195000D01*
X236739000Y-99193000D01*
X236734000Y-99191000D01*
X236730000Y-99189000D01*
X236725000Y-99187000D01*
X236721000Y-99184000D01*
X236716000Y-99181000D01*
X236712000Y-99178000D01*
X236708000Y-99174000D01*
X236704000Y-99171000D01*
X236701000Y-99167000D01*
X236697000Y-99163000D01*
X236694000Y-99159000D01*
X236691000Y-99154000D01*
X236688000Y-99150000D01*
X236686000Y-99145000D01*
X236684000Y-99141000D01*
X236682000Y-99136000D01*
X236680000Y-99131000D01*
X236678000Y-99126000D01*
X236677000Y-99121000D01*
X236676000Y-99116000D01*
X236676000Y-99110000D01*
X236675000Y-99105000D01*
X236675000Y-99100000D01*
X236675000Y-98900000D01*
X236675000Y-98895000D01*
X236676000Y-98890000D01*
X236676000Y-98884000D01*
X236677000Y-98879000D01*
X236678000Y-98874000D01*
X236680000Y-98869000D01*
X236682000Y-98864000D01*
X236684000Y-98859000D01*
X236686000Y-98855000D01*
X236688000Y-98850000D01*
X236691000Y-98846000D01*
X236694000Y-98841000D01*
X236697000Y-98837000D01*
X236701000Y-98833000D01*
X236704000Y-98829000D01*
X236708000Y-98826000D01*
X236712000Y-98822000D01*
X236716000Y-98819000D01*
X236721000Y-98816000D01*
X236725000Y-98813000D01*
X236730000Y-98811000D01*
X236734000Y-98809000D01*
X236739000Y-98807000D01*
X236744000Y-98805000D01*
X236749000Y-98803000D01*
X236754000Y-98802000D01*
X236759000Y-98801000D01*
X236765000Y-98801000D01*
X236770000Y-98800000D01*
X236775000Y-98800000D01*
X237725000Y-98800000D01*
X237730000Y-98800000D01*
X237735000Y-98801000D01*
G37*
X237735000Y-99301000D02*
X237741000Y-99301000D01*
X237746000Y-99302000D01*
X237751000Y-99303000D01*
X237756000Y-99305000D01*
X237761000Y-99307000D01*
X237766000Y-99309000D01*
X237770000Y-99311000D01*
X237775000Y-99313000D01*
X237779000Y-99316000D01*
X237784000Y-99319000D01*
X237788000Y-99322000D01*
X237792000Y-99326000D01*
X237796000Y-99329000D01*
X237799000Y-99333000D01*
X237803000Y-99337000D01*
X237806000Y-99341000D01*
X237809000Y-99346000D01*
X237812000Y-99350000D01*
X237814000Y-99355000D01*
X237816000Y-99359000D01*
X237818000Y-99364000D01*
X237820000Y-99369000D01*
X237822000Y-99374000D01*
X237823000Y-99379000D01*
X237824000Y-99384000D01*
X237824000Y-99390000D01*
X237825000Y-99395000D01*
X237825000Y-99400000D01*
X237825000Y-99600000D01*
X237825000Y-99605000D01*
X237824000Y-99610000D01*
X237824000Y-99616000D01*
X237823000Y-99621000D01*
X237822000Y-99626000D01*
X237820000Y-99631000D01*
X237818000Y-99636000D01*
X237816000Y-99641000D01*
X237814000Y-99645000D01*
X237812000Y-99650000D01*
X237809000Y-99654000D01*
X237806000Y-99659000D01*
X237803000Y-99663000D01*
X237799000Y-99667000D01*
X237796000Y-99671000D01*
X237792000Y-99674000D01*
X237788000Y-99678000D01*
X237784000Y-99681000D01*
X237779000Y-99684000D01*
X237775000Y-99687000D01*
X237770000Y-99689000D01*
X237766000Y-99691000D01*
X237761000Y-99693000D01*
X237756000Y-99695000D01*
X237751000Y-99697000D01*
X237746000Y-99698000D01*
X237741000Y-99699000D01*
X237735000Y-99699000D01*
X237730000Y-99700000D01*
X237725000Y-99700000D01*
X236775000Y-99700000D01*
X236770000Y-99700000D01*
X236765000Y-99699000D01*
X236759000Y-99699000D01*
X236754000Y-99698000D01*
X236749000Y-99697000D01*
X236744000Y-99695000D01*
X236739000Y-99693000D01*
X236734000Y-99691000D01*
X236730000Y-99689000D01*
X236725000Y-99687000D01*
X236721000Y-99684000D01*
X236716000Y-99681000D01*
X236712000Y-99678000D01*
X236708000Y-99674000D01*
X236704000Y-99671000D01*
X236701000Y-99667000D01*
X236697000Y-99663000D01*
X236694000Y-99659000D01*
X236691000Y-99654000D01*
X236688000Y-99650000D01*
X236686000Y-99645000D01*
X236684000Y-99641000D01*
X236682000Y-99636000D01*
X236680000Y-99631000D01*
X236678000Y-99626000D01*
X236677000Y-99621000D01*
X236676000Y-99616000D01*
X236676000Y-99610000D01*
X236675000Y-99605000D01*
X236675000Y-99600000D01*
X236675000Y-99400000D01*
X236675000Y-99395000D01*
X236676000Y-99390000D01*
X236676000Y-99384000D01*
X236677000Y-99379000D01*
X236678000Y-99374000D01*
X236680000Y-99369000D01*
X236682000Y-99364000D01*
X236684000Y-99359000D01*
X236686000Y-99355000D01*
X236688000Y-99350000D01*
X236691000Y-99346000D01*
X236694000Y-99341000D01*
X236697000Y-99337000D01*
X236701000Y-99333000D01*
X236704000Y-99329000D01*
X236708000Y-99326000D01*
X236712000Y-99322000D01*
X236716000Y-99319000D01*
X236721000Y-99316000D01*
X236725000Y-99313000D01*
X236730000Y-99311000D01*
X236734000Y-99309000D01*
X236739000Y-99307000D01*
X236744000Y-99305000D01*
X236749000Y-99303000D01*
X236754000Y-99302000D01*
X236759000Y-99301000D01*
X236765000Y-99301000D01*
X236770000Y-99300000D01*
X236775000Y-99300000D01*
X237725000Y-99300000D01*
X237730000Y-99300000D01*
X237735000Y-99301000D01*
G36*
X237735000Y-99301000D02*
G01*
X237741000Y-99301000D01*
X237746000Y-99302000D01*
X237751000Y-99303000D01*
X237756000Y-99305000D01*
X237761000Y-99307000D01*
X237766000Y-99309000D01*
X237770000Y-99311000D01*
X237775000Y-99313000D01*
X237779000Y-99316000D01*
X237784000Y-99319000D01*
X237788000Y-99322000D01*
X237792000Y-99326000D01*
X237796000Y-99329000D01*
X237799000Y-99333000D01*
X237803000Y-99337000D01*
X237806000Y-99341000D01*
X237809000Y-99346000D01*
X237812000Y-99350000D01*
X237814000Y-99355000D01*
X237816000Y-99359000D01*
X237818000Y-99364000D01*
X237820000Y-99369000D01*
X237822000Y-99374000D01*
X237823000Y-99379000D01*
X237824000Y-99384000D01*
X237824000Y-99390000D01*
X237825000Y-99395000D01*
X237825000Y-99400000D01*
X237825000Y-99600000D01*
X237825000Y-99605000D01*
X237824000Y-99610000D01*
X237824000Y-99616000D01*
X237823000Y-99621000D01*
X237822000Y-99626000D01*
X237820000Y-99631000D01*
X237818000Y-99636000D01*
X237816000Y-99641000D01*
X237814000Y-99645000D01*
X237812000Y-99650000D01*
X237809000Y-99654000D01*
X237806000Y-99659000D01*
X237803000Y-99663000D01*
X237799000Y-99667000D01*
X237796000Y-99671000D01*
X237792000Y-99674000D01*
X237788000Y-99678000D01*
X237784000Y-99681000D01*
X237779000Y-99684000D01*
X237775000Y-99687000D01*
X237770000Y-99689000D01*
X237766000Y-99691000D01*
X237761000Y-99693000D01*
X237756000Y-99695000D01*
X237751000Y-99697000D01*
X237746000Y-99698000D01*
X237741000Y-99699000D01*
X237735000Y-99699000D01*
X237730000Y-99700000D01*
X237725000Y-99700000D01*
X236775000Y-99700000D01*
X236770000Y-99700000D01*
X236765000Y-99699000D01*
X236759000Y-99699000D01*
X236754000Y-99698000D01*
X236749000Y-99697000D01*
X236744000Y-99695000D01*
X236739000Y-99693000D01*
X236734000Y-99691000D01*
X236730000Y-99689000D01*
X236725000Y-99687000D01*
X236721000Y-99684000D01*
X236716000Y-99681000D01*
X236712000Y-99678000D01*
X236708000Y-99674000D01*
X236704000Y-99671000D01*
X236701000Y-99667000D01*
X236697000Y-99663000D01*
X236694000Y-99659000D01*
X236691000Y-99654000D01*
X236688000Y-99650000D01*
X236686000Y-99645000D01*
X236684000Y-99641000D01*
X236682000Y-99636000D01*
X236680000Y-99631000D01*
X236678000Y-99626000D01*
X236677000Y-99621000D01*
X236676000Y-99616000D01*
X236676000Y-99610000D01*
X236675000Y-99605000D01*
X236675000Y-99600000D01*
X236675000Y-99400000D01*
X236675000Y-99395000D01*
X236676000Y-99390000D01*
X236676000Y-99384000D01*
X236677000Y-99379000D01*
X236678000Y-99374000D01*
X236680000Y-99369000D01*
X236682000Y-99364000D01*
X236684000Y-99359000D01*
X236686000Y-99355000D01*
X236688000Y-99350000D01*
X236691000Y-99346000D01*
X236694000Y-99341000D01*
X236697000Y-99337000D01*
X236701000Y-99333000D01*
X236704000Y-99329000D01*
X236708000Y-99326000D01*
X236712000Y-99322000D01*
X236716000Y-99319000D01*
X236721000Y-99316000D01*
X236725000Y-99313000D01*
X236730000Y-99311000D01*
X236734000Y-99309000D01*
X236739000Y-99307000D01*
X236744000Y-99305000D01*
X236749000Y-99303000D01*
X236754000Y-99302000D01*
X236759000Y-99301000D01*
X236765000Y-99301000D01*
X236770000Y-99300000D01*
X236775000Y-99300000D01*
X237725000Y-99300000D01*
X237730000Y-99300000D01*
X237735000Y-99301000D01*
G37*
X237735000Y-99801000D02*
X237741000Y-99801000D01*
X237746000Y-99802000D01*
X237751000Y-99803000D01*
X237756000Y-99805000D01*
X237761000Y-99807000D01*
X237766000Y-99809000D01*
X237770000Y-99811000D01*
X237775000Y-99813000D01*
X237779000Y-99816000D01*
X237784000Y-99819000D01*
X237788000Y-99822000D01*
X237792000Y-99826000D01*
X237796000Y-99829000D01*
X237799000Y-99833000D01*
X237803000Y-99837000D01*
X237806000Y-99841000D01*
X237809000Y-99846000D01*
X237812000Y-99850000D01*
X237814000Y-99855000D01*
X237816000Y-99859000D01*
X237818000Y-99864000D01*
X237820000Y-99869000D01*
X237822000Y-99874000D01*
X237823000Y-99879000D01*
X237824000Y-99884000D01*
X237824000Y-99890000D01*
X237825000Y-99895000D01*
X237825000Y-99900000D01*
X237825000Y-100100000D01*
X237825000Y-100105000D01*
X237824000Y-100110000D01*
X237824000Y-100116000D01*
X237823000Y-100121000D01*
X237822000Y-100126000D01*
X237820000Y-100131000D01*
X237818000Y-100136000D01*
X237816000Y-100141000D01*
X237814000Y-100145000D01*
X237812000Y-100150000D01*
X237809000Y-100154000D01*
X237806000Y-100159000D01*
X237803000Y-100163000D01*
X237799000Y-100167000D01*
X237796000Y-100171000D01*
X237792000Y-100174000D01*
X237788000Y-100178000D01*
X237784000Y-100181000D01*
X237779000Y-100184000D01*
X237775000Y-100187000D01*
X237770000Y-100189000D01*
X237766000Y-100191000D01*
X237761000Y-100193000D01*
X237756000Y-100195000D01*
X237751000Y-100197000D01*
X237746000Y-100198000D01*
X237741000Y-100199000D01*
X237735000Y-100199000D01*
X237730000Y-100200000D01*
X237725000Y-100200000D01*
X236775000Y-100200000D01*
X236770000Y-100200000D01*
X236765000Y-100199000D01*
X236759000Y-100199000D01*
X236754000Y-100198000D01*
X236749000Y-100197000D01*
X236744000Y-100195000D01*
X236739000Y-100193000D01*
X236734000Y-100191000D01*
X236730000Y-100189000D01*
X236725000Y-100187000D01*
X236721000Y-100184000D01*
X236716000Y-100181000D01*
X236712000Y-100178000D01*
X236708000Y-100174000D01*
X236704000Y-100171000D01*
X236701000Y-100167000D01*
X236697000Y-100163000D01*
X236694000Y-100159000D01*
X236691000Y-100154000D01*
X236688000Y-100150000D01*
X236686000Y-100145000D01*
X236684000Y-100141000D01*
X236682000Y-100136000D01*
X236680000Y-100131000D01*
X236678000Y-100126000D01*
X236677000Y-100121000D01*
X236676000Y-100116000D01*
X236676000Y-100110000D01*
X236675000Y-100105000D01*
X236675000Y-100100000D01*
X236675000Y-99900000D01*
X236675000Y-99895000D01*
X236676000Y-99890000D01*
X236676000Y-99884000D01*
X236677000Y-99879000D01*
X236678000Y-99874000D01*
X236680000Y-99869000D01*
X236682000Y-99864000D01*
X236684000Y-99859000D01*
X236686000Y-99855000D01*
X236688000Y-99850000D01*
X236691000Y-99846000D01*
X236694000Y-99841000D01*
X236697000Y-99837000D01*
X236701000Y-99833000D01*
X236704000Y-99829000D01*
X236708000Y-99826000D01*
X236712000Y-99822000D01*
X236716000Y-99819000D01*
X236721000Y-99816000D01*
X236725000Y-99813000D01*
X236730000Y-99811000D01*
X236734000Y-99809000D01*
X236739000Y-99807000D01*
X236744000Y-99805000D01*
X236749000Y-99803000D01*
X236754000Y-99802000D01*
X236759000Y-99801000D01*
X236765000Y-99801000D01*
X236770000Y-99800000D01*
X236775000Y-99800000D01*
X237725000Y-99800000D01*
X237730000Y-99800000D01*
X237735000Y-99801000D01*
G36*
X237735000Y-99801000D02*
G01*
X237741000Y-99801000D01*
X237746000Y-99802000D01*
X237751000Y-99803000D01*
X237756000Y-99805000D01*
X237761000Y-99807000D01*
X237766000Y-99809000D01*
X237770000Y-99811000D01*
X237775000Y-99813000D01*
X237779000Y-99816000D01*
X237784000Y-99819000D01*
X237788000Y-99822000D01*
X237792000Y-99826000D01*
X237796000Y-99829000D01*
X237799000Y-99833000D01*
X237803000Y-99837000D01*
X237806000Y-99841000D01*
X237809000Y-99846000D01*
X237812000Y-99850000D01*
X237814000Y-99855000D01*
X237816000Y-99859000D01*
X237818000Y-99864000D01*
X237820000Y-99869000D01*
X237822000Y-99874000D01*
X237823000Y-99879000D01*
X237824000Y-99884000D01*
X237824000Y-99890000D01*
X237825000Y-99895000D01*
X237825000Y-99900000D01*
X237825000Y-100100000D01*
X237825000Y-100105000D01*
X237824000Y-100110000D01*
X237824000Y-100116000D01*
X237823000Y-100121000D01*
X237822000Y-100126000D01*
X237820000Y-100131000D01*
X237818000Y-100136000D01*
X237816000Y-100141000D01*
X237814000Y-100145000D01*
X237812000Y-100150000D01*
X237809000Y-100154000D01*
X237806000Y-100159000D01*
X237803000Y-100163000D01*
X237799000Y-100167000D01*
X237796000Y-100171000D01*
X237792000Y-100174000D01*
X237788000Y-100178000D01*
X237784000Y-100181000D01*
X237779000Y-100184000D01*
X237775000Y-100187000D01*
X237770000Y-100189000D01*
X237766000Y-100191000D01*
X237761000Y-100193000D01*
X237756000Y-100195000D01*
X237751000Y-100197000D01*
X237746000Y-100198000D01*
X237741000Y-100199000D01*
X237735000Y-100199000D01*
X237730000Y-100200000D01*
X237725000Y-100200000D01*
X236775000Y-100200000D01*
X236770000Y-100200000D01*
X236765000Y-100199000D01*
X236759000Y-100199000D01*
X236754000Y-100198000D01*
X236749000Y-100197000D01*
X236744000Y-100195000D01*
X236739000Y-100193000D01*
X236734000Y-100191000D01*
X236730000Y-100189000D01*
X236725000Y-100187000D01*
X236721000Y-100184000D01*
X236716000Y-100181000D01*
X236712000Y-100178000D01*
X236708000Y-100174000D01*
X236704000Y-100171000D01*
X236701000Y-100167000D01*
X236697000Y-100163000D01*
X236694000Y-100159000D01*
X236691000Y-100154000D01*
X236688000Y-100150000D01*
X236686000Y-100145000D01*
X236684000Y-100141000D01*
X236682000Y-100136000D01*
X236680000Y-100131000D01*
X236678000Y-100126000D01*
X236677000Y-100121000D01*
X236676000Y-100116000D01*
X236676000Y-100110000D01*
X236675000Y-100105000D01*
X236675000Y-100100000D01*
X236675000Y-99900000D01*
X236675000Y-99895000D01*
X236676000Y-99890000D01*
X236676000Y-99884000D01*
X236677000Y-99879000D01*
X236678000Y-99874000D01*
X236680000Y-99869000D01*
X236682000Y-99864000D01*
X236684000Y-99859000D01*
X236686000Y-99855000D01*
X236688000Y-99850000D01*
X236691000Y-99846000D01*
X236694000Y-99841000D01*
X236697000Y-99837000D01*
X236701000Y-99833000D01*
X236704000Y-99829000D01*
X236708000Y-99826000D01*
X236712000Y-99822000D01*
X236716000Y-99819000D01*
X236721000Y-99816000D01*
X236725000Y-99813000D01*
X236730000Y-99811000D01*
X236734000Y-99809000D01*
X236739000Y-99807000D01*
X236744000Y-99805000D01*
X236749000Y-99803000D01*
X236754000Y-99802000D01*
X236759000Y-99801000D01*
X236765000Y-99801000D01*
X236770000Y-99800000D01*
X236775000Y-99800000D01*
X237725000Y-99800000D01*
X237730000Y-99800000D01*
X237735000Y-99801000D01*
G37*
X237735000Y-100301000D02*
X237741000Y-100301000D01*
X237746000Y-100302000D01*
X237751000Y-100303000D01*
X237756000Y-100305000D01*
X237761000Y-100307000D01*
X237766000Y-100309000D01*
X237770000Y-100311000D01*
X237775000Y-100313000D01*
X237779000Y-100316000D01*
X237784000Y-100319000D01*
X237788000Y-100322000D01*
X237792000Y-100326000D01*
X237796000Y-100329000D01*
X237799000Y-100333000D01*
X237803000Y-100337000D01*
X237806000Y-100341000D01*
X237809000Y-100346000D01*
X237812000Y-100350000D01*
X237814000Y-100355000D01*
X237816000Y-100359000D01*
X237818000Y-100364000D01*
X237820000Y-100369000D01*
X237822000Y-100374000D01*
X237823000Y-100379000D01*
X237824000Y-100384000D01*
X237824000Y-100390000D01*
X237825000Y-100395000D01*
X237825000Y-100400000D01*
X237825000Y-100600000D01*
X237825000Y-100605000D01*
X237824000Y-100610000D01*
X237824000Y-100616000D01*
X237823000Y-100621000D01*
X237822000Y-100626000D01*
X237820000Y-100631000D01*
X237818000Y-100636000D01*
X237816000Y-100641000D01*
X237814000Y-100645000D01*
X237812000Y-100650000D01*
X237809000Y-100654000D01*
X237806000Y-100659000D01*
X237803000Y-100663000D01*
X237799000Y-100667000D01*
X237796000Y-100671000D01*
X237792000Y-100674000D01*
X237788000Y-100678000D01*
X237784000Y-100681000D01*
X237779000Y-100684000D01*
X237775000Y-100687000D01*
X237770000Y-100689000D01*
X237766000Y-100691000D01*
X237761000Y-100693000D01*
X237756000Y-100695000D01*
X237751000Y-100697000D01*
X237746000Y-100698000D01*
X237741000Y-100699000D01*
X237735000Y-100699000D01*
X237730000Y-100700000D01*
X237725000Y-100700000D01*
X236775000Y-100700000D01*
X236770000Y-100700000D01*
X236765000Y-100699000D01*
X236759000Y-100699000D01*
X236754000Y-100698000D01*
X236749000Y-100697000D01*
X236744000Y-100695000D01*
X236739000Y-100693000D01*
X236734000Y-100691000D01*
X236730000Y-100689000D01*
X236725000Y-100687000D01*
X236721000Y-100684000D01*
X236716000Y-100681000D01*
X236712000Y-100678000D01*
X236708000Y-100674000D01*
X236704000Y-100671000D01*
X236701000Y-100667000D01*
X236697000Y-100663000D01*
X236694000Y-100659000D01*
X236691000Y-100654000D01*
X236688000Y-100650000D01*
X236686000Y-100645000D01*
X236684000Y-100641000D01*
X236682000Y-100636000D01*
X236680000Y-100631000D01*
X236678000Y-100626000D01*
X236677000Y-100621000D01*
X236676000Y-100616000D01*
X236676000Y-100610000D01*
X236675000Y-100605000D01*
X236675000Y-100600000D01*
X236675000Y-100400000D01*
X236675000Y-100395000D01*
X236676000Y-100390000D01*
X236676000Y-100384000D01*
X236677000Y-100379000D01*
X236678000Y-100374000D01*
X236680000Y-100369000D01*
X236682000Y-100364000D01*
X236684000Y-100359000D01*
X236686000Y-100355000D01*
X236688000Y-100350000D01*
X236691000Y-100346000D01*
X236694000Y-100341000D01*
X236697000Y-100337000D01*
X236701000Y-100333000D01*
X236704000Y-100329000D01*
X236708000Y-100326000D01*
X236712000Y-100322000D01*
X236716000Y-100319000D01*
X236721000Y-100316000D01*
X236725000Y-100313000D01*
X236730000Y-100311000D01*
X236734000Y-100309000D01*
X236739000Y-100307000D01*
X236744000Y-100305000D01*
X236749000Y-100303000D01*
X236754000Y-100302000D01*
X236759000Y-100301000D01*
X236765000Y-100301000D01*
X236770000Y-100300000D01*
X236775000Y-100300000D01*
X237725000Y-100300000D01*
X237730000Y-100300000D01*
X237735000Y-100301000D01*
G36*
X237735000Y-100301000D02*
G01*
X237741000Y-100301000D01*
X237746000Y-100302000D01*
X237751000Y-100303000D01*
X237756000Y-100305000D01*
X237761000Y-100307000D01*
X237766000Y-100309000D01*
X237770000Y-100311000D01*
X237775000Y-100313000D01*
X237779000Y-100316000D01*
X237784000Y-100319000D01*
X237788000Y-100322000D01*
X237792000Y-100326000D01*
X237796000Y-100329000D01*
X237799000Y-100333000D01*
X237803000Y-100337000D01*
X237806000Y-100341000D01*
X237809000Y-100346000D01*
X237812000Y-100350000D01*
X237814000Y-100355000D01*
X237816000Y-100359000D01*
X237818000Y-100364000D01*
X237820000Y-100369000D01*
X237822000Y-100374000D01*
X237823000Y-100379000D01*
X237824000Y-100384000D01*
X237824000Y-100390000D01*
X237825000Y-100395000D01*
X237825000Y-100400000D01*
X237825000Y-100600000D01*
X237825000Y-100605000D01*
X237824000Y-100610000D01*
X237824000Y-100616000D01*
X237823000Y-100621000D01*
X237822000Y-100626000D01*
X237820000Y-100631000D01*
X237818000Y-100636000D01*
X237816000Y-100641000D01*
X237814000Y-100645000D01*
X237812000Y-100650000D01*
X237809000Y-100654000D01*
X237806000Y-100659000D01*
X237803000Y-100663000D01*
X237799000Y-100667000D01*
X237796000Y-100671000D01*
X237792000Y-100674000D01*
X237788000Y-100678000D01*
X237784000Y-100681000D01*
X237779000Y-100684000D01*
X237775000Y-100687000D01*
X237770000Y-100689000D01*
X237766000Y-100691000D01*
X237761000Y-100693000D01*
X237756000Y-100695000D01*
X237751000Y-100697000D01*
X237746000Y-100698000D01*
X237741000Y-100699000D01*
X237735000Y-100699000D01*
X237730000Y-100700000D01*
X237725000Y-100700000D01*
X236775000Y-100700000D01*
X236770000Y-100700000D01*
X236765000Y-100699000D01*
X236759000Y-100699000D01*
X236754000Y-100698000D01*
X236749000Y-100697000D01*
X236744000Y-100695000D01*
X236739000Y-100693000D01*
X236734000Y-100691000D01*
X236730000Y-100689000D01*
X236725000Y-100687000D01*
X236721000Y-100684000D01*
X236716000Y-100681000D01*
X236712000Y-100678000D01*
X236708000Y-100674000D01*
X236704000Y-100671000D01*
X236701000Y-100667000D01*
X236697000Y-100663000D01*
X236694000Y-100659000D01*
X236691000Y-100654000D01*
X236688000Y-100650000D01*
X236686000Y-100645000D01*
X236684000Y-100641000D01*
X236682000Y-100636000D01*
X236680000Y-100631000D01*
X236678000Y-100626000D01*
X236677000Y-100621000D01*
X236676000Y-100616000D01*
X236676000Y-100610000D01*
X236675000Y-100605000D01*
X236675000Y-100600000D01*
X236675000Y-100400000D01*
X236675000Y-100395000D01*
X236676000Y-100390000D01*
X236676000Y-100384000D01*
X236677000Y-100379000D01*
X236678000Y-100374000D01*
X236680000Y-100369000D01*
X236682000Y-100364000D01*
X236684000Y-100359000D01*
X236686000Y-100355000D01*
X236688000Y-100350000D01*
X236691000Y-100346000D01*
X236694000Y-100341000D01*
X236697000Y-100337000D01*
X236701000Y-100333000D01*
X236704000Y-100329000D01*
X236708000Y-100326000D01*
X236712000Y-100322000D01*
X236716000Y-100319000D01*
X236721000Y-100316000D01*
X236725000Y-100313000D01*
X236730000Y-100311000D01*
X236734000Y-100309000D01*
X236739000Y-100307000D01*
X236744000Y-100305000D01*
X236749000Y-100303000D01*
X236754000Y-100302000D01*
X236759000Y-100301000D01*
X236765000Y-100301000D01*
X236770000Y-100300000D01*
X236775000Y-100300000D01*
X237725000Y-100300000D01*
X237730000Y-100300000D01*
X237735000Y-100301000D01*
G37*
X237735000Y-100801000D02*
X237741000Y-100801000D01*
X237746000Y-100802000D01*
X237751000Y-100803000D01*
X237756000Y-100805000D01*
X237761000Y-100807000D01*
X237766000Y-100809000D01*
X237770000Y-100811000D01*
X237775000Y-100813000D01*
X237779000Y-100816000D01*
X237784000Y-100819000D01*
X237788000Y-100822000D01*
X237792000Y-100826000D01*
X237796000Y-100829000D01*
X237799000Y-100833000D01*
X237803000Y-100837000D01*
X237806000Y-100841000D01*
X237809000Y-100846000D01*
X237812000Y-100850000D01*
X237814000Y-100855000D01*
X237816000Y-100859000D01*
X237818000Y-100864000D01*
X237820000Y-100869000D01*
X237822000Y-100874000D01*
X237823000Y-100879000D01*
X237824000Y-100884000D01*
X237824000Y-100890000D01*
X237825000Y-100895000D01*
X237825000Y-100900000D01*
X237825000Y-101100000D01*
X237825000Y-101105000D01*
X237824000Y-101110000D01*
X237824000Y-101116000D01*
X237823000Y-101121000D01*
X237822000Y-101126000D01*
X237820000Y-101131000D01*
X237818000Y-101136000D01*
X237816000Y-101141000D01*
X237814000Y-101145000D01*
X237812000Y-101150000D01*
X237809000Y-101154000D01*
X237806000Y-101159000D01*
X237803000Y-101163000D01*
X237799000Y-101167000D01*
X237796000Y-101171000D01*
X237792000Y-101174000D01*
X237788000Y-101178000D01*
X237784000Y-101181000D01*
X237779000Y-101184000D01*
X237775000Y-101187000D01*
X237770000Y-101189000D01*
X237766000Y-101191000D01*
X237761000Y-101193000D01*
X237756000Y-101195000D01*
X237751000Y-101197000D01*
X237746000Y-101198000D01*
X237741000Y-101199000D01*
X237735000Y-101199000D01*
X237730000Y-101200000D01*
X237725000Y-101200000D01*
X236775000Y-101200000D01*
X236770000Y-101200000D01*
X236765000Y-101199000D01*
X236759000Y-101199000D01*
X236754000Y-101198000D01*
X236749000Y-101197000D01*
X236744000Y-101195000D01*
X236739000Y-101193000D01*
X236734000Y-101191000D01*
X236730000Y-101189000D01*
X236725000Y-101187000D01*
X236721000Y-101184000D01*
X236716000Y-101181000D01*
X236712000Y-101178000D01*
X236708000Y-101174000D01*
X236704000Y-101171000D01*
X236701000Y-101167000D01*
X236697000Y-101163000D01*
X236694000Y-101159000D01*
X236691000Y-101154000D01*
X236688000Y-101150000D01*
X236686000Y-101145000D01*
X236684000Y-101141000D01*
X236682000Y-101136000D01*
X236680000Y-101131000D01*
X236678000Y-101126000D01*
X236677000Y-101121000D01*
X236676000Y-101116000D01*
X236676000Y-101110000D01*
X236675000Y-101105000D01*
X236675000Y-101100000D01*
X236675000Y-100900000D01*
X236675000Y-100895000D01*
X236676000Y-100890000D01*
X236676000Y-100884000D01*
X236677000Y-100879000D01*
X236678000Y-100874000D01*
X236680000Y-100869000D01*
X236682000Y-100864000D01*
X236684000Y-100859000D01*
X236686000Y-100855000D01*
X236688000Y-100850000D01*
X236691000Y-100846000D01*
X236694000Y-100841000D01*
X236697000Y-100837000D01*
X236701000Y-100833000D01*
X236704000Y-100829000D01*
X236708000Y-100826000D01*
X236712000Y-100822000D01*
X236716000Y-100819000D01*
X236721000Y-100816000D01*
X236725000Y-100813000D01*
X236730000Y-100811000D01*
X236734000Y-100809000D01*
X236739000Y-100807000D01*
X236744000Y-100805000D01*
X236749000Y-100803000D01*
X236754000Y-100802000D01*
X236759000Y-100801000D01*
X236765000Y-100801000D01*
X236770000Y-100800000D01*
X236775000Y-100800000D01*
X237725000Y-100800000D01*
X237730000Y-100800000D01*
X237735000Y-100801000D01*
G36*
X237735000Y-100801000D02*
G01*
X237741000Y-100801000D01*
X237746000Y-100802000D01*
X237751000Y-100803000D01*
X237756000Y-100805000D01*
X237761000Y-100807000D01*
X237766000Y-100809000D01*
X237770000Y-100811000D01*
X237775000Y-100813000D01*
X237779000Y-100816000D01*
X237784000Y-100819000D01*
X237788000Y-100822000D01*
X237792000Y-100826000D01*
X237796000Y-100829000D01*
X237799000Y-100833000D01*
X237803000Y-100837000D01*
X237806000Y-100841000D01*
X237809000Y-100846000D01*
X237812000Y-100850000D01*
X237814000Y-100855000D01*
X237816000Y-100859000D01*
X237818000Y-100864000D01*
X237820000Y-100869000D01*
X237822000Y-100874000D01*
X237823000Y-100879000D01*
X237824000Y-100884000D01*
X237824000Y-100890000D01*
X237825000Y-100895000D01*
X237825000Y-100900000D01*
X237825000Y-101100000D01*
X237825000Y-101105000D01*
X237824000Y-101110000D01*
X237824000Y-101116000D01*
X237823000Y-101121000D01*
X237822000Y-101126000D01*
X237820000Y-101131000D01*
X237818000Y-101136000D01*
X237816000Y-101141000D01*
X237814000Y-101145000D01*
X237812000Y-101150000D01*
X237809000Y-101154000D01*
X237806000Y-101159000D01*
X237803000Y-101163000D01*
X237799000Y-101167000D01*
X237796000Y-101171000D01*
X237792000Y-101174000D01*
X237788000Y-101178000D01*
X237784000Y-101181000D01*
X237779000Y-101184000D01*
X237775000Y-101187000D01*
X237770000Y-101189000D01*
X237766000Y-101191000D01*
X237761000Y-101193000D01*
X237756000Y-101195000D01*
X237751000Y-101197000D01*
X237746000Y-101198000D01*
X237741000Y-101199000D01*
X237735000Y-101199000D01*
X237730000Y-101200000D01*
X237725000Y-101200000D01*
X236775000Y-101200000D01*
X236770000Y-101200000D01*
X236765000Y-101199000D01*
X236759000Y-101199000D01*
X236754000Y-101198000D01*
X236749000Y-101197000D01*
X236744000Y-101195000D01*
X236739000Y-101193000D01*
X236734000Y-101191000D01*
X236730000Y-101189000D01*
X236725000Y-101187000D01*
X236721000Y-101184000D01*
X236716000Y-101181000D01*
X236712000Y-101178000D01*
X236708000Y-101174000D01*
X236704000Y-101171000D01*
X236701000Y-101167000D01*
X236697000Y-101163000D01*
X236694000Y-101159000D01*
X236691000Y-101154000D01*
X236688000Y-101150000D01*
X236686000Y-101145000D01*
X236684000Y-101141000D01*
X236682000Y-101136000D01*
X236680000Y-101131000D01*
X236678000Y-101126000D01*
X236677000Y-101121000D01*
X236676000Y-101116000D01*
X236676000Y-101110000D01*
X236675000Y-101105000D01*
X236675000Y-101100000D01*
X236675000Y-100900000D01*
X236675000Y-100895000D01*
X236676000Y-100890000D01*
X236676000Y-100884000D01*
X236677000Y-100879000D01*
X236678000Y-100874000D01*
X236680000Y-100869000D01*
X236682000Y-100864000D01*
X236684000Y-100859000D01*
X236686000Y-100855000D01*
X236688000Y-100850000D01*
X236691000Y-100846000D01*
X236694000Y-100841000D01*
X236697000Y-100837000D01*
X236701000Y-100833000D01*
X236704000Y-100829000D01*
X236708000Y-100826000D01*
X236712000Y-100822000D01*
X236716000Y-100819000D01*
X236721000Y-100816000D01*
X236725000Y-100813000D01*
X236730000Y-100811000D01*
X236734000Y-100809000D01*
X236739000Y-100807000D01*
X236744000Y-100805000D01*
X236749000Y-100803000D01*
X236754000Y-100802000D01*
X236759000Y-100801000D01*
X236765000Y-100801000D01*
X236770000Y-100800000D01*
X236775000Y-100800000D01*
X237725000Y-100800000D01*
X237730000Y-100800000D01*
X237735000Y-100801000D01*
G37*
D11*
%TO.C,SJ2*%
G36*
X153651100Y-71666100D02*
G01*
X152851100Y-71666100D01*
X152851100Y-69966100D01*
X153651100Y-69966100D01*
X153651100Y-71666100D01*
G37*
D12*
%TO.C,FUD1*%
X163138100Y-94753600D02*
G75*
G02*
X161614100Y-94753600I-762000J0D01*
G01*
X161614100Y-94753600D02*
G75*
G02*
X163138100Y-94753600I762000J0D01*
G01*
%TO.C,FUD2*%
X172106850Y-54816100D02*
G75*
G02*
X170582850Y-54816100I-762000J0D01*
G01*
X170582850Y-54816100D02*
G75*
G02*
X172106850Y-54816100I762000J0D01*
G01*
%TO.C,FUD3*%
X240013100Y-87003600D02*
G75*
G02*
X238489100Y-87003600I-762000J0D01*
G01*
X238489100Y-87003600D02*
G75*
G02*
X240013100Y-87003600I762000J0D01*
G01*
D11*
%TO.C,SJ1*%
G36*
X152151100Y-71666100D02*
G01*
X151351100Y-71666100D01*
X151351100Y-69966100D01*
X152151100Y-69966100D01*
X152151100Y-71666100D01*
G37*
%TD*%
D13*
%TO.C,FB2*%
X249938600Y-51841100D03*
X249938600Y-53541100D03*
%TD*%
D14*
%TO.C,JMP1*%
X152501100Y-59608600D03*
X152501100Y-62148600D03*
%TD*%
D15*
%TO.C,RESET.BTN0*%
X227376100Y-53503600D03*
X223376100Y-53503600D03*
X227376100Y-52003600D03*
X223376100Y-52003600D03*
%TD*%
D16*
%TO.C,U3*%
X175151100Y-83753600D03*
X175151100Y-83253600D03*
X175151100Y-82753600D03*
X175151100Y-82253600D03*
X175151100Y-81753600D03*
D17*
X174376100Y-81478600D03*
X173876100Y-81478600D03*
X173376100Y-81478600D03*
D18*
X172601100Y-81753600D03*
X172601100Y-82253600D03*
X172601100Y-82753600D03*
X172601100Y-83253600D03*
X172601100Y-83753600D03*
D19*
X173376100Y-84028600D03*
X173876100Y-84028600D03*
X174376100Y-84028600D03*
%TD*%
D20*
%TO.C,R23*%
X222813600Y-60990000D03*
X222813600Y-59990000D03*
%TD*%
D21*
%TO.C,MKB-2*%
X181184850Y-70393600D03*
X184364850Y-67853600D03*
X181184850Y-65313600D03*
X184364850Y-62773600D03*
X181184850Y-60233600D03*
X184364850Y-57693600D03*
X181184850Y-55153600D03*
X184364850Y-52613600D03*
%TD*%
D22*
%TO.C,F2*%
X244016600Y-52691100D03*
X246860600Y-52691100D03*
%TD*%
D23*
%TO.C,LD4*%
X233451100Y-62566100D03*
X235551100Y-62566100D03*
%TD*%
D24*
%TO.C,LD14*%
X248001100Y-63391100D03*
X248001100Y-65491100D03*
%TD*%
D25*
%TO.C,J1*%
X153900000Y-81253600D03*
X153900000Y-82253600D03*
X153900000Y-83253600D03*
X153900000Y-84253600D03*
D26*
X150025000Y-79953600D03*
X150025000Y-85553600D03*
%TD*%
D27*
%TO.C,@HOLE1*%
X255501100Y-53753600D03*
%TD*%
D28*
%TO.C,R10*%
X252938600Y-59691100D03*
X252938600Y-60691100D03*
%TD*%
D29*
%TO.C,R5*%
X175251100Y-69816100D03*
X174251100Y-69816100D03*
%TD*%
D30*
%TO.C,U6*%
X251713600Y-65341100D03*
X251713600Y-65991100D03*
X251713600Y-66641100D03*
X251713600Y-67291100D03*
D31*
X252713600Y-68291100D03*
X253363600Y-68291100D03*
X254013600Y-68291100D03*
X254663600Y-68291100D03*
D32*
X255663600Y-67291100D03*
X255663600Y-66641100D03*
X255663600Y-65991100D03*
X255663600Y-65341100D03*
D33*
X254663600Y-64341100D03*
X254013600Y-64341100D03*
X253363600Y-64341100D03*
X252713600Y-64341100D03*
D34*
X253688600Y-66316100D03*
%TD*%
D27*
%TO.C,@HOLE0*%
X152501100Y-53753600D03*
%TD*%
D35*
%TO.C,TX0*%
X235488600Y-57628600D03*
X233388600Y-57628600D03*
%TD*%
D24*
%TO.C,LD10*%
X243001100Y-67141100D03*
X243001100Y-69241100D03*
%TD*%
D36*
%TO.C,DBG0*%
X225900000Y-99550000D03*
X226900000Y-99550000D03*
X227900000Y-99550000D03*
D37*
X224600000Y-103425000D03*
X229200000Y-103425000D03*
%TD*%
D29*
%TO.C,R11*%
X152751100Y-64566100D03*
X151751100Y-64566100D03*
%TD*%
D38*
%TO.C,U1*%
X152251100Y-68676100D03*
X152751100Y-68676100D03*
X153251100Y-68676100D03*
X153751100Y-68676100D03*
X153751100Y-65956100D03*
X153251100Y-65956100D03*
X152751100Y-65956100D03*
X152251100Y-65956100D03*
D39*
X153001100Y-67316100D03*
%TD*%
D40*
%TO.C,SJ2*%
X153251100Y-71291100D03*
X153251100Y-70341100D03*
%TD*%
D41*
%TO.C,X1*%
X174844850Y-62368600D03*
X172344850Y-62368600D03*
X170344850Y-62368600D03*
X167844850Y-62368600D03*
D42*
X177914850Y-59658500D03*
X164774850Y-59658500D03*
%TD*%
D24*
%TO.C,LD15*%
X248001100Y-67141100D03*
X248001100Y-69241100D03*
%TD*%
D43*
%TO.C,RN4*%
X227137519Y-71503600D03*
D44*
X227688600Y-71503600D03*
X228188600Y-71503600D03*
D43*
X228739681Y-71503600D03*
X228739681Y-70503600D03*
D44*
X228188600Y-70503600D03*
X227688600Y-70503600D03*
D43*
X227137519Y-70503600D03*
%TD*%
D45*
%TO.C,R24*%
X154400000Y-76000000D03*
X155400000Y-76000000D03*
%TD*%
D46*
%TO.C,U4*%
X170013600Y-68866100D03*
X170013600Y-69816100D03*
X170013600Y-70766100D03*
X172613600Y-70766100D03*
X172613600Y-68866100D03*
%TD*%
D24*
%TO.C,LD9*%
X243001100Y-63391100D03*
X243001100Y-65491100D03*
%TD*%
D13*
%TO.C,FB3*%
X174844850Y-64622350D03*
X174844850Y-66322350D03*
%TD*%
D47*
%TO.C,C65*%
X151037500Y-78000000D03*
X152762500Y-78000000D03*
%TD*%
D29*
%TO.C,R20*%
X229900000Y-57628600D03*
X228900000Y-57628600D03*
%TD*%
D48*
%TO.C,L.BTN0*%
X158401100Y-92503600D03*
X166351100Y-92503600D03*
X158401100Y-97003600D03*
X166351100Y-97003600D03*
%TD*%
D24*
%TO.C,LD8*%
X237001100Y-67141100D03*
X237001100Y-69241100D03*
%TD*%
D27*
%TO.C,@HOLE3*%
X255501100Y-101003600D03*
%TD*%
D20*
%TO.C,R8*%
X186063600Y-71528600D03*
X186063600Y-70528600D03*
%TD*%
D23*
%TO.C,LD11*%
X244451100Y-62566100D03*
X246551100Y-62566100D03*
%TD*%
D49*
%TO.C,C7*%
X177626100Y-67828600D03*
X177626100Y-65928600D03*
%TD*%
D45*
%TO.C,C4*%
X176438600Y-84628600D03*
X177438600Y-84628600D03*
%TD*%
D50*
%TO.C,U2*%
X166631100Y-65472350D03*
D51*
X166626100Y-64972350D03*
X166626100Y-64472350D03*
X165876100Y-64472350D03*
X165876100Y-64972350D03*
X165876100Y-65472350D03*
%TD*%
D20*
%TO.C,C10*%
X250188600Y-64816100D03*
X250188600Y-63816100D03*
%TD*%
D52*
%TO.C,J4*%
X202980000Y-101960000D03*
X204980000Y-101960000D03*
D53*
X200580000Y-96760000D03*
X207380000Y-96760000D03*
%TD*%
D54*
%TO.C,T2*%
X161626100Y-82753600D03*
X163126100Y-82753600D03*
%TD*%
D55*
%TO.C,F1*%
X172766850Y-66316100D03*
X169922850Y-66316100D03*
%TD*%
D43*
%TO.C,RN3*%
X223887519Y-71503600D03*
D44*
X224438600Y-71503600D03*
X224938600Y-71503600D03*
D43*
X225489681Y-71503600D03*
X225489681Y-70503600D03*
D44*
X224938600Y-70503600D03*
X224438600Y-70503600D03*
D43*
X223887519Y-70503600D03*
%TD*%
D24*
%TO.C,LD3*%
X232001100Y-67141100D03*
X232001100Y-69241100D03*
%TD*%
D23*
%TO.C,LD5*%
X233451100Y-66316100D03*
X235551100Y-66316100D03*
%TD*%
D20*
%TO.C,R12*%
X150251100Y-71316100D03*
X150251100Y-70316100D03*
%TD*%
D45*
%TO.C,R7*%
X227626100Y-95503600D03*
X228626100Y-95503600D03*
%TD*%
D23*
%TO.C,LD6*%
X233451100Y-70066100D03*
X235551100Y-70066100D03*
%TD*%
D45*
%TO.C,R4*%
X243400000Y-94750000D03*
X244400000Y-94750000D03*
%TD*%
D28*
%TO.C,R15*%
X186063600Y-88058600D03*
X186063600Y-89058600D03*
%TD*%
D48*
%TO.C,R.BTN0*%
X169901100Y-92503600D03*
X177851100Y-92503600D03*
X169901100Y-97003600D03*
X177851100Y-97003600D03*
%TD*%
D56*
%TO.C,T1*%
X245800000Y-97900000D03*
X247700000Y-97900000D03*
X246750000Y-95700000D03*
%TD*%
D57*
%TO.C,P1*%
X188551100Y-55788600D03*
D58*
X194041100Y-55788600D03*
D57*
X188551100Y-58328600D03*
D58*
X194041100Y-58328600D03*
D57*
X188551100Y-60868600D03*
D58*
X194041100Y-60868600D03*
D57*
X188551100Y-63408600D03*
D58*
X194041100Y-63408600D03*
D57*
X188551100Y-65948600D03*
D58*
X194041100Y-65948600D03*
D57*
X188551100Y-68488600D03*
D58*
X194041100Y-68488600D03*
D57*
X188551100Y-71028600D03*
D58*
X194041100Y-71028600D03*
D57*
X188551100Y-73568600D03*
D58*
X194041100Y-73568600D03*
D57*
X188551100Y-76108600D03*
D58*
X194041100Y-76108600D03*
D57*
X188551100Y-78648600D03*
D58*
X194041100Y-78648600D03*
D57*
X188551100Y-81188600D03*
D58*
X194041100Y-81188600D03*
D57*
X188551100Y-83728600D03*
D58*
X194041100Y-83728600D03*
D57*
X188551100Y-86268600D03*
D58*
X194041100Y-86268600D03*
D57*
X188551100Y-88808600D03*
D58*
X194041100Y-88808600D03*
D57*
X188551100Y-91348600D03*
D58*
X194041100Y-91348600D03*
D57*
X188551100Y-93888600D03*
D58*
X194041100Y-93888600D03*
D57*
X188551100Y-96428600D03*
D58*
X194041100Y-96428600D03*
D57*
X188551100Y-98968600D03*
D58*
X194041100Y-98968600D03*
%TD*%
D20*
%TO.C,R13*%
X154751100Y-71316100D03*
X154751100Y-70316100D03*
%TD*%
D59*
%TO.C,RN2*%
X225489681Y-61128600D03*
D60*
X224938600Y-61128600D03*
X224438600Y-61128600D03*
D59*
X223887519Y-61128600D03*
X223887519Y-62128600D03*
D60*
X224438600Y-62128600D03*
X224938600Y-62128600D03*
D59*
X225489681Y-62128600D03*
%TD*%
D61*
%TO.C,BUZZER0*%
X242451100Y-84503600D03*
X242451100Y-91503600D03*
D62*
X246751100Y-82753600D03*
X246751100Y-93253600D03*
X236051100Y-82753600D03*
X236051100Y-93253600D03*
%TD*%
D45*
%TO.C,R19*%
X243400000Y-57600000D03*
X244400000Y-57600000D03*
%TD*%
D28*
%TO.C,C3*%
X151063600Y-66816100D03*
X151063600Y-67816100D03*
%TD*%
D45*
%TO.C,C9*%
X254813600Y-69878600D03*
X255813600Y-69878600D03*
%TD*%
D63*
%TO.C,FUD1*%
X162376100Y-94753600D03*
%TD*%
D20*
%TO.C,R16*%
X186063600Y-87018600D03*
X186063600Y-86018600D03*
%TD*%
D64*
%TO.C,MKB-1*%
X161504850Y-52613600D03*
X158324850Y-55153600D03*
X161504850Y-57693600D03*
X158324850Y-60233600D03*
X161504850Y-62773600D03*
X158324850Y-65313600D03*
X161504850Y-67853600D03*
X158324850Y-70393600D03*
%TD*%
D57*
%TO.C,P2*%
X213951100Y-55788600D03*
D58*
X219441100Y-55788600D03*
D57*
X213951100Y-58328600D03*
D58*
X219441100Y-58328600D03*
D57*
X213951100Y-60868600D03*
D58*
X219441100Y-60868600D03*
D57*
X213951100Y-63408600D03*
D58*
X219441100Y-63408600D03*
D57*
X213951100Y-65948600D03*
D58*
X219441100Y-65948600D03*
D57*
X213951100Y-68488600D03*
D58*
X219441100Y-68488600D03*
D57*
X213951100Y-71028600D03*
D58*
X219441100Y-71028600D03*
D57*
X213951100Y-73568600D03*
D58*
X219441100Y-73568600D03*
D57*
X213951100Y-76108600D03*
D58*
X219441100Y-76108600D03*
D57*
X213951100Y-78648600D03*
D58*
X219441100Y-78648600D03*
D57*
X213951100Y-81188600D03*
D58*
X219441100Y-81188600D03*
D57*
X213951100Y-83728600D03*
D58*
X219441100Y-83728600D03*
D57*
X213951100Y-86268600D03*
D58*
X219441100Y-86268600D03*
D57*
X213951100Y-88808600D03*
D58*
X219441100Y-88808600D03*
D57*
X213951100Y-91348600D03*
D58*
X219441100Y-91348600D03*
D57*
X213951100Y-93888600D03*
D58*
X219441100Y-93888600D03*
D57*
X213951100Y-96428600D03*
D58*
X219441100Y-96428600D03*
D57*
X213951100Y-98968600D03*
D58*
X219441100Y-98968600D03*
%TD*%
D45*
%TO.C,C11*%
X242751100Y-54816100D03*
X243751100Y-54816100D03*
%TD*%
D28*
%TO.C,C6*%
X173376100Y-85503600D03*
X173376100Y-86503600D03*
%TD*%
D65*
%TO.C,LD1*%
X225626100Y-86428600D03*
X225626100Y-84878600D03*
X225626100Y-83328600D03*
X230626100Y-83328600D03*
X230626100Y-84878600D03*
X230626100Y-86428600D03*
%TD*%
D45*
%TO.C,C5*%
X176438600Y-83253600D03*
X177438600Y-83253600D03*
%TD*%
D29*
%TO.C,R17*%
X162876100Y-90503600D03*
X161876100Y-90503600D03*
%TD*%
D66*
%TO.C,FUD2*%
X171344850Y-54816100D03*
%TD*%
D45*
%TO.C,R3*%
X227626100Y-90628600D03*
X228626100Y-90628600D03*
%TD*%
%TO.C,R26*%
X154400000Y-78100000D03*
X155400000Y-78100000D03*
%TD*%
%TO.C,R18*%
X173376100Y-90503600D03*
X174376100Y-90503600D03*
%TD*%
D24*
%TO.C,LD7*%
X237001100Y-63391100D03*
X237001100Y-65491100D03*
%TD*%
D67*
%TO.C,J2*%
X239690000Y-54515000D03*
X233910000Y-54515000D03*
D68*
X240000000Y-55590000D03*
X239200000Y-55590000D03*
D69*
X238050000Y-55590000D03*
X237050000Y-55590000D03*
X236550000Y-55590000D03*
X235550000Y-55590000D03*
D68*
X233600000Y-55590000D03*
X234400000Y-55590000D03*
D69*
X235050000Y-55590000D03*
X236050000Y-55590000D03*
X237550000Y-55590000D03*
X238550000Y-55590000D03*
D70*
X241120000Y-55015000D03*
D71*
X241120000Y-50835000D03*
D70*
X232480000Y-55015000D03*
D71*
X232480000Y-50835000D03*
%TD*%
D20*
%TO.C,C1*%
X164376100Y-65472350D03*
X164376100Y-64472350D03*
%TD*%
D45*
%TO.C,R6*%
X161876100Y-84253600D03*
X162876100Y-84253600D03*
%TD*%
%TO.C,R25*%
X239200000Y-101200000D03*
X240200000Y-101200000D03*
%TD*%
D23*
%TO.C,LD13*%
X244451100Y-70066100D03*
X246551100Y-70066100D03*
%TD*%
D20*
%TO.C,R14*%
X156251100Y-71316100D03*
X156251100Y-70316100D03*
%TD*%
D72*
%TO.C,C12*%
X209730000Y-99305000D03*
X209730000Y-100855000D03*
%TD*%
D13*
%TO.C,FB4*%
X163813600Y-54303600D03*
X163813600Y-56003600D03*
%TD*%
D45*
%TO.C,R2*%
X227626100Y-92253600D03*
X228626100Y-92253600D03*
%TD*%
D28*
%TO.C,C8*%
X257188600Y-66628600D03*
X257188600Y-67628600D03*
%TD*%
D59*
%TO.C,RN1*%
X228739681Y-61128600D03*
D60*
X228188600Y-61128600D03*
X227688600Y-61128600D03*
D59*
X227137519Y-61128600D03*
X227137519Y-62128600D03*
D60*
X227688600Y-62128600D03*
X228188600Y-62128600D03*
D59*
X228739681Y-62128600D03*
%TD*%
D28*
%TO.C,C2*%
X222813600Y-63816100D03*
X222813600Y-64816100D03*
%TD*%
D27*
%TO.C,@HOLE2*%
X152501100Y-101003600D03*
%TD*%
D73*
%TO.C,U5*%
X227563600Y-64366100D03*
X227063600Y-64366100D03*
X226563600Y-64366100D03*
X226063600Y-64366100D03*
X225563600Y-64366100D03*
X225063600Y-64366100D03*
D74*
X224363600Y-65066100D03*
X224363600Y-65566100D03*
X224363600Y-66066100D03*
X224363600Y-66566100D03*
X224363600Y-67066100D03*
X224363600Y-67566100D03*
D75*
X225063600Y-68266100D03*
X225563600Y-68266100D03*
X226063600Y-68266100D03*
X226563600Y-68266100D03*
X227063600Y-68266100D03*
X227563600Y-68266100D03*
D76*
X228263600Y-67566100D03*
X228263600Y-67066100D03*
X228263600Y-66566100D03*
X228263600Y-66066100D03*
X228263600Y-65566100D03*
X228263600Y-65066100D03*
D77*
X226313600Y-66316100D03*
%TD*%
D45*
%TO.C,R1*%
X227626100Y-93878600D03*
X228626100Y-93878600D03*
%TD*%
D13*
%TO.C,FB1*%
X230188600Y-51809850D03*
X230188600Y-53509850D03*
%TD*%
D28*
%TO.C,R9*%
X254438600Y-59691100D03*
X254438600Y-60691100D03*
%TD*%
D23*
%TO.C,RX0*%
X237826100Y-57628600D03*
X239926100Y-57628600D03*
%TD*%
D29*
%TO.C,R22*%
X231938600Y-57628600D03*
X230938600Y-57628600D03*
%TD*%
D66*
%TO.C,FUD3*%
X239251100Y-87003600D03*
%TD*%
D40*
%TO.C,SJ1*%
X151751100Y-71291100D03*
X151751100Y-70341100D03*
%TD*%
D23*
%TO.C,LD12*%
X244451100Y-66316100D03*
X246551100Y-66316100D03*
%TD*%
D45*
%TO.C,R21*%
X241376100Y-57628600D03*
X242376100Y-57628600D03*
%TD*%
D24*
%TO.C,LD2*%
X232001100Y-63391100D03*
X232001100Y-65491100D03*
%TD*%
M02*
