M48
; DRILL file {KiCad 9.0.2} date 2025-06-01T02:46:18+0530
; FORMAT={-:-/ absolute / metric / decimal}
; #@! TF.CreationDate,2025-06-01T02:46:18+05:30
; #@! TF.GenerationSoftware,Kicad,Pcbnew,9.0.2
; #@! TF.FileFunction,Plated,1,2,PTH
FMAT,2
METRIC
; #@! TA.AperFunction,Plated,PTH,ViaDrill
T1C0.254
; #@! TA.AperFunction,Plated,PTH,ViaDrill
T2C0.300
; #@! TA.AperFunction,Plated,PTH,ViaDrill
T3C0.381
; #@! TA.AperFunction,Plated,PTH,ViaDrill
T4C0.406
; #@! TA.AperFunction,Plated,PTH,ViaDrill
T5C0.508
; #@! TA.AperFunction,Plated,PTH,ComponentDrill
T6C0.600
; #@! TA.AperFunction,Plated,PTH,ViaDrill
T7C0.610
; #@! TA.AperFunction,Plated,PTH,ViaDrill
T8C0.635
; #@! TA.AperFunction,Plated,PTH,ComponentDrill
T9C0.889
; #@! TA.AperFunction,Plated,PTH,ComponentDrill
T10C1.000
; #@! TA.AperFunction,Plated,PTH,ComponentDrill
T11C2.300
%
G90
G05
T1
X151.064Y-68.691
X151.751Y-72.066
X153.251Y-72.066
X154.814Y-68.676
X155.689Y-67.254
X156.314Y-66.629
X163.626Y-90.504
X164.376Y-63.629
X167.876Y-65.879
X168.939Y-69.816
X169.064Y-87.441
X169.689Y-86.816
X172.626Y-90.504
X173.376Y-87.254
X174.376Y-80.566
X175.151Y-81.066
X176.001Y-69.816
X176.064Y-82.254
X178.126Y-83.941
X179.689Y-88.879
X180.314Y-88.254
X182.751Y-74.254
X190.189Y-91.349
X190.189Y-96.429
X190.189Y-98.969
X190.251Y-66.33
X190.251Y-68.108
X190.314Y-58.329
X190.314Y-60.869
X192.439Y-98.969
X204.001Y-91.941
X204.001Y-97.504
X204.001Y-98.441
X216.701Y-60.879
X216.701Y-98.691
X222.814Y-63.066
X222.939Y-96.629
X223.126Y-57.254
X224.189Y-96.941
X224.314Y-68.266
X224.6Y-101.65
X225.376Y-52.379
X225.439Y-97.254
X226.314Y-59.379
X226.314Y-60.254
X226.314Y-61.129
X226.314Y-62.004
X227.189Y-59.379
X228.064Y-59.379
X228.126Y-94.691
X228.939Y-59.379
X229.189Y-65.566
X229.376Y-72.254
X230.251Y-72.254
X230.876Y-65.491
X230.876Y-69.241
X231.126Y-72.254
X231.439Y-58.379
X232.126Y-84.879
X232.2Y-101.0
X232.501Y-72.254
X233.376Y-72.254
X233.626Y-64.441
X234.251Y-72.254
X234.501Y-64.441
X234.907Y-72.91
X235.376Y-64.441
X235.551Y-71.191
X236.012Y-98.712
X236.15Y-97.275
X237.001Y-70.379
X238.75Y-97.25
X238.813Y-99.265
X241.876Y-58.379
X242.65Y-94.75
X244.501Y-54.816
X244.626Y-64.441
X245.501Y-67.754
X245.501Y-68.629
X246.376Y-64.441
X246.551Y-61.441
X246.551Y-71.191
X248.001Y-70.379
X250.189Y-63.066
X250.751Y-65.991
X251.314Y-62.504
X251.939Y-63.129
X252.001Y-68.004
X253.251Y-62.066
X253.251Y-71.16
X254.126Y-62.066
X254.126Y-71.16
X254.664Y-63.379
X256.189Y-68.129
T2
X151.25Y-81.25
X151.3Y-83.73
X151.9Y-82.9
X151.9Y-84.5
X201.59Y-101.14
X236.05Y-52.55
X237.55Y-52.6
X253.264Y-58.652
X254.114Y-58.652
T3
X236.399Y-50.665
T4
X162.376Y-96.441
X173.876Y-96.441
X177.626Y-64.566
X185.189Y-71.029
X248.812Y-97.9
T5
X167.876Y-54.316
X190.314Y-73.569
X192.314Y-73.569
X192.314Y-81.189
X204.001Y-55.254
X215.814Y-73.569
X215.814Y-81.189
X225.376Y-78.904
X245.689Y-55.066
T7
X160.001Y-70.394
X182.876Y-70.394
T8
X173.876Y-82.754
X177.626Y-69.816
X191.939Y-83.729
X216.064Y-71.029
X226.314Y-66.316
X230.189Y-55.004
X253.689Y-66.316
T9
X152.501Y-59.609
X152.501Y-62.149
T10
X167.845Y-62.369
X170.345Y-62.369
X172.345Y-62.369
X174.845Y-62.369
T11
X164.775Y-59.658
X177.915Y-59.658
T6
G00X232.48Y-51.235
M15
G01X232.48Y-50.435
M16
G05
G00X232.48Y-55.565
M15
G01X232.48Y-54.465
M16
G05
G00X241.12Y-51.235
M15
G01X241.12Y-50.435
M16
G05
G00X241.12Y-55.565
M15
G01X241.12Y-54.465
M16
G05
M30
